<svg xmlns="http://www.w3.org/2000/svg" xmlns:xlink="http://www.w3.org/1999/xlink" width="1080" zoomAndPan="magnify" viewBox="0 0 810 809.999993" height="1080" preserveAspectRatio="xMidYMid meet" version="1.0"><defs><clipPath id="6d02c91a73"><path d="M 53 232 L 756 232 L 756 593 L 53 593 Z M 53 232 " clip-rule="nonzero"/></clipPath><clipPath id="dab0528bdb"><path d="M 405.128906 227.21875 L 760.449219 582.539062 L 405.128906 937.859375 L 49.808594 582.539062 Z M 405.128906 227.21875 " clip-rule="nonzero"/></clipPath><clipPath id="62bc917525"><path d="M 405.128906 227.21875 L 760.449219 582.539062 L 405.128906 937.859375 L 49.808594 582.539062 Z M 405.128906 227.21875 " clip-rule="nonzero"/></clipPath><clipPath id="908c7dba9a"><path d="M 210 232 L 414 232 L 414 698 L 210 698 Z M 210 232 " clip-rule="nonzero"/></clipPath><clipPath id="e95a29ae1f"><path d="M 405.128906 227.21875 L 760.449219 582.539062 L 405.128906 937.859375 L 49.808594 582.539062 Z M 405.128906 227.21875 " clip-rule="nonzero"/></clipPath><clipPath id="1dd1a2dae6"><path d="M 405.128906 227.21875 L 760.449219 582.539062 L 405.128906 937.859375 L 49.808594 582.539062 Z M 405.128906 227.21875 " clip-rule="nonzero"/></clipPath><clipPath id="4cc4a156df"><path d="M 395 232 L 599 232 L 599 698 L 395 698 Z M 395 232 " clip-rule="nonzero"/></clipPath><clipPath id="81a4a9888f"><path d="M 405.128906 227.21875 L 760.449219 582.539062 L 405.128906 937.859375 L 49.808594 582.539062 Z M 405.128906 227.21875 " clip-rule="nonzero"/></clipPath><clipPath id="8cb811944a"><path d="M 405.128906 227.21875 L 760.449219 582.539062 L 405.128906 937.859375 L 49.808594 582.539062 Z M 405.128906 227.21875 " clip-rule="nonzero"/></clipPath><clipPath id="4b2c4219e0"><path d="M 395 232 L 414 232 L 414 796 L 395 796 Z M 395 232 " clip-rule="nonzero"/></clipPath><clipPath id="f67246d4b9"><path d="M 405.128906 227.21875 L 760.449219 582.539062 L 405.128906 937.859375 L 49.808594 582.539062 Z M 405.128906 227.21875 " clip-rule="nonzero"/></clipPath><clipPath id="0754fa8f86"><path d="M 405.128906 227.21875 L 760.449219 582.539062 L 405.128906 937.859375 L 49.808594 582.539062 Z M 405.128906 227.21875 " clip-rule="nonzero"/></clipPath><clipPath id="40de84a30d"><path d="M 279 338 L 354 338 L 354 403 L 279 403 Z M 279 338 " clip-rule="nonzero"/></clipPath><clipPath id="3113613370"><path d="M 405.128906 227.21875 L 760.449219 582.539062 L 405.128906 937.859375 L 49.808594 582.539062 Z M 405.128906 227.21875 " clip-rule="nonzero"/></clipPath><clipPath id="bf9d0be09c"><path d="M 405.128906 227.21875 L 760.449219 582.539062 L 405.128906 937.859375 L 49.808594 582.539062 Z M 405.128906 227.21875 " clip-rule="nonzero"/></clipPath><clipPath id="5defa271a9"><path d="M 208 403 L 318 403 L 318 501 L 208 501 Z M 208 403 " clip-rule="nonzero"/></clipPath><clipPath id="5fda6992ca"><path d="M 405.128906 227.21875 L 760.449219 582.539062 L 405.128906 937.859375 L 49.808594 582.539062 Z M 405.128906 227.21875 " clip-rule="nonzero"/></clipPath><clipPath id="145389d77a"><path d="M 405.128906 227.21875 L 760.449219 582.539062 L 405.128906 937.859375 L 49.808594 582.539062 Z M 405.128906 227.21875 " clip-rule="nonzero"/></clipPath><clipPath id="a06bea0602"><path d="M 152 471 L 284 471 L 284 567 L 152 567 Z M 152 471 " clip-rule="nonzero"/></clipPath><clipPath id="d5fd11dd8b"><path d="M 405.128906 227.21875 L 760.449219 582.539062 L 405.128906 937.859375 L 49.808594 582.539062 Z M 405.128906 227.21875 " clip-rule="nonzero"/></clipPath><clipPath id="7dfb15c7e2"><path d="M 405.128906 227.21875 L 760.449219 582.539062 L 405.128906 937.859375 L 49.808594 582.539062 Z M 405.128906 227.21875 " clip-rule="nonzero"/></clipPath><clipPath id="8f918f8731"><path d="M 332 363 L 414 363 L 414 415 L 332 415 Z M 332 363 " clip-rule="nonzero"/></clipPath><clipPath id="fe0fafb8eb"><path d="M 405.128906 227.21875 L 760.449219 582.539062 L 405.128906 937.859375 L 49.808594 582.539062 Z M 405.128906 227.21875 " clip-rule="nonzero"/></clipPath><clipPath id="bdc7312aa4"><path d="M 405.128906 227.21875 L 760.449219 582.539062 L 405.128906 937.859375 L 49.808594 582.539062 Z M 405.128906 227.21875 " clip-rule="nonzero"/></clipPath><clipPath id="1927ffa817"><path d="M 294 443 L 415 443 L 415 522 L 294 522 Z M 294 443 " clip-rule="nonzero"/></clipPath><clipPath id="2b595311b5"><path d="M 405.128906 227.21875 L 760.449219 582.539062 L 405.128906 937.859375 L 49.808594 582.539062 Z M 405.128906 227.21875 " clip-rule="nonzero"/></clipPath><clipPath id="ef4109fa62"><path d="M 405.128906 227.21875 L 760.449219 582.539062 L 405.128906 937.859375 L 49.808594 582.539062 Z M 405.128906 227.21875 " clip-rule="nonzero"/></clipPath><clipPath id="cf3802e7a2"><path d="M 263 529 L 414 529 L 414 593 L 263 593 Z M 263 529 " clip-rule="nonzero"/></clipPath><clipPath id="2e3d0f7d65"><path d="M 405.128906 227.21875 L 760.449219 582.539062 L 405.128906 937.859375 L 49.808594 582.539062 Z M 405.128906 227.21875 " clip-rule="nonzero"/></clipPath><clipPath id="75abfe618f"><path d="M 405.128906 227.21875 L 760.449219 582.539062 L 405.128906 937.859375 L 49.808594 582.539062 Z M 405.128906 227.21875 " clip-rule="nonzero"/></clipPath><clipPath id="3889f29d3b"><path d="M 395 363 L 477 363 L 477 416 L 395 416 Z M 395 363 " clip-rule="nonzero"/></clipPath><clipPath id="415a9273fd"><path d="M 405.128906 227.21875 L 760.449219 582.539062 L 405.128906 937.859375 L 49.808594 582.539062 Z M 405.128906 227.21875 " clip-rule="nonzero"/></clipPath><clipPath id="78450762b4"><path d="M 405.128906 227.21875 L 760.449219 582.539062 L 405.128906 937.859375 L 49.808594 582.539062 Z M 405.128906 227.21875 " clip-rule="nonzero"/></clipPath><clipPath id="970337237e"><path d="M 395 443 L 518 443 L 518 517 L 395 517 Z M 395 443 " clip-rule="nonzero"/></clipPath><clipPath id="3d9adcb465"><path d="M 405.128906 227.21875 L 760.449219 582.539062 L 405.128906 937.859375 L 49.808594 582.539062 Z M 405.128906 227.21875 " clip-rule="nonzero"/></clipPath><clipPath id="6cb4542d3e"><path d="M 405.128906 227.21875 L 760.449219 582.539062 L 405.128906 937.859375 L 49.808594 582.539062 Z M 405.128906 227.21875 " clip-rule="nonzero"/></clipPath><clipPath id="e0708d52de"><path d="M 395 528 L 545 528 L 545 596 L 395 596 Z M 395 528 " clip-rule="nonzero"/></clipPath><clipPath id="81c1b86907"><path d="M 405.128906 227.21875 L 760.449219 582.539062 L 405.128906 937.859375 L 49.808594 582.539062 Z M 405.128906 227.21875 " clip-rule="nonzero"/></clipPath><clipPath id="984e55c142"><path d="M 405.128906 227.21875 L 760.449219 582.539062 L 405.128906 937.859375 L 49.808594 582.539062 Z M 405.128906 227.21875 " clip-rule="nonzero"/></clipPath><clipPath id="fb6c50fdfe"><path d="M 455 338 L 531 338 L 531 404 L 455 404 Z M 455 338 " clip-rule="nonzero"/></clipPath><clipPath id="a8e8a8db5d"><path d="M 405.128906 227.21875 L 760.449219 582.539062 L 405.128906 937.859375 L 49.808594 582.539062 Z M 405.128906 227.21875 " clip-rule="nonzero"/></clipPath><clipPath id="f0499bc37f"><path d="M 405.128906 227.21875 L 760.449219 582.539062 L 405.128906 937.859375 L 49.808594 582.539062 Z M 405.128906 227.21875 " clip-rule="nonzero"/></clipPath><clipPath id="a33fc49fa0"><path d="M 492 403 L 606 403 L 606 496 L 492 496 Z M 492 403 " clip-rule="nonzero"/></clipPath><clipPath id="adf207cad9"><path d="M 405.128906 227.21875 L 760.449219 582.539062 L 405.128906 937.859375 L 49.808594 582.539062 Z M 405.128906 227.21875 " clip-rule="nonzero"/></clipPath><clipPath id="6f9fa73350"><path d="M 405.128906 227.21875 L 760.449219 582.539062 L 405.128906 937.859375 L 49.808594 582.539062 Z M 405.128906 227.21875 " clip-rule="nonzero"/></clipPath><clipPath id="5344abad37"><path d="M 527 470 L 656 470 L 656 569 L 527 569 Z M 527 470 " clip-rule="nonzero"/></clipPath><clipPath id="78a8c80b8c"><path d="M 405.128906 227.21875 L 760.449219 582.539062 L 405.128906 937.859375 L 49.808594 582.539062 Z M 405.128906 227.21875 " clip-rule="nonzero"/></clipPath><clipPath id="3cab571a6d"><path d="M 405.128906 227.21875 L 760.449219 582.539062 L 405.128906 937.859375 L 49.808594 582.539062 Z M 405.128906 227.21875 " clip-rule="nonzero"/></clipPath><clipPath id="4a9d8d3b2d"><path d="M 91 527 L 252 527 L 252 643 L 91 643 Z M 91 527 " clip-rule="nonzero"/></clipPath><clipPath id="83ead7cb02"><path d="M 405.128906 227.21875 L 760.449219 582.539062 L 405.128906 937.859375 L 49.808594 582.539062 Z M 405.128906 227.21875 " clip-rule="nonzero"/></clipPath><clipPath id="b0db7423b4"><path d="M 405.128906 227.21875 L 760.449219 582.539062 L 405.128906 937.859375 L 49.808594 582.539062 Z M 405.128906 227.21875 " clip-rule="nonzero"/></clipPath><clipPath id="a594df7dea"><path d="M 231 597 L 414 597 L 414 675 L 231 675 Z M 231 597 " clip-rule="nonzero"/></clipPath><clipPath id="274dd41723"><path d="M 405.128906 227.21875 L 760.449219 582.539062 L 405.128906 937.859375 L 49.808594 582.539062 Z M 405.128906 227.21875 " clip-rule="nonzero"/></clipPath><clipPath id="3d2b773de5"><path d="M 405.128906 227.21875 L 760.449219 582.539062 L 405.128906 937.859375 L 49.808594 582.539062 Z M 405.128906 227.21875 " clip-rule="nonzero"/></clipPath><clipPath id="502552f4ae"><path d="M 395 596 L 577 596 L 577 681 L 395 681 Z M 395 596 " clip-rule="nonzero"/></clipPath><clipPath id="28d10158e0"><path d="M 405.128906 227.21875 L 760.449219 582.539062 L 405.128906 937.859375 L 49.808594 582.539062 Z M 405.128906 227.21875 " clip-rule="nonzero"/></clipPath><clipPath id="c33c2473b2"><path d="M 405.128906 227.21875 L 760.449219 582.539062 L 405.128906 937.859375 L 49.808594 582.539062 Z M 405.128906 227.21875 " clip-rule="nonzero"/></clipPath><clipPath id="d11622fe92"><path d="M 560 525 L 714 525 L 714 648 L 560 648 Z M 560 525 " clip-rule="nonzero"/></clipPath><clipPath id="0911aa10a5"><path d="M 405.128906 227.21875 L 760.449219 582.539062 L 405.128906 937.859375 L 49.808594 582.539062 Z M 405.128906 227.21875 " clip-rule="nonzero"/></clipPath><clipPath id="887a8f4201"><path d="M 405.128906 227.21875 L 760.449219 582.539062 L 405.128906 937.859375 L 49.808594 582.539062 Z M 405.128906 227.21875 " clip-rule="nonzero"/></clipPath><clipPath id="c834999b0b"><path d="M 54 217 L 757 217 L 757 578 L 54 578 Z M 54 217 " clip-rule="nonzero"/></clipPath><clipPath id="fcfc400536"><path d="M 404.863281 582.773438 L 49.542969 227.453125 L 404.863281 -127.867188 L 760.183594 227.453125 Z M 404.863281 582.773438 " clip-rule="nonzero"/></clipPath><clipPath id="42e594f219"><path d="M 404.863281 582.773438 L 49.542969 227.453125 L 404.863281 -127.867188 L 760.183594 227.453125 Z M 404.863281 582.773438 " clip-rule="nonzero"/></clipPath><clipPath id="07d8436789"><path d="M 396 112 L 600 112 L 600 578 L 396 578 Z M 396 112 " clip-rule="nonzero"/></clipPath><clipPath id="51abf8b315"><path d="M 404.863281 582.773438 L 49.542969 227.453125 L 404.863281 -127.867188 L 760.183594 227.453125 Z M 404.863281 582.773438 " clip-rule="nonzero"/></clipPath><clipPath id="56958aa3d0"><path d="M 404.863281 582.773438 L 49.542969 227.453125 L 404.863281 -127.867188 L 760.183594 227.453125 Z M 404.863281 582.773438 " clip-rule="nonzero"/></clipPath><clipPath id="d4b819edaf"><path d="M 211 112 L 415 112 L 415 578 L 211 578 Z M 211 112 " clip-rule="nonzero"/></clipPath><clipPath id="583a6b7d4e"><path d="M 404.863281 582.773438 L 49.542969 227.453125 L 404.863281 -127.867188 L 760.183594 227.453125 Z M 404.863281 582.773438 " clip-rule="nonzero"/></clipPath><clipPath id="22f66ec01b"><path d="M 404.863281 582.773438 L 49.542969 227.453125 L 404.863281 -127.867188 L 760.183594 227.453125 Z M 404.863281 582.773438 " clip-rule="nonzero"/></clipPath><clipPath id="e7587234e3"><path d="M 396 14 L 415 14 L 415 578 L 396 578 Z M 396 14 " clip-rule="nonzero"/></clipPath><clipPath id="e4f7c71892"><path d="M 404.863281 582.773438 L 49.542969 227.453125 L 404.863281 -127.867188 L 760.183594 227.453125 Z M 404.863281 582.773438 " clip-rule="nonzero"/></clipPath><clipPath id="6608d7f601"><path d="M 404.863281 582.773438 L 49.542969 227.453125 L 404.863281 -127.867188 L 760.183594 227.453125 Z M 404.863281 582.773438 " clip-rule="nonzero"/></clipPath><clipPath id="8e8f238df9"><path d="M 456 407 L 531 407 L 531 472 L 456 472 Z M 456 407 " clip-rule="nonzero"/></clipPath><clipPath id="2ae682391a"><path d="M 404.863281 582.773438 L 49.542969 227.453125 L 404.863281 -127.867188 L 760.183594 227.453125 Z M 404.863281 582.773438 " clip-rule="nonzero"/></clipPath><clipPath id="37794d986e"><path d="M 404.863281 582.773438 L 49.542969 227.453125 L 404.863281 -127.867188 L 760.183594 227.453125 Z M 404.863281 582.773438 " clip-rule="nonzero"/></clipPath><clipPath id="1fd561cdd8"><path d="M 492 309 L 602 309 L 602 407 L 492 407 Z M 492 309 " clip-rule="nonzero"/></clipPath><clipPath id="6d056612c6"><path d="M 404.863281 582.773438 L 49.542969 227.453125 L 404.863281 -127.867188 L 760.183594 227.453125 Z M 404.863281 582.773438 " clip-rule="nonzero"/></clipPath><clipPath id="3a1712ebcf"><path d="M 404.863281 582.773438 L 49.542969 227.453125 L 404.863281 -127.867188 L 760.183594 227.453125 Z M 404.863281 582.773438 " clip-rule="nonzero"/></clipPath><clipPath id="e3b5f62268"><path d="M 526 243 L 658 243 L 658 339 L 526 339 Z M 526 243 " clip-rule="nonzero"/></clipPath><clipPath id="43f805a256"><path d="M 404.863281 582.773438 L 49.542969 227.453125 L 404.863281 -127.867188 L 760.183594 227.453125 Z M 404.863281 582.773438 " clip-rule="nonzero"/></clipPath><clipPath id="7e6417313b"><path d="M 404.863281 582.773438 L 49.542969 227.453125 L 404.863281 -127.867188 L 760.183594 227.453125 Z M 404.863281 582.773438 " clip-rule="nonzero"/></clipPath><clipPath id="8a14ab2f4d"><path d="M 396 395 L 478 395 L 478 447 L 396 447 Z M 396 395 " clip-rule="nonzero"/></clipPath><clipPath id="2027fee256"><path d="M 404.863281 582.773438 L 49.542969 227.453125 L 404.863281 -127.867188 L 760.183594 227.453125 Z M 404.863281 582.773438 " clip-rule="nonzero"/></clipPath><clipPath id="5623668521"><path d="M 404.863281 582.773438 L 49.542969 227.453125 L 404.863281 -127.867188 L 760.183594 227.453125 Z M 404.863281 582.773438 " clip-rule="nonzero"/></clipPath><clipPath id="bee5d470a3"><path d="M 395 288 L 516 288 L 516 367 L 395 367 Z M 395 288 " clip-rule="nonzero"/></clipPath><clipPath id="72bb3e5567"><path d="M 404.863281 582.773438 L 49.542969 227.453125 L 404.863281 -127.867188 L 760.183594 227.453125 Z M 404.863281 582.773438 " clip-rule="nonzero"/></clipPath><clipPath id="008ab54d1a"><path d="M 404.863281 582.773438 L 49.542969 227.453125 L 404.863281 -127.867188 L 760.183594 227.453125 Z M 404.863281 582.773438 " clip-rule="nonzero"/></clipPath><clipPath id="c6e5bc7e91"><path d="M 396 217 L 547 217 L 547 281 L 396 281 Z M 396 217 " clip-rule="nonzero"/></clipPath><clipPath id="d588cc01a6"><path d="M 404.863281 582.773438 L 49.542969 227.453125 L 404.863281 -127.867188 L 760.183594 227.453125 Z M 404.863281 582.773438 " clip-rule="nonzero"/></clipPath><clipPath id="fd16f4a829"><path d="M 404.863281 582.773438 L 49.542969 227.453125 L 404.863281 -127.867188 L 760.183594 227.453125 Z M 404.863281 582.773438 " clip-rule="nonzero"/></clipPath><clipPath id="dac2aced9f"><path d="M 333 394 L 415 394 L 415 447 L 333 447 Z M 333 394 " clip-rule="nonzero"/></clipPath><clipPath id="d93d74285f"><path d="M 404.863281 582.773438 L 49.542969 227.453125 L 404.863281 -127.867188 L 760.183594 227.453125 Z M 404.863281 582.773438 " clip-rule="nonzero"/></clipPath><clipPath id="dc87035bc9"><path d="M 404.863281 582.773438 L 49.542969 227.453125 L 404.863281 -127.867188 L 760.183594 227.453125 Z M 404.863281 582.773438 " clip-rule="nonzero"/></clipPath><clipPath id="1d78b7c0bc"><path d="M 292 293 L 415 293 L 415 367 L 292 367 Z M 292 293 " clip-rule="nonzero"/></clipPath><clipPath id="b302de6e76"><path d="M 404.863281 582.773438 L 49.542969 227.453125 L 404.863281 -127.867188 L 760.183594 227.453125 Z M 404.863281 582.773438 " clip-rule="nonzero"/></clipPath><clipPath id="70e92e7bb5"><path d="M 404.863281 582.773438 L 49.542969 227.453125 L 404.863281 -127.867188 L 760.183594 227.453125 Z M 404.863281 582.773438 " clip-rule="nonzero"/></clipPath><clipPath id="3a0256b637"><path d="M 265 214 L 415 214 L 415 282 L 265 282 Z M 265 214 " clip-rule="nonzero"/></clipPath><clipPath id="1f323443a4"><path d="M 404.863281 582.773438 L 49.542969 227.453125 L 404.863281 -127.867188 L 760.183594 227.453125 Z M 404.863281 582.773438 " clip-rule="nonzero"/></clipPath><clipPath id="2d5a422e3f"><path d="M 404.863281 582.773438 L 49.542969 227.453125 L 404.863281 -127.867188 L 760.183594 227.453125 Z M 404.863281 582.773438 " clip-rule="nonzero"/></clipPath><clipPath id="4aee39adcc"><path d="M 279 406 L 355 406 L 355 472 L 279 472 Z M 279 406 " clip-rule="nonzero"/></clipPath><clipPath id="31860fae91"><path d="M 404.863281 582.773438 L 49.542969 227.453125 L 404.863281 -127.867188 L 760.183594 227.453125 Z M 404.863281 582.773438 " clip-rule="nonzero"/></clipPath><clipPath id="6a2e05f817"><path d="M 404.863281 582.773438 L 49.542969 227.453125 L 404.863281 -127.867188 L 760.183594 227.453125 Z M 404.863281 582.773438 " clip-rule="nonzero"/></clipPath><clipPath id="cc6d30bfa1"><path d="M 204 314 L 318 314 L 318 407 L 204 407 Z M 204 314 " clip-rule="nonzero"/></clipPath><clipPath id="f296cf8f58"><path d="M 404.863281 582.773438 L 49.542969 227.453125 L 404.863281 -127.867188 L 760.183594 227.453125 Z M 404.863281 582.773438 " clip-rule="nonzero"/></clipPath><clipPath id="55ce586287"><path d="M 404.863281 582.773438 L 49.542969 227.453125 L 404.863281 -127.867188 L 760.183594 227.453125 Z M 404.863281 582.773438 " clip-rule="nonzero"/></clipPath><clipPath id="455731199f"><path d="M 154 241 L 283 241 L 283 340 L 154 340 Z M 154 241 " clip-rule="nonzero"/></clipPath><clipPath id="501e669f36"><path d="M 404.863281 582.773438 L 49.542969 227.453125 L 404.863281 -127.867188 L 760.183594 227.453125 Z M 404.863281 582.773438 " clip-rule="nonzero"/></clipPath><clipPath id="14aabb5ce7"><path d="M 404.863281 582.773438 L 49.542969 227.453125 L 404.863281 -127.867188 L 760.183594 227.453125 Z M 404.863281 582.773438 " clip-rule="nonzero"/></clipPath><clipPath id="4886df3104"><path d="M 558 167 L 719 167 L 719 283 L 558 283 Z M 558 167 " clip-rule="nonzero"/></clipPath><clipPath id="f65fcec470"><path d="M 404.863281 582.773438 L 49.542969 227.453125 L 404.863281 -127.867188 L 760.183594 227.453125 Z M 404.863281 582.773438 " clip-rule="nonzero"/></clipPath><clipPath id="2d25f6743a"><path d="M 404.863281 582.773438 L 49.542969 227.453125 L 404.863281 -127.867188 L 760.183594 227.453125 Z M 404.863281 582.773438 " clip-rule="nonzero"/></clipPath><clipPath id="9bec41fd36"><path d="M 396 135 L 579 135 L 579 213 L 396 213 Z M 396 135 " clip-rule="nonzero"/></clipPath><clipPath id="1b05ab7682"><path d="M 404.863281 582.773438 L 49.542969 227.453125 L 404.863281 -127.867188 L 760.183594 227.453125 Z M 404.863281 582.773438 " clip-rule="nonzero"/></clipPath><clipPath id="bc3d2b35b6"><path d="M 404.863281 582.773438 L 49.542969 227.453125 L 404.863281 -127.867188 L 760.183594 227.453125 Z M 404.863281 582.773438 " clip-rule="nonzero"/></clipPath><clipPath id="4c77819b7f"><path d="M 233 129 L 415 129 L 415 214 L 233 214 Z M 233 129 " clip-rule="nonzero"/></clipPath><clipPath id="d1edf7faf1"><path d="M 404.863281 582.773438 L 49.542969 227.453125 L 404.863281 -127.867188 L 760.183594 227.453125 Z M 404.863281 582.773438 " clip-rule="nonzero"/></clipPath><clipPath id="4f7b9a1dc5"><path d="M 404.863281 582.773438 L 49.542969 227.453125 L 404.863281 -127.867188 L 760.183594 227.453125 Z M 404.863281 582.773438 " clip-rule="nonzero"/></clipPath><clipPath id="31b44baa3c"><path d="M 96 162 L 250 162 L 250 285 L 96 285 Z M 96 162 " clip-rule="nonzero"/></clipPath><clipPath id="91687f5eeb"><path d="M 404.863281 582.773438 L 49.542969 227.453125 L 404.863281 -127.867188 L 760.183594 227.453125 Z M 404.863281 582.773438 " clip-rule="nonzero"/></clipPath><clipPath id="7941637cbf"><path d="M 404.863281 582.773438 L 49.542969 227.453125 L 404.863281 -127.867188 L 760.183594 227.453125 Z M 404.863281 582.773438 " clip-rule="nonzero"/></clipPath></defs><g clip-path="url(#6d02c91a73)"><g clip-path="url(#dab0528bdb)"><g clip-path="url(#62bc917525)"><path fill="#fbc74c" d="M 56.527344 589.851562 C 53.011719 586.339844 53.039062 580.671875 56.527344 577.183594 L 398.523438 235.1875 C 402.035156 231.675781 407.675781 231.675781 411.191406 235.1875 L 753.1875 577.183594 C 756.675781 580.671875 756.699219 586.339844 753.1875 589.851562 C 749.699219 593.339844 744.007812 593.339844 740.519531 589.851562 L 404.855469 254.1875 L 69.191406 589.851562 C 65.703125 593.339844 60.015625 593.339844 56.527344 589.851562 " fill-opacity="1" fill-rule="nonzero"/></g></g></g><g clip-path="url(#908c7dba9a)"><g clip-path="url(#e95a29ae1f)"><g clip-path="url(#1dd1a2dae6)"><path fill="#fbc74c" d="M 213.421875 694.695312 C 210.949219 692.222656 210.058594 688.363281 211.492188 684.949219 L 396.570312 238.082031 C 398.472656 233.507812 403.71875 231.328125 408.296875 233.234375 C 412.820312 235.140625 415.023438 240.359375 413.117188 244.9375 L 228.042969 691.800781 C 226.164062 696.355469 220.917969 698.53125 216.34375 696.625 C 215.230469 696.15625 214.238281 695.511719 213.421875 694.695312 " fill-opacity="1" fill-rule="nonzero"/></g></g></g><g clip-path="url(#4cc4a156df)"><g clip-path="url(#81a4a9888f)"><g clip-path="url(#8cb811944a)"><path fill="#fbc74c" d="M 583.621094 694.695312 C 582.804688 693.878906 582.136719 692.914062 581.691406 691.777344 L 396.59375 244.9375 C 394.6875 240.359375 396.839844 235.140625 401.417969 233.234375 C 405.996094 231.328125 411.238281 233.554688 413.144531 238.082031 L 598.242188 684.925781 C 600.125 689.476562 597.945312 694.722656 593.371094 696.625 C 589.929688 698.035156 586.097656 697.171875 583.621094 694.695312 " fill-opacity="1" fill-rule="nonzero"/></g></g></g><g clip-path="url(#4b2c4219e0)"><g clip-path="url(#f67246d4b9)"><g clip-path="url(#0754fa8f86)"><path fill="#fbc74c" d="M 398.523438 792.515625 C 396.890625 790.882812 395.902344 788.65625 395.902344 786.183594 L 395.902344 241.523438 C 395.902344 236.574219 399.910156 232.566406 404.855469 232.566406 C 409.804688 232.566406 413.8125 236.574219 413.8125 241.523438 L 413.8125 786.183594 C 413.8125 791.128906 409.804688 795.136719 404.855469 795.136719 C 402.382812 795.136719 400.132812 794.125 398.523438 792.515625 " fill-opacity="1" fill-rule="nonzero"/></g></g></g><g clip-path="url(#40de84a30d)"><g clip-path="url(#3113613370)"><g clip-path="url(#bf9d0be09c)"><path fill="#fbc74c" d="M 281.679688 364.699219 C 278.390625 361.410156 278.140625 356.113281 281.234375 352.527344 C 282.25 351.316406 283.363281 350.203125 284.648438 349.0625 C 292.785156 341.765625 303.523438 338.003906 314.730469 338.671875 C 333.605469 339.886719 349.292969 353.589844 352.902344 371.949219 C 354.585938 380.558594 353.621094 389.238281 350.058594 397.058594 C 348.003906 401.585938 342.710938 403.5625 338.207031 401.535156 C 333.679688 399.480469 331.703125 394.1875 333.730469 389.683594 C 335.710938 385.332031 336.277344 380.261719 335.339844 375.410156 C 333.261719 365.019531 324.378906 357.226562 313.640625 356.535156 C 307.308594 356.1875 301.199219 358.292969 296.546875 362.496094 C 295.828125 363.117188 295.285156 363.660156 294.789062 364.203125 C 291.574219 367.964844 285.910156 368.386719 282.175781 365.144531 C 282 365.019531 281.828125 364.847656 281.679688 364.699219 " fill-opacity="1" fill-rule="nonzero"/></g></g></g><g clip-path="url(#5defa271a9)"><g clip-path="url(#5fda6992ca)"><g clip-path="url(#145389d77a)"><path fill="#fbc74c" d="M 315.621094 478.550781 Z M 315.421875 480.628906 C 315.347656 480.800781 315.300781 480.949219 315.226562 481.121094 L 315.273438 481.121094 C 315.324219 480.972656 315.347656 480.800781 315.421875 480.628906 Z M 210.675781 435.699219 C 207.3125 432.335938 207.164062 426.894531 210.378906 423.332031 C 211.765625 421.796875 213.25 420.3125 214.785156 418.925781 C 234.871094 401.066406 263.84375 398.21875 286.925781 411.753906 C 310.003906 425.285156 321.757812 451.929688 315.992188 478.078125 C 315.992188 478.375 315.769531 479.242188 315.546875 480.109375 C 315.523438 480.28125 315.472656 480.429688 315.421875 480.578125 C 315.375 480.824219 315.300781 481.046875 315.25 481.296875 C 313.9375 486.167969 311.933594 490.945312 309.214844 495.890625 C 306.8125 500.222656 301.347656 501.78125 297.015625 499.378906 C 292.6875 496.980469 291.152344 491.539062 293.554688 487.207031 C 295.582031 483.546875 297.042969 480.007812 297.980469 476.496094 C 298.007812 476.371094 298.03125 476.296875 298.054688 476.175781 L 298.230469 475.554688 C 298.277344 475.308594 298.476562 474.46875 298.5 474.246094 C 302.582031 455.714844 294.296875 436.789062 277.871094 427.191406 C 261.492188 417.589844 240.957031 419.621094 226.757812 432.238281 C 225.695312 433.203125 224.65625 434.242188 223.664062 435.378906 C 220.300781 439.039062 214.660156 439.335938 210.972656 435.996094 C 210.875 435.898438 210.777344 435.800781 210.675781 435.699219 " fill-opacity="1" fill-rule="nonzero"/></g></g></g><g clip-path="url(#a06bea0602)"><g clip-path="url(#d5fd11dd8b)"><g clip-path="url(#7dfb15c7e2)"><path fill="#fbc74c" d="M 154.765625 491.613281 C 153.851562 490.695312 153.132812 489.582031 152.640625 488.296875 C 150.980469 483.621094 153.429688 478.5 158.105469 476.84375 C 194.226562 463.929688 235.34375 474.765625 260.527344 503.957031 C 273.441406 518.898438 281.183594 537.082031 283.015625 556.527344 C 283.4375 561.449219 279.824219 565.804688 274.902344 566.273438 C 269.976562 566.746094 265.597656 563.109375 265.179688 558.183594 C 263.71875 542.476562 257.410156 527.753906 246.96875 515.632812 C 226.683594 492.230469 193.335938 483.273438 164.09375 493.714844 C 160.730469 494.902344 157.140625 493.988281 154.765625 491.613281 " fill-opacity="1" fill-rule="nonzero"/></g></g></g><g clip-path="url(#8f918f8731)"><g clip-path="url(#fe0fafb8eb)"><g clip-path="url(#bdc7312aa4)"><path fill="#fbc74c" d="M 335.289062 400.546875 C 332.964844 398.21875 332.023438 394.707031 333.113281 391.390625 C 333.605469 389.90625 334.199219 388.421875 334.96875 386.914062 C 339.667969 377.019531 348.152344 369.472656 358.765625 365.738281 C 376.703125 359.628906 396.421875 366.28125 406.8125 381.917969 C 411.5625 389.089844 414.058594 397.726562 413.761719 406.1875 C 413.589844 411.160156 409.457031 415.042969 404.535156 414.871094 C 399.5625 414.695312 395.679688 410.566406 395.875 405.617188 C 396 400.84375 394.613281 395.945312 391.867188 391.863281 C 385.929688 382.957031 374.773438 379.222656 364.628906 382.683594 C 358.617188 384.789062 353.792969 389.066406 351.046875 394.730469 C 350.652344 395.574219 350.355469 396.265625 350.132812 396.984375 C 348.574219 401.707031 343.527344 404.230469 338.828125 402.699219 C 337.441406 402.253906 336.230469 401.484375 335.289062 400.546875 " fill-opacity="1" fill-rule="nonzero"/></g></g></g><g clip-path="url(#1927ffa817)"><g clip-path="url(#2b595311b5)"><g clip-path="url(#ef4109fa62)"><path fill="#fbc74c" d="M 296.867188 493.292969 C 294.492188 490.917969 293.554688 487.308594 294.765625 483.917969 C 295.484375 481.964844 296.25 480.058594 297.140625 478.179688 C 308.890625 453.957031 334.570312 440.253906 361.042969 443.914062 C 387.589844 447.550781 408.617188 467.6875 413.292969 494.085938 C 413.414062 494.359375 413.5625 495.296875 413.6875 496.261719 C 413.6875 496.363281 413.710938 496.484375 413.710938 496.585938 C 413.785156 496.90625 413.8125 497.226562 413.859375 497.523438 C 414.480469 502.496094 414.480469 507.59375 413.835938 513.132812 C 413.292969 518.03125 408.839844 521.59375 403.917969 521.027344 C 399.019531 520.480469 395.457031 516.027344 396.023438 511.105469 C 396.519531 506.902344 396.519531 503.089844 396.050781 499.503906 C 396.050781 499.503906 396.023438 499.480469 396.050781 499.453125 C 396.050781 499.40625 396.023438 499.332031 396.023438 499.28125 C 395.949219 498.859375 395.828125 497.945312 395.828125 497.945312 C 392.3125 478.550781 377.421875 464.25 358.59375 461.703125 C 339.792969 459.078125 321.609375 468.800781 313.320312 485.898438 C 312.703125 487.160156 312.15625 488.542969 311.636719 489.953125 C 309.957031 494.605469 304.835938 497.054688 300.183594 495.371094 C 298.898438 494.925781 297.757812 494.183594 296.867188 493.292969 " fill-opacity="1" fill-rule="nonzero"/></g></g></g><g clip-path="url(#cf3802e7a2)"><g clip-path="url(#2e3d0f7d65)"><g clip-path="url(#75abfe618f)"><path fill="#fbc74c" d="M 266.613281 566.347656 C 266.488281 566.226562 266.390625 566.125 266.292969 566.027344 C 262.976562 562.367188 263.273438 556.675781 266.910156 553.386719 C 295.382812 527.632812 337.589844 521.941406 371.929688 539.210938 C 389.566406 548.089844 403.71875 561.894531 412.824219 579.164062 C 415.121094 583.542969 413.464844 588.960938 409.0625 591.285156 C 404.707031 593.5625 399.289062 591.90625 396.988281 587.527344 C 389.640625 573.597656 378.164062 562.414062 363.886719 555.214844 C 336.105469 541.238281 301.964844 545.839844 278.933594 566.644531 C 275.371094 569.863281 269.953125 569.6875 266.613281 566.347656 " fill-opacity="1" fill-rule="nonzero"/></g></g></g><g clip-path="url(#3889f29d3b)"><g clip-path="url(#415a9273fd)"><g clip-path="url(#78450762b4)"><path fill="#fbc74c" d="M 398.523438 413.113281 C 397.015625 411.605469 396.050781 409.601562 395.925781 407.347656 C 395.828125 405.816406 395.800781 404.257812 395.925781 402.597656 C 396.496094 391.640625 401.417969 381.421875 409.828125 373.953125 C 424.027344 361.433594 444.808594 360.046875 460.371094 370.511719 C 467.519531 375.289062 473.113281 382.3125 476.105469 390.253906 C 477.835938 394.90625 475.511719 400.050781 470.886719 401.808594 C 466.234375 403.539062 461.089844 401.214844 459.332031 396.585938 C 457.648438 392.085938 454.484375 388.125 450.375 385.355469 C 441.542969 379.445312 429.769531 380.234375 421.726562 387.335938 C 416.953125 391.566406 414.132812 397.402344 413.785156 403.636719 C 413.761719 404.601562 413.761719 405.394531 413.785156 406.210938 C 414.109375 411.132812 410.347656 415.390625 405.425781 415.710938 C 402.753906 415.859375 400.28125 414.871094 398.523438 413.113281 " fill-opacity="1" fill-rule="nonzero"/></g></g></g><g clip-path="url(#970337237e)"><g clip-path="url(#3d9adcb465)"><g clip-path="url(#6cb4542d3e)"><path fill="#fbc74c" d="M 503.21875 478.773438 L 503.269531 478.820312 Z M 398.523438 513.503906 C 397.015625 511.996094 396.050781 509.945312 395.925781 507.644531 C 395.800781 505.539062 395.828125 503.488281 395.902344 501.382812 C 397.484375 474.515625 415.964844 452.027344 441.839844 445.300781 C 467.742188 438.496094 494.90625 449.085938 509.304688 471.648438 C 509.527344 471.769531 510.023438 472.660156 510.566406 473.601562 C 510.617188 473.699219 510.691406 473.824219 510.742188 473.921875 C 510.816406 474.046875 510.890625 474.171875 510.964844 474.292969 C 513.535156 478.746094 515.539062 483.570312 517.097656 489.039062 C 518.460938 493.8125 515.714844 498.738281 510.9375 500.097656 C 506.1875 501.484375 501.214844 498.738281 499.878906 493.9375 C 498.71875 489.90625 497.257812 486.417969 495.476562 483.25 C 495.402344 483.175781 495.378906 483.101562 495.328125 483.050781 C 495.128906 482.707031 494.683594 481.964844 494.683594 481.964844 C 483.972656 465.265625 464.75 457.816406 446.367188 462.640625 C 427.988281 467.417969 414.925781 483.347656 413.8125 502.324219 C 413.738281 503.683594 413.710938 505.195312 413.8125 506.726562 C 414.082031 511.652344 410.273438 515.855469 405.328125 516.101562 C 402.703125 516.25 400.253906 515.238281 398.523438 513.503906 " fill-opacity="1" fill-rule="nonzero"/></g></g></g><g clip-path="url(#e0708d52de)"><g clip-path="url(#81c1b86907)"><g clip-path="url(#984e55c142)"><path fill="#fbc74c" d="M 398.523438 592.574219 C 395.925781 589.976562 395.109375 585.941406 396.765625 582.40625 C 413.21875 547.746094 450.03125 526.320312 488.375 529.140625 C 508.09375 530.601562 526.425781 537.949219 541.417969 550.417969 C 545.449219 553.707031 545.769531 559.222656 542.605469 563.035156 C 539.4375 566.84375 533.796875 567.386719 529.988281 564.222656 C 517.867188 554.128906 503.023438 548.191406 487.039062 547.003906 C 456.015625 544.726562 426.253906 562.019531 412.96875 590.097656 C 410.820312 594.578125 405.5 596.480469 400.996094 594.355469 C 400.058594 593.910156 399.242188 593.289062 398.523438 592.574219 " fill-opacity="1" fill-rule="nonzero"/></g></g></g><g clip-path="url(#fb6c50fdfe)"><g clip-path="url(#a8e8a8db5d)"><g clip-path="url(#f0499bc37f)"><path fill="#fbc74c" d="M 461.78125 400.519531 C 461.113281 399.851562 460.542969 399.085938 460.097656 398.195312 C 459.382812 396.785156 458.789062 395.351562 458.21875 393.742188 C 454.582031 383.425781 455.25 372.070312 460.125 361.953125 C 468.460938 344.957031 487.140625 335.730469 505.496094 339.441406 C 513.980469 341.148438 521.949219 345.601562 527.613281 351.710938 C 531.003906 355.296875 530.804688 360.988281 527.191406 364.351562 C 523.582031 367.71875 517.570312 367.742188 514.527344 363.90625 C 511.285156 360.519531 506.808594 357.96875 501.957031 356.980469 C 491.542969 354.878906 480.953125 360.171875 476.230469 369.796875 C 473.457031 375.535156 473.085938 381.992188 475.164062 387.878906 C 475.460938 388.820312 475.757812 389.511719 476.105469 390.203125 C 478.332031 394.609375 476.527344 399.976562 472.097656 402.179688 C 468.558594 403.984375 464.429688 403.167969 461.78125 400.519531 " fill-opacity="1" fill-rule="nonzero"/></g></g></g><g clip-path="url(#a33fc49fa0)"><g clip-path="url(#adf207cad9)"><g clip-path="url(#6f9fa73350)"><path fill="#fbc74c" d="M 500.203125 493.269531 C 499.507812 492.578125 498.890625 491.761719 498.445312 490.820312 C 497.554688 488.941406 496.761719 487.011719 496.019531 485.03125 C 487.214844 459.597656 495.648438 431.765625 517 415.660156 C 538.25 399.507812 567.171875 398.839844 589.089844 413.929688 C 589.855469 414.398438 590.550781 414.894531 591.242188 415.4375 C 591.339844 415.488281 591.414062 415.5625 591.464844 415.613281 C 591.738281 415.785156 591.984375 415.984375 592.230469 416.179688 C 596.164062 419.273438 599.875 422.984375 603.265625 427.265625 C 606.332031 431.125 605.691406 436.765625 601.832031 439.832031 C 597.945312 442.925781 592.304688 442.378906 589.238281 438.371094 C 586.691406 435.179688 583.945312 432.433594 581.125 430.207031 C 581.023438 430.160156 580.949219 430.085938 580.851562 430.035156 L 580.332031 429.613281 C 580.058594 429.492188 579.417969 428.996094 579.167969 428.847656 C 563.609375 417.988281 542.949219 418.40625 527.8125 429.9375 C 512.671875 441.367188 506.707031 461.082031 512.917969 479.070312 C 513.414062 480.355469 513.957031 481.742188 514.601562 483.078125 C 516.726562 487.53125 514.847656 492.875 510.417969 495.027344 C 506.90625 496.707031 502.824219 495.890625 500.203125 493.269531 " fill-opacity="1" fill-rule="nonzero"/></g></g></g><g clip-path="url(#5344abad37)"><g clip-path="url(#78a8c80b8c)"><g clip-path="url(#3cab571a6d)"><path fill="#fbc74c" d="M 530.433594 566.347656 C 528.726562 564.640625 527.710938 562.191406 527.859375 559.570312 C 529.742188 521.222656 555.566406 487.382812 592.082031 475.308594 C 610.835938 469.125 630.628906 468.875 649.257812 474.640625 C 653.957031 476.125 656.605469 481.148438 655.144531 485.871094 C 653.683594 490.597656 648.6875 493.21875 643.960938 491.761719 C 628.894531 487.085938 612.914062 487.28125 597.699219 492.304688 C 568.183594 502.078125 547.28125 529.460938 545.722656 560.460938 C 545.472656 565.410156 541.269531 569.21875 536.347656 568.945312 C 534.019531 568.847656 531.96875 567.882812 530.433594 566.347656 " fill-opacity="1" fill-rule="nonzero"/></g></g></g><g clip-path="url(#4a9d8d3b2d)"><g clip-path="url(#83ead7cb02)"><g clip-path="url(#b0db7423b4)"><path fill="#fbc74c" d="M 94.476562 551.902344 C 93.757812 551.183594 93.140625 550.316406 92.695312 549.378906 C 90.59375 544.898438 92.523438 539.554688 97 537.453125 C 138.265625 518.15625 187.59375 526.863281 219.855469 559.125 C 219.90625 559.175781 219.953125 559.222656 220.003906 559.273438 C 239.597656 579.015625 250.828125 605.191406 251.621094 632.996094 C 251.746094 637.917969 247.859375 642.050781 242.914062 642.199219 C 237.941406 642.324219 233.832031 638.414062 233.710938 633.492188 C 233.042969 610.261719 223.691406 588.390625 207.289062 571.890625 C 207.261719 571.867188 207.214844 571.816406 207.164062 571.765625 C 180.246094 544.851562 139.03125 537.578125 104.59375 553.707031 C 101.082031 555.339844 97.074219 554.5 94.476562 551.902344 " fill-opacity="1" fill-rule="nonzero"/></g></g></g><g clip-path="url(#a594df7dea)"><g clip-path="url(#274dd41723)"><g clip-path="url(#3d2b773de5)"><path fill="#fbc74c" d="M 233.957031 645.117188 C 230.59375 641.753906 230.46875 636.289062 233.683594 632.726562 C 264.484375 599.054688 313.492188 588.242188 355.675781 605.832031 C 381.355469 616.570312 401.738281 636.460938 413.09375 661.816406 C 415.097656 666.34375 413.09375 671.613281 408.566406 673.667969 C 404.039062 675.671875 398.746094 673.644531 396.71875 669.140625 C 387.242188 647.9375 370.222656 631.316406 348.773438 622.335938 C 313.566406 607.664062 272.625 616.695312 246.921875 644.820312 C 243.582031 648.457031 237.914062 648.730469 234.253906 645.414062 C 234.15625 645.316406 234.054688 645.21875 233.957031 645.117188 " fill-opacity="1" fill-rule="nonzero"/></g></g></g><g clip-path="url(#502552f4ae)"><g clip-path="url(#28d10158e0)"><g clip-path="url(#c33c2473b2)"><path fill="#fbc74c" d="M 398.523438 677.875 C 396.148438 675.5 395.207031 671.835938 396.445312 668.472656 C 411.980469 625.574219 453.121094 596.804688 498.839844 596.902344 C 526.671875 597.027344 553.117188 607.589844 573.304688 626.6875 C 576.917969 630.152344 577.066406 635.742188 573.652344 639.355469 C 570.261719 642.941406 564.574219 643.089844 560.984375 639.699219 C 544.136719 623.746094 522.023438 614.886719 498.792969 614.8125 C 460.617188 614.738281 426.253906 638.761719 413.265625 674.558594 C 411.585938 679.210938 406.464844 681.609375 401.8125 679.925781 C 400.527344 679.480469 399.414062 678.765625 398.523438 677.875 " fill-opacity="1" fill-rule="nonzero"/></g></g></g><g clip-path="url(#d11622fe92)"><g clip-path="url(#0911aa10a5)"><g clip-path="url(#887a8f4201)"><path fill="#fbc74c" d="M 563.089844 645.117188 C 561.554688 643.585938 560.566406 641.507812 560.464844 639.179688 C 558.414062 593.585938 585.429688 551.28125 627.660156 533.890625 C 653.4375 523.351562 681.910156 522.980469 707.863281 532.902344 C 712.515625 534.683594 714.816406 539.851562 713.035156 544.453125 C 711.277344 549.082031 706.105469 551.382812 701.480469 549.625 C 679.785156 541.335938 655.984375 541.632812 634.488281 550.464844 C 599.183594 564.988281 576.644531 600.339844 578.378906 638.390625 C 578.574219 643.335938 574.742188 647.519531 569.816406 647.742188 C 567.195312 647.839844 564.796875 646.824219 563.089844 645.117188 " fill-opacity="1" fill-rule="nonzero"/></g></g></g><g clip-path="url(#c834999b0b)"><g clip-path="url(#fcfc400536)"><g clip-path="url(#42e594f219)"><path fill="#fbc74c" d="M 753.464844 220.140625 C 756.976562 223.652344 756.953125 229.316406 753.464844 232.804688 L 411.46875 574.800781 C 407.953125 578.316406 402.3125 578.316406 398.800781 574.800781 L 56.804688 232.804688 C 53.316406 229.316406 53.292969 223.652344 56.804688 220.140625 C 60.292969 216.652344 65.984375 216.652344 69.472656 220.140625 L 405.132812 555.800781 L 740.796875 220.140625 C 744.285156 216.652344 749.976562 216.652344 753.464844 220.140625 " fill-opacity="1" fill-rule="nonzero"/></g></g></g><g clip-path="url(#07d8436789)"><g clip-path="url(#51abf8b315)"><g clip-path="url(#56958aa3d0)"><path fill="#fbc74c" d="M 596.566406 115.292969 C 599.042969 117.769531 599.933594 121.628906 598.496094 125.042969 L 413.421875 571.90625 C 411.515625 576.484375 406.273438 578.660156 401.695312 576.757812 C 397.167969 574.851562 394.964844 569.632812 396.871094 565.054688 L 581.945312 118.1875 C 583.828125 113.636719 589.070312 111.460938 593.648438 113.363281 C 594.761719 113.835938 595.75 114.476562 596.566406 115.292969 " fill-opacity="1" fill-rule="nonzero"/></g></g></g><g clip-path="url(#d4b819edaf)"><g clip-path="url(#583a6b7d4e)"><g clip-path="url(#22f66ec01b)"><path fill="#fbc74c" d="M 226.367188 115.292969 C 227.183594 116.109375 227.851562 117.074219 228.296875 118.214844 L 413.398438 565.054688 C 415.300781 569.632812 413.148438 574.851562 408.574219 576.757812 C 403.996094 578.660156 398.75 576.433594 396.847656 571.90625 L 211.746094 125.066406 C 209.867188 120.515625 212.042969 115.269531 216.621094 113.363281 C 220.058594 111.953125 223.894531 112.820312 226.367188 115.292969 " fill-opacity="1" fill-rule="nonzero"/></g></g></g><g clip-path="url(#e7587234e3)"><g clip-path="url(#e4f7c71892)"><g clip-path="url(#6608d7f601)"><path fill="#fbc74c" d="M 411.46875 17.476562 C 413.101562 19.109375 414.089844 21.332031 414.089844 23.808594 L 414.089844 568.46875 C 414.089844 573.417969 410.082031 577.425781 405.132812 577.425781 C 400.1875 577.425781 396.179688 573.417969 396.179688 568.46875 L 396.179688 23.808594 C 396.179688 18.859375 400.1875 14.851562 405.132812 14.851562 C 407.609375 14.851562 409.859375 15.867188 411.46875 17.476562 " fill-opacity="1" fill-rule="nonzero"/></g></g></g><g clip-path="url(#8e8f238df9)"><g clip-path="url(#2ae682391a)"><g clip-path="url(#37794d986e)"><path fill="#fbc74c" d="M 528.3125 445.292969 C 531.601562 448.582031 531.847656 453.875 528.757812 457.464844 C 527.742188 458.675781 526.628906 459.789062 525.34375 460.925781 C 517.203125 468.226562 506.464844 471.984375 495.257812 471.316406 C 476.382812 470.105469 460.699219 456.398438 457.085938 438.042969 C 455.40625 429.433594 456.371094 420.75 459.933594 412.933594 C 461.984375 408.40625 467.28125 406.425781 471.78125 408.453125 C 476.308594 410.507812 478.289062 415.800781 476.261719 420.304688 C 474.28125 424.660156 473.710938 429.730469 474.652344 434.578125 C 476.730469 444.96875 485.613281 452.761719 496.347656 453.457031 C 502.679688 453.800781 508.792969 451.699219 513.441406 447.492188 C 514.160156 446.875 514.703125 446.332031 515.199219 445.785156 C 518.414062 442.027344 524.082031 441.605469 527.816406 444.847656 C 527.988281 444.96875 528.164062 445.144531 528.3125 445.292969 " fill-opacity="1" fill-rule="nonzero"/></g></g></g><g clip-path="url(#1fd561cdd8)"><g clip-path="url(#6d056612c6)"><g clip-path="url(#3a1712ebcf)"><path fill="#fbc74c" d="M 494.367188 331.441406 Z M 494.566406 329.363281 C 494.640625 329.191406 494.691406 329.042969 494.765625 328.867188 L 494.714844 328.867188 C 494.664062 329.015625 494.640625 329.191406 494.566406 329.363281 Z M 599.3125 374.289062 C 602.679688 377.65625 602.828125 383.097656 599.609375 386.660156 C 598.226562 388.195312 596.742188 389.679688 595.207031 391.0625 C 575.117188 408.925781 546.148438 411.769531 523.066406 398.238281 C 499.984375 384.707031 488.234375 358.0625 493.996094 331.910156 C 493.996094 331.613281 494.21875 330.75 494.441406 329.882812 C 494.46875 329.710938 494.515625 329.5625 494.566406 329.414062 C 494.617188 329.164062 494.691406 328.941406 494.738281 328.695312 C 496.050781 323.820312 498.054688 319.046875 500.777344 314.097656 C 503.175781 309.769531 508.644531 308.210938 512.972656 310.609375 C 517.300781 313.011719 518.835938 318.453125 516.4375 322.78125 C 514.40625 326.445312 512.949219 329.980469 512.007812 333.496094 C 511.984375 333.617188 511.957031 333.691406 511.933594 333.816406 L 511.761719 334.433594 C 511.710938 334.683594 511.511719 335.523438 511.488281 335.746094 C 507.40625 354.277344 515.695312 373.203125 532.121094 382.800781 C 548.5 392.398438 569.03125 390.371094 583.234375 377.753906 C 584.296875 376.789062 585.335938 375.75 586.324219 374.613281 C 589.691406 370.949219 595.332031 370.652344 599.015625 373.992188 C 599.117188 374.09375 599.214844 374.191406 599.3125 374.289062 " fill-opacity="1" fill-rule="nonzero"/></g></g></g><g clip-path="url(#e3b5f62268)"><g clip-path="url(#43f805a256)"><g clip-path="url(#7e6417313b)"><path fill="#fbc74c" d="M 655.222656 318.378906 C 656.140625 319.292969 656.855469 320.40625 657.351562 321.695312 C 659.007812 326.371094 656.558594 331.492188 651.882812 333.148438 C 615.765625 346.0625 574.648438 335.226562 549.464844 306.035156 C 536.550781 291.089844 528.804688 272.90625 526.976562 253.464844 C 526.554688 248.539062 530.167969 244.1875 535.089844 243.714844 C 540.011719 243.246094 544.390625 246.882812 544.8125 251.804688 C 546.273438 267.515625 552.582031 282.234375 563.019531 294.355469 C 583.308594 317.761719 616.65625 326.714844 645.898438 316.277344 C 649.261719 315.089844 652.847656 316.003906 655.222656 318.378906 " fill-opacity="1" fill-rule="nonzero"/></g></g></g><g clip-path="url(#8a14ab2f4d)"><g clip-path="url(#2027fee256)"><g clip-path="url(#5623668521)"><path fill="#fbc74c" d="M 474.703125 409.445312 C 477.027344 411.769531 477.96875 415.28125 476.878906 418.597656 C 476.382812 420.082031 475.789062 421.566406 475.023438 423.074219 C 470.324219 432.972656 461.835938 440.515625 451.222656 444.253906 C 433.289062 450.363281 413.570312 443.707031 403.179688 428.074219 C 398.429688 420.898438 395.929688 412.265625 396.226562 403.804688 C 396.402344 398.832031 400.53125 394.945312 405.457031 395.121094 C 410.429688 395.292969 414.3125 399.425781 414.113281 404.371094 C 413.992188 409.148438 415.375 414.046875 418.121094 418.128906 C 424.058594 427.035156 435.21875 430.769531 445.359375 427.304688 C 451.371094 425.203125 456.195312 420.921875 458.941406 415.257812 C 459.339844 414.417969 459.636719 413.722656 459.859375 413.007812 C 461.417969 408.28125 466.464844 405.757812 471.164062 407.292969 C 472.550781 407.738281 473.761719 408.503906 474.703125 409.445312 " fill-opacity="1" fill-rule="nonzero"/></g></g></g><g clip-path="url(#bee5d470a3)"><g clip-path="url(#72bb3e5567)"><g clip-path="url(#008ab54d1a)"><path fill="#fbc74c" d="M 513.121094 316.695312 C 515.496094 319.070312 516.4375 322.683594 515.222656 326.074219 C 514.507812 328.027344 513.738281 329.933594 512.847656 331.8125 C 501.097656 356.03125 475.417969 369.738281 448.949219 366.078125 C 422.402344 362.441406 401.375 342.300781 396.699219 315.90625 C 396.574219 315.632812 396.425781 314.691406 396.300781 313.726562 C 396.300781 313.628906 396.277344 313.503906 396.277344 313.40625 C 396.203125 313.085938 396.179688 312.761719 396.128906 312.464844 C 395.511719 307.492188 395.511719 302.398438 396.152344 296.855469 C 396.699219 291.957031 401.152344 288.394531 406.074219 288.964844 C 410.972656 289.507812 414.535156 293.960938 413.964844 298.882812 C 413.472656 303.089844 413.472656 306.898438 413.941406 310.488281 C 413.941406 310.488281 413.964844 310.511719 413.941406 310.535156 C 413.941406 310.585938 413.964844 310.660156 413.964844 310.710938 C 414.039062 311.128906 414.164062 312.046875 414.164062 312.046875 C 417.675781 331.441406 432.570312 345.742188 451.398438 348.289062 C 470.199219 350.910156 488.382812 341.1875 496.667969 324.09375 C 497.289062 322.832031 497.832031 321.445312 498.351562 320.035156 C 500.035156 315.386719 505.15625 312.9375 509.804688 314.617188 C 511.09375 315.0625 512.230469 315.804688 513.121094 316.695312 " fill-opacity="1" fill-rule="nonzero"/></g></g></g><g clip-path="url(#c6e5bc7e91)"><g clip-path="url(#d588cc01a6)"><g clip-path="url(#fd16f4a829)"><path fill="#fbc74c" d="M 543.378906 243.640625 C 543.5 243.765625 543.601562 243.863281 543.699219 243.964844 C 547.015625 247.625 546.71875 253.316406 543.082031 256.605469 C 514.605469 282.359375 472.402344 288.046875 438.0625 270.78125 C 420.421875 261.898438 406.273438 248.09375 397.167969 230.828125 C 394.867188 226.449219 396.523438 221.03125 400.929688 218.703125 C 405.28125 216.429688 410.699219 218.085938 413 222.464844 C 420.347656 236.394531 431.828125 247.574219 446.101562 254.773438 C 473.886719 268.75 508.023438 264.152344 531.058594 243.34375 C 534.621094 240.128906 540.039062 240.300781 543.378906 243.640625 " fill-opacity="1" fill-rule="nonzero"/></g></g></g><g clip-path="url(#dac2aced9f)"><g clip-path="url(#d93d74285f)"><g clip-path="url(#dc87035bc9)"><path fill="#fbc74c" d="M 411.46875 396.875 C 412.976562 398.386719 413.941406 400.390625 414.066406 402.640625 C 414.164062 404.175781 414.1875 405.734375 414.066406 407.390625 C 413.496094 418.351562 408.574219 428.566406 400.160156 436.039062 C 385.960938 448.558594 365.179688 449.941406 349.621094 439.476562 C 342.46875 434.703125 336.878906 427.675781 333.886719 419.734375 C 332.152344 415.085938 334.480469 409.9375 339.105469 408.183594 C 343.757812 406.449219 348.902344 408.777344 350.660156 413.402344 C 352.339844 417.90625 355.507812 421.863281 359.613281 424.632812 C 368.445312 430.546875 380.222656 429.753906 388.261719 422.65625 C 393.035156 418.425781 395.855469 412.585938 396.203125 406.351562 C 396.226562 405.386719 396.226562 404.59375 396.203125 403.777344 C 395.882812 398.855469 399.640625 394.601562 404.566406 394.277344 C 407.238281 394.128906 409.710938 395.121094 411.46875 396.875 " fill-opacity="1" fill-rule="nonzero"/></g></g></g><g clip-path="url(#1d78b7c0bc)"><g clip-path="url(#b302de6e76)"><g clip-path="url(#70e92e7bb5)"><path fill="#fbc74c" d="M 306.769531 331.21875 L 306.722656 331.167969 Z M 411.46875 296.484375 C 412.976562 297.992188 413.941406 300.046875 414.066406 302.347656 C 414.1875 304.449219 414.164062 306.503906 414.089844 308.605469 C 412.507812 335.472656 394.027344 357.960938 368.148438 364.691406 C 342.246094 371.496094 315.082031 360.90625 300.683594 338.34375 C 300.460938 338.21875 299.96875 337.328125 299.421875 336.390625 C 299.375 336.289062 299.300781 336.167969 299.25 336.066406 C 299.175781 335.945312 299.101562 335.820312 299.027344 335.695312 C 296.453125 331.242188 294.449219 326.417969 292.890625 320.953125 C 291.53125 316.175781 294.277344 311.253906 299.050781 309.894531 C 303.800781 308.507812 308.773438 311.253906 310.109375 316.054688 C 311.273438 320.085938 312.734375 323.574219 314.515625 326.742188 C 314.589844 326.816406 314.613281 326.890625 314.664062 326.9375 C 314.859375 327.285156 315.304688 328.027344 315.304688 328.027344 C 326.019531 344.726562 345.242188 352.171875 363.621094 347.347656 C 382.003906 342.574219 395.066406 326.640625 396.179688 307.667969 C 396.253906 306.304688 396.277344 304.796875 396.179688 303.261719 C 395.90625 298.339844 399.714844 294.132812 404.664062 293.886719 C 407.285156 293.738281 409.734375 294.753906 411.46875 296.484375 " fill-opacity="1" fill-rule="nonzero"/></g></g></g><g clip-path="url(#3a0256b637)"><g clip-path="url(#1f323443a4)"><g clip-path="url(#2d5a422e3f)"><path fill="#fbc74c" d="M 411.46875 217.417969 C 414.066406 220.015625 414.882812 224.046875 413.222656 227.585938 C 396.773438 262.246094 359.960938 283.667969 321.613281 280.847656 C 301.898438 279.390625 283.566406 272.042969 268.574219 259.574219 C 264.539062 256.285156 264.21875 250.765625 267.386719 246.957031 C 270.550781 243.148438 276.191406 242.601562 280.003906 245.769531 C 292.125 255.863281 306.96875 261.800781 322.949219 262.988281 C 353.972656 265.265625 383.734375 247.972656 397.019531 219.890625 C 399.171875 215.414062 404.492188 213.507812 408.992188 215.636719 C 409.933594 216.082031 410.75 216.699219 411.46875 217.417969 " fill-opacity="1" fill-rule="nonzero"/></g></g></g><g clip-path="url(#4aee39adcc)"><g clip-path="url(#31860fae91)"><g clip-path="url(#6a2e05f817)"><path fill="#fbc74c" d="M 348.210938 409.46875 C 348.878906 410.136719 349.445312 410.902344 349.890625 411.792969 C 350.609375 413.203125 351.203125 414.640625 351.773438 416.246094 C 355.410156 426.5625 354.742188 437.917969 349.867188 448.039062 C 341.53125 465.035156 322.851562 474.261719 304.496094 470.550781 C 296.007812 468.84375 288.042969 464.390625 282.378906 458.28125 C 278.988281 454.691406 279.1875 449.003906 282.796875 445.636719 C 286.410156 442.273438 292.421875 442.25 295.464844 446.082031 C 298.707031 449.472656 303.183594 452.019531 308.03125 453.011719 C 318.449219 455.113281 329.035156 449.820312 333.761719 440.195312 C 336.53125 434.457031 336.902344 428 334.824219 422.109375 C 334.527344 421.171875 334.230469 420.476562 333.886719 419.785156 C 331.660156 415.382812 333.464844 410.011719 337.894531 407.8125 C 341.429688 406.003906 345.5625 406.820312 348.210938 409.46875 " fill-opacity="1" fill-rule="nonzero"/></g></g></g><g clip-path="url(#cc6d30bfa1)"><g clip-path="url(#f296cf8f58)"><g clip-path="url(#55ce586287)"><path fill="#fbc74c" d="M 309.789062 316.722656 C 310.480469 317.414062 311.101562 318.230469 311.546875 319.171875 C 312.4375 321.050781 313.226562 322.980469 313.96875 324.960938 C 322.777344 350.390625 314.339844 378.222656 292.992188 394.328125 C 271.738281 410.484375 242.820312 411.152344 220.902344 396.058594 C 220.132812 395.589844 219.441406 395.09375 218.75 394.550781 C 218.648438 394.5 218.574219 394.425781 218.527344 394.378906 C 218.253906 394.203125 218.007812 394.007812 217.757812 393.808594 C 213.824219 390.71875 210.113281 387.007812 206.726562 382.726562 C 203.65625 378.867188 204.300781 373.226562 208.160156 370.160156 C 212.042969 367.066406 217.683594 367.609375 220.753906 371.617188 C 223.300781 374.808594 226.046875 377.554688 228.867188 379.78125 C 228.964844 379.832031 229.039062 379.90625 229.140625 379.957031 L 229.660156 380.375 C 229.929688 380.5 230.574219 380.996094 230.820312 381.144531 C 246.382812 392.003906 267.039062 391.582031 282.179688 380.054688 C 297.320312 368.625 303.28125 348.90625 297.074219 330.921875 C 296.578125 329.636719 296.035156 328.25 295.390625 326.914062 C 293.261719 322.460938 295.144531 317.117188 299.570312 314.964844 C 303.085938 313.28125 307.167969 314.097656 309.789062 316.722656 " fill-opacity="1" fill-rule="nonzero"/></g></g></g><g clip-path="url(#455731199f)"><g clip-path="url(#501e669f36)"><g clip-path="url(#14aabb5ce7)"><path fill="#fbc74c" d="M 279.558594 243.640625 C 281.265625 245.347656 282.277344 247.796875 282.128906 250.421875 C 280.25 288.765625 254.421875 322.609375 217.90625 334.683594 C 199.15625 340.867188 179.363281 341.113281 160.734375 335.351562 C 156.035156 333.867188 153.386719 328.84375 154.847656 324.117188 C 156.304688 319.394531 161.304688 316.769531 166.027344 318.230469 C 181.09375 322.90625 197.078125 322.707031 212.292969 317.6875 C 241.804688 307.914062 262.710938 280.527344 264.269531 249.53125 C 264.515625 244.582031 268.722656 240.773438 273.644531 241.042969 C 275.96875 241.144531 278.023438 242.109375 279.558594 243.640625 " fill-opacity="1" fill-rule="nonzero"/></g></g></g><g clip-path="url(#4886df3104)"><g clip-path="url(#f65fcec470)"><g clip-path="url(#2d25f6743a)"><path fill="#fbc74c" d="M 715.515625 258.089844 C 716.230469 258.808594 716.851562 259.671875 717.296875 260.613281 C 719.398438 265.089844 717.46875 270.433594 712.992188 272.535156 C 671.726562 291.832031 622.394531 283.125 590.136719 250.867188 C 590.085938 250.816406 590.035156 250.765625 589.988281 250.71875 C 570.394531 230.976562 559.160156 204.800781 558.371094 176.992188 C 558.246094 172.070312 562.128906 167.9375 567.078125 167.789062 C 572.050781 167.667969 576.15625 171.574219 576.28125 176.5 C 576.949219 199.730469 586.300781 221.597656 602.703125 238.101562 C 602.726562 238.125 602.777344 238.175781 602.828125 238.222656 C 629.742188 265.140625 670.957031 272.414062 705.394531 256.285156 C 708.910156 254.652344 712.917969 255.492188 715.515625 258.089844 " fill-opacity="1" fill-rule="nonzero"/></g></g></g><g clip-path="url(#9bec41fd36)"><g clip-path="url(#1b05ab7682)"><g clip-path="url(#bc3d2b35b6)"><path fill="#fbc74c" d="M 576.035156 164.871094 C 579.398438 168.234375 579.523438 173.703125 576.304688 177.265625 C 545.503906 210.9375 496.496094 221.746094 454.316406 204.15625 C 428.636719 193.421875 408.25 173.53125 396.894531 148.171875 C 394.890625 143.644531 396.894531 138.375 401.421875 136.324219 C 405.949219 134.320312 411.246094 136.347656 413.273438 140.851562 C 422.75 162.050781 439.769531 178.675781 461.21875 187.65625 C 496.421875 202.328125 537.367188 193.296875 563.070312 165.167969 C 566.410156 161.53125 572.074219 161.257812 575.738281 164.574219 C 575.835938 164.671875 575.933594 164.773438 576.035156 164.871094 " fill-opacity="1" fill-rule="nonzero"/></g></g></g><g clip-path="url(#4c77819b7f)"><g clip-path="url(#d1edf7faf1)"><g clip-path="url(#4f7b9a1dc5)"><path fill="#fbc74c" d="M 411.46875 132.117188 C 413.84375 134.492188 414.78125 138.152344 413.546875 141.519531 C 398.007812 184.414062 356.867188 213.1875 311.148438 213.089844 C 283.316406 212.964844 256.871094 202.402344 236.683594 183.300781 C 233.074219 179.839844 232.925781 174.246094 236.339844 170.636719 C 239.726562 167.046875 245.417969 166.898438 249.003906 170.289062 C 265.851562 186.246094 287.96875 195.101562 311.199219 195.175781 C 349.371094 195.25 383.734375 171.230469 396.722656 135.433594 C 398.40625 130.78125 403.527344 128.382812 408.175781 130.0625 C 409.464844 130.507812 410.578125 131.226562 411.46875 132.117188 " fill-opacity="1" fill-rule="nonzero"/></g></g></g><g clip-path="url(#31b44baa3c)"><g clip-path="url(#91687f5eeb)"><g clip-path="url(#7941637cbf)"><path fill="#fbc74c" d="M 246.902344 164.871094 C 248.433594 166.40625 249.425781 168.484375 249.523438 170.808594 C 251.578125 216.402344 224.5625 258.707031 182.332031 276.097656 C 156.554688 286.636719 128.078125 287.007812 102.128906 277.089844 C 97.476562 275.308594 95.175781 270.136719 96.957031 265.535156 C 98.714844 260.910156 103.882812 258.609375 108.511719 260.367188 C 130.207031 268.652344 154.003906 268.355469 175.503906 259.523438 C 210.808594 245.003906 233.34375 209.648438 231.613281 171.601562 C 231.414062 166.652344 235.25 162.472656 240.171875 162.25 C 242.792969 162.148438 245.195312 163.164062 246.902344 164.871094 " fill-opacity="1" fill-rule="nonzero"/></g></g></g></svg>