<svg xmlns="http://www.w3.org/2000/svg" xmlns:xlink="http://www.w3.org/1999/xlink" width="1080" zoomAndPan="magnify" viewBox="0 0 810 809.999993" height="1080" preserveAspectRatio="xMidYMid meet" version="1.0"><defs><clipPath id="727caed76e"><path d="M 126 4.699219 L 430 4.699219 L 430 804.949219 L 126 804.949219 Z M 126 4.699219 " clip-rule="nonzero"/></clipPath></defs><path fill="#fbc74c" d="M 321.300781 621.203125 C 321.300781 621.203125 314.375 534.429688 353.375 492.925781 C 392.375 451.421875 496.742188 354.585938 505.5625 275.347656 C 505.5625 275.347656 530.714844 324.382812 518.148438 359.617188 C 518.148438 359.617188 550.855469 318.113281 547.066406 258.992188 C 547.066406 258.992188 593.601562 123.15625 538.269531 -0.0898438 C 538.269531 -0.0898438 777.230469 198.632812 636.367188 437.59375 C 636.367188 437.59375 690.433594 406.152344 714.34375 357.089844 C 714.34375 357.089844 674.105469 518.074219 518.148438 599.820312 C 518.148438 599.820312 569.082031 590.390625 603.050781 567.746094 C 603.050781 567.746094 529.472656 650.121094 403.699219 674.03125 C 277.921875 697.917969 309.367188 809.863281 309.367188 809.863281 C 309.367188 809.863281 240.1875 725.59375 335.78125 648.878906 C 431.375 572.164062 582.300781 486.632812 607.449219 363.382812 C 607.449219 363.382812 572.238281 453.949219 472.878906 521.863281 C 373.496094 589.757812 321.300781 621.203125 321.300781 621.203125 " fill-opacity="1" fill-rule="evenodd"/><g clip-path="url(#727caed76e)"><path fill="#fbc74c" d="M 222.488281 805.265625 C 222.488281 805.265625 112.117188 562.988281 260.179688 334.148438 C 260.179688 334.148438 194.226562 444.523438 196.925781 616.816406 C 196.925781 616.816406 222.824219 587.886719 249.75 588.21875 C 249.75 588.21875 241.011719 579.125 222.824219 581.820312 C 222.824219 581.820312 286.078125 559.625 313.003906 489.613281 C 313.003906 489.613281 275.980469 531.671875 242.324219 540.765625 C 242.324219 540.765625 312.3125 496.011719 328.472656 435.429688 C 344.632812 374.847656 337.898438 341.214844 337.898438 341.214844 C 337.898438 341.214844 329.832031 404.46875 275.980469 431.394531 C 275.980469 431.394531 319.066406 378.90625 327.136719 329.089844 C 335.203125 279.296875 352.699219 233.515625 391.75 155.4375 C 430.777344 77.359375 429.441406 4.675781 429.441406 4.675781 C 429.441406 4.675781 425.40625 111.015625 298.875 210.625 C 172.339844 310.257812 188.476562 366.804688 188.476562 366.804688 C 188.476562 366.804688 170.980469 317.011719 198.574219 284.691406 C 198.574219 284.691406 116.03125 358.019531 156.847656 465.742188 C 156.847656 465.742188 129.253906 421.320312 134.648438 386.996094 C 134.648438 386.996094 105.695312 479.875 154.152344 584.878906 C 154.152344 584.878906 148.757812 585.042969 137.992188 589.578125 C 137.992188 589.578125 160.023438 594.972656 164.75 607.078125 C 169.453125 619.179688 191.171875 760.679688 222.488281 805.265625 " fill-opacity="1" fill-rule="evenodd"/></g></svg>