<svg xmlns="http://www.w3.org/2000/svg" xmlns:xlink="http://www.w3.org/1999/xlink" width="1080" zoomAndPan="magnify" viewBox="0 0 810 809.999993" height="1080" preserveAspectRatio="xMidYMid meet" version="1.0"><defs><clipPath id="5c3739ae3a"><path d="M 159.328125 37.585938 L 667.828125 37.585938 L 667.828125 786.085938 L 159.328125 786.085938 Z M 159.328125 37.585938 " clip-rule="nonzero"/></clipPath><clipPath id="4af8cdf2f2"><path d="M 69 6 L 374 6 L 374 733 L 69 733 Z M 69 6 " clip-rule="nonzero"/></clipPath><clipPath id="04c13ea5ec"><path d="M -107.128906 88.089844 L 103.390625 6.574219 L 373.660156 704.574219 L 163.140625 786.089844 Z M -107.128906 88.089844 " clip-rule="nonzero"/></clipPath><clipPath id="2d72b6f2ab"><path d="M -107.128906 88.089844 L 360.070312 -92.8125 L 630.339844 605.1875 L 163.140625 786.089844 Z M -107.128906 88.089844 " clip-rule="nonzero"/></clipPath><clipPath id="3b51488e73"><path d="M 432 15 L 735 15 L 735 743 L 432 743 Z M 432 15 " clip-rule="nonzero"/></clipPath><clipPath id="7476436f35"><path d="M 697.558594 15.042969 L 908.675781 94.996094 L 643.582031 794.980469 L 432.464844 715.027344 Z M 697.558594 15.042969 " clip-rule="nonzero"/></clipPath><clipPath id="5105c28a6d"><path d="M 908.347656 94.871094 L 439.820312 -82.566406 L 174.726562 617.417969 L 643.25 794.855469 Z M 908.347656 94.871094 " clip-rule="nonzero"/></clipPath></defs><g clip-path="url(#5c3739ae3a)"><path fill="#fbc74c" d="M 773.011719 411.855469 C 492.308594 463.535156 450.414062 505.425781 398.742188 786.128906 C 347.0625 505.425781 305.171875 463.535156 24.464844 411.855469 C 305.171875 360.183594 347.0625 318.289062 398.738281 37.585938 C 450.414062 318.289062 492.308594 360.183594 773.011719 411.855469 Z M 773.011719 411.855469 " fill-opacity="1" fill-rule="nonzero"/></g><g clip-path="url(#4af8cdf2f2)"><g clip-path="url(#04c13ea5ec)"><g clip-path="url(#2d72b6f2ab)"><path fill="#fbc74c" d="M 301.753906 732.503906 C 288.796875 730.488281 141.339844 705.273438 88.316406 584 C 63.6875 527.667969 66.382812 463.945312 81.425781 405.464844 C 92.625 361.933594 113.847656 322.695312 131.394531 281.648438 C 148.644531 241.292969 162.769531 198.761719 171.109375 155.613281 C 176.191406 129.320312 179.265625 99.957031 169.675781 74.273438 C 156.210938 38.203125 129.375 15.542969 111.761719 3.332031 C 141.542969 8.625 246.621094 31.042969 326.046875 127.070312 C 426.558594 248.59375 406.378906 391.753906 402.816406 414.292969 C 411.242188 402.164062 425.15625 378.671875 430.113281 345.875 C 434.117188 319.378906 430.667969 297.425781 427.457031 283.984375 C 441.757812 290.917969 523.910156 332.433594 554.214844 429.695312 C 590.566406 546.359375 520.5625 641.324219 513.558594 650.492188 C 510.886719 637.519531 503.535156 610.871094 481.410156 585.8125 C 464.933594 567.15625 446.988281 556.988281 435.742188 551.738281 C 440 559.964844 446.675781 575.613281 446.847656 596.152344 C 447.09375 625.4375 433.964844 646.339844 428.632812 653.945312 C 427.714844 626.664062 421.316406 605.300781 413.539062 588.75 C 387.054688 532.40625 340.648438 523.542969 307.875 465.261719 C 294.65625 441.753906 288.328125 418.515625 285.234375 398.929688 C 273.398438 413.695312 224.65625 477.902344 230.25 571.429688 C 235.648438 661.710938 288.035156 718.492188 301.753906 732.503906 Z M 301.753906 732.503906 " fill-opacity="1" fill-rule="nonzero"/></g></g></g><g clip-path="url(#3b51488e73)"><g clip-path="url(#7476436f35)"><g clip-path="url(#5105c28a6d)"><path fill="#fbc74c" d="M 504.246094 742.296875 C 517.191406 740.1875 664.453125 713.878906 716.578125 592.214844 C 740.789062 535.703125 737.621094 472.003906 722.144531 413.636719 C 710.625 370.1875 689.113281 331.105469 671.261719 290.191406 C 653.714844 249.964844 639.273438 207.539062 630.617188 164.453125 C 625.339844 138.199219 622.046875 108.859375 631.445312 83.105469 C 644.644531 46.9375 671.308594 24.082031 688.835938 11.738281 C 659.09375 17.25 554.183594 40.445312 475.472656 137.0625 C 375.863281 259.324219 397.101562 402.332031 400.832031 424.84375 C 392.316406 412.78125 378.226562 389.386719 373.027344 356.632812 C 368.828125 330.164062 372.113281 308.1875 375.222656 294.722656 C 360.976562 301.757812 279.132812 343.886719 249.546875 441.367188 C 214.0625 558.296875 284.769531 652.742188 291.84375 661.859375 C 294.417969 648.867188 301.570312 622.164062 323.511719 596.941406 C 339.84375 578.164062 357.71875 567.863281 368.925781 562.53125 C 364.726562 570.789062 358.167969 586.484375 358.148438 607.023438 C 358.117188 636.3125 371.402344 657.117188 376.789062 664.679688 C 377.503906 637.394531 383.746094 615.980469 391.402344 599.378906 C 417.46875 542.835938 463.804688 533.628906 496.144531 475.105469 C 509.191406 451.5 515.347656 428.21875 518.292969 408.609375 C 530.238281 423.289062 579.457031 487.132812 574.554688 580.699219 C 569.828125 671.015625 517.859375 728.183594 504.246094 742.296875 Z M 504.246094 742.296875 " fill-opacity="1" fill-rule="nonzero"/></g></g></g></svg>