<svg xmlns="http://www.w3.org/2000/svg" xmlns:xlink="http://www.w3.org/1999/xlink" width="1080" zoomAndPan="magnify" viewBox="0 0 810 809.999993" height="1080" preserveAspectRatio="xMidYMid meet" version="1.0"><defs><clipPath id="d6ce5f4989"><path d="M 203 0 L 810 0 L 810 560 L 203 560 Z M 203 0 " clip-rule="nonzero"/></clipPath><clipPath id="f2a8b080b0"><path d="M 722.957031 -262.589844 L 913.347656 -72.203125 L 281.195312 559.953125 L 90.804688 369.5625 Z M 722.957031 -262.589844 " clip-rule="nonzero"/></clipPath><clipPath id="f59399be04"><path d="M 722.957031 -262.589844 L 1146.164062 160.613281 L 514.007812 792.765625 L 90.804688 369.5625 Z M 722.957031 -262.589844 " clip-rule="nonzero"/></clipPath><clipPath id="e883b7270f"><path d="M 235 315 L 810 315 L 810 666 L 235 666 Z M 235 315 " clip-rule="nonzero"/></clipPath><clipPath id="9492e28144"><path d="M 805.789062 114.957031 L 913.511719 308.210938 L 272.824219 665.339844 L 165.101562 472.085938 Z M 805.789062 114.957031 " clip-rule="nonzero"/></clipPath><clipPath id="a7118b6099"><path d="M 805.789062 114.957031 L 1044.972656 544.046875 L 404.285156 901.175781 L 165.101562 472.085938 Z M 805.789062 114.957031 " clip-rule="nonzero"/></clipPath><clipPath id="de244a7b78"><path d="M 239 529 L 810 529 L 810 764 L 239 764 Z M 239 529 " clip-rule="nonzero"/></clipPath><clipPath id="04de1cc2c5"><path d="M 822.617188 423.859375 L 869.140625 608.589844 L 255.304688 763.171875 L 208.785156 578.441406 Z M 822.617188 423.859375 " clip-rule="nonzero"/></clipPath><clipPath id="847bf66d5f"><path d="M 822.617188 423.859375 L 925.917969 834.050781 L 312.082031 988.632812 L 208.785156 578.441406 Z M 822.617188 423.859375 " clip-rule="nonzero"/></clipPath><clipPath id="d078c2c04f"><path d="M 41 256 L 317 256 L 317 710 L 41 710 Z M 41 256 " clip-rule="nonzero"/></clipPath><clipPath id="dba844cc26"><path d="M 13.320312 275.089844 L 261.378906 246.082031 L 316.339844 716.132812 L 68.277344 745.136719 Z M 13.320312 275.089844 " clip-rule="nonzero"/></clipPath><clipPath id="a7f2f5f746"><path d="M 13.320312 275.089844 L 483.367188 220.128906 L 538.328125 690.175781 L 68.277344 745.136719 Z M 13.320312 275.089844 " clip-rule="nonzero"/></clipPath></defs><g clip-path="url(#d6ce5f4989)"><g clip-path="url(#f2a8b080b0)"><g clip-path="url(#f59399be04)"><path fill="#fbc74c" d="M 216.167969 495.261719 C 212.113281 480.132812 168.492188 306.832031 275.414062 190.355469 C 325.078125 136.25 396.011719 108.4375 467.175781 96.644531 C 520.148438 87.871094 573.269531 92.117188 626.59375 91.480469 C 679.015625 90.847656 732.308594 85.753906 783.480469 74.039062 C 814.664062 66.902344 848.234375 56.085938 871.671875 33.210938 C 904.585938 1.085938 916.390625 -39.171875 921.234375 -64.316406 C 929.828125 -29.21875 956.050781 96.421875 889.457031 229.5625 C 805.183594 398.054688 639.007812 445.105469 612.664062 452.09375 C 629.980469 455.445312 662.371094 459.308594 700.597656 448.894531 C 731.488281 440.480469 753.808594 426.117188 766.949219 416.121094 C 766.273438 435.089844 760.5625 544.902344 668.914062 624.964844 C 558.980469 721.003906 421.417969 690.347656 408.019531 687.117188 C 420.902344 677.933594 446.476562 657.039062 463.175781 620.765625 C 475.613281 593.761719 478.058594 569.238281 478.367188 554.417969 C 471.433594 563.042969 457.558594 577.890625 435.199219 587.992188 C 403.316406 602.394531 374.136719 598.140625 363.253906 595.984375 C 392.621094 581.8125 412.878906 564.507812 427.207031 548.019531 C 475.992188 491.882812 463.277344 436.898438 511.140625 372.953125 C 530.449219 347.160156 552.785156 329.03125 572.695312 316.195312 C 550.847656 310.390625 457.15625 288.125 357.660156 339.378906 C 261.613281 388.855469 224.859375 473.507812 216.167969 495.261719 Z M 216.167969 495.261719 " fill-opacity="1" fill-rule="nonzero"/></g></g></g><g clip-path="url(#e883b7270f)"><g clip-path="url(#9492e28144)"><g clip-path="url(#a7118b6099)"><path fill="#fbc74c" d="M 235.847656 599.410156 C 236.042969 586.558594 240.484375 440.003906 350.992188 372.058594 C 402.324219 340.496094 464.542969 334.457031 523.351562 341.109375 C 567.128906 346.066406 608.101562 361.332031 650.324219 372.789062 C 691.839844 384.046875 735.042969 391.980469 778.058594 394.210938 C 804.269531 395.570312 833.191406 394.5625 856.816406 381.769531 C 889.996094 363.796875 908.347656 334.671875 917.804688 315.914062 C 916.714844 345.539062 909.234375 450.578125 826.816406 540.722656 C 722.515625 654.796875 580.8125 654.664062 558.457031 654.269531 C 571.371094 660.796875 596.066406 671.109375 628.570312 671.464844 C 654.835938 671.753906 675.675781 665.421875 688.285156 660.480469 C 683.5 675.300781 654.363281 760.6875 564.074219 803.316406 C 455.773438 854.457031 354.082031 799.410156 344.230469 793.855469 C 356.460938 789.5 381.332031 778.742188 402.644531 753.863281 C 418.515625 735.335938 425.949219 716.53125 429.515625 704.902344 C 422.109375 710.15625 407.828125 718.761719 387.914062 721.71875 C 359.523438 725.9375 337.449219 716.035156 329.339844 711.890625 C 355.695312 707.292969 375.566406 698.179688 390.570312 688.378906 C 441.664062 655.015625 443.964844 608.769531 496.082031 569.039062 C 517.101562 553.011719 538.796875 543.714844 557.390625 538.050781 C 541.449219 528.570312 472.5 489.980469 382.480469 508.117188 C 295.582031 525.625 247.585938 584.191406 235.847656 599.410156 Z M 235.847656 599.410156 " fill-opacity="1" fill-rule="nonzero"/></g></g></g><g clip-path="url(#de244a7b78)"><g clip-path="url(#04de1cc2c5)"><g clip-path="url(#847bf66d5f)"><path fill="#fbc74c" d="M 239.816406 700.140625 C 242.847656 689.480469 279.253906 568.410156 386.457031 536.484375 C 436.253906 521.65625 489.421875 530.507812 536.914062 549.175781 C 572.265625 563.074219 602.984375 584.933594 635.59375 603.898438 C 667.660156 622.539062 701.871094 638.789062 737.199219 650.246094 C 758.726562 657.230469 783.035156 662.847656 805.570312 657.460938 C 837.214844 649.898438 858.996094 629.738281 871.0625 616.226562 C 863.542969 640.65625 833.867188 726.472656 745.109375 783.152344 C 632.78125 854.882812 514.792969 823.148438 496.261719 817.828125 C 505.558594 826.148438 523.824219 840.25 550.816406 847.800781 C 572.628906 853.902344 591.398438 853.28125 603.003906 851.976562 C 595.710938 863.253906 552.386719 927.863281 467.675781 943.21875 C 366.0625 961.640625 293.652344 893.097656 286.6875 886.273438 C 297.847656 885.375 320.957031 881.964844 344.265625 866 C 361.617188 854.113281 372.003906 840.113281 377.570312 831.222656 C 370.230469 833.945312 356.414062 837.925781 339.171875 835.945312 C 314.582031 833.121094 298.40625 819.945312 292.578125 814.6875 C 315.554688 816.738281 334.140625 813.582031 348.824219 808.769531 C 398.820312 792.386719 411.058594 754.382812 463.332031 732.921875 C 484.417969 724.265625 504.5625 721.363281 521.308594 720.796875 C 510.148438 709.34375 461.335938 661.816406 382.3125 656.832031 C 306.035156 652.019531 252.988281 690.082031 239.816406 700.140625 Z M 239.816406 700.140625 " fill-opacity="1" fill-rule="nonzero"/></g></g></g><g clip-path="url(#d078c2c04f)"><g clip-path="url(#dba844cc26)"><g clip-path="url(#a7f2f5f746)"><path fill="#fbc74c" d="M 410.390625 521.066406 C 447.722656 569.546875 443.5 636.816406 403.464844 680.386719 C 409.367188 677.402344 415.101562 673.882812 420.542969 669.703125 C 467.039062 633.898438 475.699219 567.191406 439.894531 520.695312 C 418.21875 492.554688 385.214844 478.367188 352.238281 479.429688 C 374.542969 487.019531 394.945312 501.003906 410.390625 521.066406 Z M 311.167969 617.558594 C 288.277344 674.304688 228.140625 704.726562 170.285156 692.285156 C 175.851562 695.863281 181.785156 699.035156 188.15625 701.59375 C 242.570312 723.542969 304.484375 697.226562 326.433594 642.8125 C 339.722656 609.871094 335.234375 574.238281 317.613281 546.320312 C 322.378906 569.394531 320.652344 594.066406 311.167969 617.558594 Z M 173.335938 576.265625 C 112.460938 582.492188 57.492188 543.503906 41.5 486.535156 C 40.929688 493.128906 40.90625 499.859375 41.597656 506.683594 C 47.578125 565.058594 99.746094 607.535156 158.121094 601.554688 C 193.460938 597.933594 222.882812 577.328125 239.339844 548.734375 C 221.15625 563.695312 198.53125 573.6875 173.335938 576.265625 Z M 144.132812 439.152344 C 108.660156 389.289062 115.429688 322.234375 157.082031 280.207031 C 151.070312 282.96875 145.203125 286.269531 139.605469 290.238281 C 91.796875 324.261719 80.609375 390.597656 114.628906 438.40625 C 135.226562 467.351562 167.667969 482.765625 200.664062 482.960938 C 178.675781 474.539062 158.824219 459.792969 144.132812 439.152344 Z M 242.867188 347.4375 C 266.207031 290.863281 326.566406 260.914062 384.320312 273.808594 C 378.785156 270.175781 372.871094 266.96875 366.527344 264.359375 C 312.277344 241.984375 250.164062 267.816406 227.789062 322.0625 C 214.242188 354.90625 218.457031 390.570312 235.859375 418.621094 C 231.292969 395.515625 233.210938 370.851562 242.867188 347.4375 Z M 379.828125 389.199219 C 440.71875 383.089844 495.605469 422.183594 511.480469 479.1875 C 512.066406 472.59375 512.109375 465.871094 511.417969 459.035156 C 505.554688 400.648438 453.472656 358.066406 395.082031 363.929688 C 359.734375 367.480469 330.269531 388.019531 313.75 416.597656 C 331.984375 401.675781 354.628906 391.730469 379.828125 389.199219 Z M 379.828125 389.199219 " fill-opacity="1" fill-rule="nonzero"/></g></g></g></svg>