<svg xmlns="http://www.w3.org/2000/svg" xmlns:xlink="http://www.w3.org/1999/xlink" width="1080" zoomAndPan="magnify" viewBox="0 0 810 809.999993" height="1080" preserveAspectRatio="xMidYMid meet" version="1.0"><defs><clipPath id="041a5e6f65"><path d="M 65 83 L 767 83 L 767 784.785156 L 65 784.785156 Z M 65 83 " clip-rule="nonzero"/></clipPath><clipPath id="a49d9d962e"><path d="M 502 25.148438 L 810 25.148438 L 810 333 L 502 333 Z M 502 25.148438 " clip-rule="nonzero"/></clipPath><clipPath id="859e1495c6"><path d="M 94.761719 164.082031 L 185.199219 164.082031 L 185.199219 254.519531 L 94.761719 254.519531 Z M 94.761719 164.082031 " clip-rule="nonzero"/></clipPath><clipPath id="97af0d4c86"><path d="M 139.980469 164.082031 C 115.007812 164.082031 94.761719 184.328125 94.761719 209.300781 C 94.761719 234.273438 115.007812 254.519531 139.980469 254.519531 C 164.953125 254.519531 185.199219 234.273438 185.199219 209.300781 C 185.199219 184.328125 164.953125 164.082031 139.980469 164.082031 Z M 139.980469 164.082031 " clip-rule="nonzero"/></clipPath><clipPath id="358ee64040"><path d="M 408 627 L 499 627 L 499 719 L 408 719 Z M 408 627 " clip-rule="nonzero"/></clipPath><clipPath id="ea3992e1e8"><path d="M 422.878906 728.996094 L 397.542969 642.179688 L 484.355469 616.84375 L 509.691406 703.660156 Z M 422.878906 728.996094 " clip-rule="nonzero"/></clipPath><clipPath id="2ca6e9f226"><path d="M 410.210938 685.589844 C 417.207031 709.5625 442.3125 723.324219 466.285156 716.328125 C 490.257812 709.332031 504.019531 684.226562 497.023438 660.253906 C 490.027344 636.28125 464.921875 622.515625 440.949219 629.511719 C 416.976562 636.507812 403.214844 661.613281 410.210938 685.589844 Z M 410.210938 685.589844 " clip-rule="nonzero"/></clipPath><clipPath id="ef78cf9222"><path d="M 457 589 L 512 589 L 512 645 L 457 645 Z M 457 589 " clip-rule="nonzero"/></clipPath><clipPath id="7cb564d6e1"><path d="M 465.777344 650.726562 L 450.46875 598.257812 L 502.933594 582.949219 L 518.246094 635.414062 Z M 465.777344 650.726562 " clip-rule="nonzero"/></clipPath><clipPath id="b5db790aab"><path d="M 458.121094 624.492188 C 462.351562 638.980469 477.523438 647.296875 492.011719 643.070312 C 506.5 638.84375 514.816406 623.667969 510.589844 609.179688 C 506.359375 594.691406 491.1875 586.375 476.699219 590.601562 C 462.210938 594.832031 453.894531 610.003906 458.121094 624.492188 Z M 458.121094 624.492188 " clip-rule="nonzero"/></clipPath><clipPath id="14523a89f3"><path d="M 239.074219 70.1875 L 277.214844 70.1875 L 277.214844 108.328125 L 239.074219 108.328125 Z M 239.074219 70.1875 " clip-rule="nonzero"/></clipPath><clipPath id="7725171d42"><path d="M 258.144531 70.1875 C 247.613281 70.1875 239.074219 78.726562 239.074219 89.257812 C 239.074219 99.789062 247.613281 108.328125 258.144531 108.328125 C 268.679688 108.328125 277.214844 99.789062 277.214844 89.257812 C 277.214844 78.726562 268.679688 70.1875 258.144531 70.1875 Z M 258.144531 70.1875 " clip-rule="nonzero"/></clipPath><clipPath id="5df451eda6"><path d="M 138.800781 513.136719 L 176.941406 513.136719 L 176.941406 551.277344 L 138.800781 551.277344 Z M 138.800781 513.136719 " clip-rule="nonzero"/></clipPath><clipPath id="f8679d3db9"><path d="M 157.871094 513.136719 C 147.339844 513.136719 138.800781 521.675781 138.800781 532.207031 C 138.800781 542.742188 147.339844 551.277344 157.871094 551.277344 C 168.402344 551.277344 176.941406 542.742188 176.941406 532.207031 C 176.941406 521.675781 168.402344 513.136719 157.871094 513.136719 Z M 157.871094 513.136719 " clip-rule="nonzero"/></clipPath><clipPath id="b86f258066"><path d="M 584.511719 227.191406 L 622.652344 227.191406 L 622.652344 265.332031 L 584.511719 265.332031 Z M 584.511719 227.191406 " clip-rule="nonzero"/></clipPath><clipPath id="ce86b057d2"><path d="M 603.582031 227.191406 C 593.050781 227.191406 584.511719 235.730469 584.511719 246.261719 C 584.511719 256.792969 593.050781 265.332031 603.582031 265.332031 C 614.113281 265.332031 622.652344 256.792969 622.652344 246.261719 C 622.652344 235.730469 614.113281 227.191406 603.582031 227.191406 Z M 603.582031 227.191406 " clip-rule="nonzero"/></clipPath><clipPath id="5f78e358a9"><path d="M 157.871094 227.191406 L 212.527344 227.191406 L 212.527344 281.847656 L 157.871094 281.847656 Z M 157.871094 227.191406 " clip-rule="nonzero"/></clipPath><clipPath id="53e4a486fa"><path d="M 185.199219 227.191406 C 170.105469 227.191406 157.871094 239.425781 157.871094 254.519531 C 157.871094 269.609375 170.105469 281.847656 185.199219 281.847656 C 200.292969 281.847656 212.527344 269.609375 212.527344 254.519531 C 212.527344 239.425781 200.292969 227.191406 185.199219 227.191406 Z M 185.199219 227.191406 " clip-rule="nonzero"/></clipPath><clipPath id="bef7f0d649"><path d="M 548.925781 191.605469 L 603.582031 191.605469 L 603.582031 246.261719 L 548.925781 246.261719 Z M 548.925781 191.605469 " clip-rule="nonzero"/></clipPath><clipPath id="dacd275ee7"><path d="M 576.253906 191.605469 C 561.164062 191.605469 548.925781 203.839844 548.925781 218.933594 C 548.925781 234.027344 561.164062 246.261719 576.253906 246.261719 C 591.347656 246.261719 603.582031 234.027344 603.582031 218.933594 C 603.582031 203.839844 591.347656 191.605469 576.253906 191.605469 Z M 576.253906 191.605469 " clip-rule="nonzero"/></clipPath></defs><g clip-path="url(#041a5e6f65)"><path fill="#fbc74c" d="M 415.988281 83.597656 C 406.871094 417.710938 399.46875 425.109375 65.359375 434.230469 C 399.46875 443.355469 406.871094 450.757812 415.988281 784.867188 C 425.117188 450.757812 432.519531 443.355469 766.628906 434.230469 C 432.519531 425.109375 425.117188 417.710938 415.988281 83.597656 " fill-opacity="1" fill-rule="nonzero"/></g><path fill="#fbc74c" d="M 101.125 493.433594 C 98.492188 589.792969 96.359375 591.925781 0 594.554688 C 96.359375 597.1875 98.492188 599.320312 101.125 695.679688 C 103.753906 599.320312 105.886719 597.1875 202.246094 594.554688 C 105.886719 591.925781 103.753906 589.792969 101.125 493.433594 " fill-opacity="1" fill-rule="nonzero"/><g clip-path="url(#a49d9d962e)"><path fill="#fbc74c" d="M 656.433594 332.40625 C 660.433594 186.019531 663.671875 182.773438 810.058594 178.78125 C 663.671875 174.78125 660.433594 171.542969 656.433594 25.15625 C 652.433594 171.542969 649.191406 174.78125 502.804688 178.78125 C 649.191406 182.773438 652.433594 186.019531 656.433594 332.40625 " fill-opacity="1" fill-rule="nonzero"/></g><g clip-path="url(#859e1495c6)"><g clip-path="url(#97af0d4c86)"><path fill="#fbc74c" d="M 94.761719 164.082031 L 185.199219 164.082031 L 185.199219 254.519531 L 94.761719 254.519531 Z M 94.761719 164.082031 " fill-opacity="1" fill-rule="nonzero"/></g></g><g clip-path="url(#358ee64040)"><g clip-path="url(#ea3992e1e8)"><g clip-path="url(#2ca6e9f226)"><path fill="#fbc74c" d="M 422.878906 728.996094 L 397.542969 642.179688 L 484.355469 616.84375 L 509.691406 703.660156 Z M 422.878906 728.996094 " fill-opacity="1" fill-rule="nonzero"/></g></g></g><g clip-path="url(#ef78cf9222)"><g clip-path="url(#7cb564d6e1)"><g clip-path="url(#b5db790aab)"><path fill="#fbc74c" d="M 465.777344 650.726562 L 450.46875 598.257812 L 502.933594 582.949219 L 518.246094 635.414062 Z M 465.777344 650.726562 " fill-opacity="1" fill-rule="nonzero"/></g></g></g><g clip-path="url(#14523a89f3)"><g clip-path="url(#7725171d42)"><path fill="#fbc74c" d="M 239.074219 70.1875 L 277.214844 70.1875 L 277.214844 108.328125 L 239.074219 108.328125 Z M 239.074219 70.1875 " fill-opacity="1" fill-rule="nonzero"/></g></g><g clip-path="url(#5df451eda6)"><g clip-path="url(#f8679d3db9)"><path fill="#fbc74c" d="M 138.800781 513.136719 L 176.941406 513.136719 L 176.941406 551.277344 L 138.800781 551.277344 Z M 138.800781 513.136719 " fill-opacity="1" fill-rule="nonzero"/></g></g><g clip-path="url(#b86f258066)"><g clip-path="url(#ce86b057d2)"><path fill="#fbc74c" d="M 584.511719 227.191406 L 622.652344 227.191406 L 622.652344 265.332031 L 584.511719 265.332031 Z M 584.511719 227.191406 " fill-opacity="1" fill-rule="nonzero"/></g></g><g clip-path="url(#5f78e358a9)"><g clip-path="url(#53e4a486fa)"><path fill="#fbc74c" d="M 157.871094 227.191406 L 212.527344 227.191406 L 212.527344 281.847656 L 157.871094 281.847656 Z M 157.871094 227.191406 " fill-opacity="1" fill-rule="nonzero"/></g></g><g clip-path="url(#bef7f0d649)"><g clip-path="url(#dacd275ee7)"><path fill="#fbc74c" d="M 548.925781 191.605469 L 603.582031 191.605469 L 603.582031 246.261719 L 548.925781 246.261719 Z M 548.925781 191.605469 " fill-opacity="1" fill-rule="nonzero"/></g></g></svg>