<svg xmlns="http://www.w3.org/2000/svg" xmlns:xlink="http://www.w3.org/1999/xlink" width="1080" zoomAndPan="magnify" viewBox="0 0 810 809.999993" height="1080" preserveAspectRatio="xMidYMid meet" version="1.0"><defs><clipPath id="4d05400323"><path d="M 80.082031 32 L 706.332031 32 L 706.332031 744 L 80.082031 744 Z M 80.082031 32 " clip-rule="nonzero"/></clipPath></defs><g clip-path="url(#4d05400323)"><path fill="#fbc74c" d="M 117.890625 539.878906 L 407.550781 702.851562 L 385.8125 703.0625 L 673.351562 533.90625 L 662.609375 552.683594 L 662.757812 217.574219 L 673.800781 236.539062 L 385.417969 72.988281 L 406.785156 73.066406 L 112.445312 237.171875 L 123.625 217.792969 L 128.996094 558.53125 L 117.890625 539.878906 M 96.519531 577.871094 C 89.761719 574.070312 85.535156 566.96875 85.414062 559.21875 L 80.039062 218.480469 C 79.914062 210.457031 84.207031 203.011719 91.21875 199.101562 L 385.558594 34.992188 C 392.203125 31.289062 400.300781 31.316406 406.921875 35.070312 L 695.304688 198.625 C 702.132812 202.496094 706.351562 209.742188 706.347656 217.59375 L 706.199219 552.703125 C 706.195312 560.421875 702.109375 567.5625 695.457031 571.480469 L 407.914062 740.632812 C 401.222656 744.566406 392.945312 744.648438 386.175781 740.839844 Z M 96.519531 577.871094 " fill-opacity="1" fill-rule="nonzero"/></g><path fill="#fbc74c" d="M 399.429688 802.640625 C 379.566406 806.136719 370.1875 718.25 371.140625 692.660156 C 371.9375 675.179688 381.3125 599.6875 405.789062 602.390625 C 432.648438 605.410156 430.421875 694.726562 428.355469 714.910156 C 426.925781 728.578125 413.097656 800.257812 399.429688 802.640625 Z M 128.613281 443.460938 C 102.230469 444.414062 43.109375 438.851562 20.542969 425.976562 C -16.488281 404.679688 70.605469 389.265625 83.320312 387.832031 C 104.140625 385.609375 215.074219 381.476562 210.144531 417.710938 C 207.601562 435.832031 143.871094 442.980469 128.773438 443.460938 Z M 586.96875 753.371094 C 575.683594 755.757812 539.925781 714.433594 532.613281 704.421875 C 519.265625 686.460938 464.75 594.917969 490.019531 579.183594 C 519.105469 561.226562 566.625 652.292969 575.523438 673.273438 C 580.292969 684.714844 604.449219 749.238281 586.96875 753.054688 Z M 398.796875 216.191406 C 369.234375 220.164062 367.484375 137.996094 368.28125 119.558594 C 369.710938 80.464844 396.253906 -37.78125 419.136719 57.578125 C 427.085938 90.636719 428.515625 136.246094 422.316406 169.625 C 420.09375 181.859375 413.574219 214.125 398.796875 216.03125 Z M 219.839844 333.796875 C 205.535156 335.703125 157.382812 315.363281 142.757812 307.574219 C 120.667969 295.8125 84.273438 268.160156 68.378906 249.089844 C 63.136719 242.730469 52.488281 231.921875 63.929688 225.566406 C 76.007812 219.050781 134.019531 239.871094 148.164062 246.226562 C 166.597656 254.652344 232.394531 293.429688 235.257812 313.296875 C 236.6875 323.148438 229.695312 332.207031 219.679688 333.640625 Z M 734.136719 609.539062 C 719.832031 612.242188 666.113281 589.039062 651.492188 580.933594 C 632.261719 570.285156 564.398438 524.195312 572.347656 499.5625 C 582.359375 469.046875 658.644531 517.679688 673.742188 528.488281 C 689.953125 540.246094 723.488281 570.761719 734.453125 586.972656 C 738.429688 592.851562 747.644531 607.15625 734.136719 609.539062 Z M 770.691406 513.386719 C 766.71875 514.5 729.847656 512.753906 723.011719 511.800781 C 691.863281 507.824219 660.074219 492.726562 633.214844 476.835938 C 614.941406 466.027344 593.324219 455.855469 612.554688 450.609375 C 658.644531 458.875 695.992188 458.082031 738.90625 480.808594 C 743.195312 483.03125 773.550781 502.898438 774.1875 504.964844 C 774.980469 507.507812 773.234375 512.59375 770.691406 513.230469 Z M 304.074219 775.621094 C 291.199219 778.007812 302.960938 707.757812 305.34375 699.019531 C 313.769531 667.550781 333.316406 641.644531 346.667969 612.402344 C 350.164062 604.933594 357.472656 608.585938 358.585938 611.605469 C 360.175781 615.738281 350.957031 689.164062 348.253906 699.019531 C 345.554688 708.871094 338.242188 726.355469 333.15625 735.570312 C 330.457031 740.5 307.25 775.144531 304.230469 775.621094 Z M 487.796875 779.597656 C 480.484375 780.230469 453.785156 725.242188 449.335938 702.039062 C 447.269531 691.230469 443.136719 620.664062 445.363281 614.625 C 446.15625 612.402344 454.421875 609.222656 456.488281 615.421875 C 465.863281 643.394531 484.300781 669.140625 490.65625 698.066406 C 495.582031 720.632812 495.902344 753.847656 491.453125 776.734375 C 490.972656 777.6875 488.113281 779.4375 487.953125 779.597656 Z M 195.363281 370.351562 C 191.867188 371.144531 132.746094 363.835938 125.4375 362.40625 C 99.371094 357.320312 55.664062 336.976562 36.433594 318.699219 C 21.8125 304.554688 53.917969 307.574219 71.398438 309.164062 C 86.339844 310.59375 102.550781 313.929688 116.695312 318.699219 C 129.566406 323.148438 192.820312 357.796875 196.160156 360.816406 C 201.40625 365.582031 196.476562 370.035156 195.363281 370.351562 Z M 654.671875 677.085938 C 646.089844 679.628906 598.253906 644.824219 581.246094 624.957031 C 575.207031 617.804688 533.566406 556.933594 534.363281 552.644531 C 534.363281 552.007812 539.605469 546.921875 541.039062 548.195312 C 577.433594 575.210938 609.058594 589.039062 635.125 627.976562 C 639.097656 633.855469 664.207031 674.066406 654.511719 676.925781 Z M 307.25 243.207031 C 280.550781 250.042969 247.972656 155 243.363281 133.226562 C 241.296875 123.214844 232.394531 69.496094 243.042969 66.160156 C 257.1875 61.710938 279.914062 107.800781 284.683594 118.289062 C 292.472656 135.136719 333 236.851562 307.25 243.523438 Z M 344.757812 209.832031 C 344.441406 209.832031 341.738281 208.71875 340.308594 206.972656 C 337.449219 203.316406 308.207031 134.816406 305.34375 121.148438 C 302.007812 105.414062 301.054688 81.574219 302.164062 65.523438 C 304.230469 33.261719 309.160156 32.148438 327.59375 66.320312 C 333.953125 78.238281 342.375 98.582031 345.078125 111.613281 C 346.984375 120.832031 351.59375 199.5 350.640625 204.585938 C 350.164062 207.289062 347.300781 209.832031 344.601562 209.671875 Z M 216.660156 746.21875 C 186.464844 750.671875 229.375 657.539062 235.414062 646.414062 C 245.429688 628.136719 286.910156 564.5625 310.429688 572.988281 C 339.832031 583.476562 291.835938 664.6875 281.503906 679.789062 C 272.445312 692.980469 230.648438 744.15625 216.660156 746.21875 Z M 146.097656 674.703125 C 134.8125 676.132812 144.667969 659.445312 148.957031 651.179688 C 160.242188 629.25 177.40625 606.363281 196.320312 590.46875 C 202.199219 585.382812 255.28125 548.988281 259.097656 548.351562 C 263.863281 547.558594 267.835938 553.121094 265.136719 557.570312 C 238.753906 591.582031 224.449219 624.003906 188.53125 650.066406 C 183.605469 653.722656 149.433594 674.382812 146.414062 674.703125 Z M 559.3125 263.867188 C 554.546875 264.664062 550.890625 261.167969 551.6875 256.238281 C 552.320312 252.265625 590.941406 195.527344 596.1875 189.488281 C 605.878906 178.363281 618.4375 167.875 630.832031 159.609375 C 635.917969 156.273438 665.160156 138.949219 668.976562 141.332031 C 678.828125 147.691406 641.003906 198.707031 634.328125 206.175781 C 613.03125 229.859375 584.265625 244.480469 559.3125 263.710938 Z M 250.035156 262.277344 C 247.015625 262.914062 246.0625 261.800781 243.679688 260.691406 C 241.453125 259.578125 208.714844 233.988281 204.742188 230.492188 C 187.101562 215.078125 167.394531 193.9375 158.335938 172.007812 C 175.339844 149.757812 169.140625 142.765625 192.027344 162.152344 C 225.722656 190.285156 226.039062 209.515625 239.386719 233.355469 C 244.316406 242.09375 262.75 259.734375 250.195312 262.277344 Z M 618.117188 356.046875 C 608.742188 355.570312 600.476562 354.933594 606.992188 344.128906 C 659.917969 324.421875 685.664062 305.191406 745.261719 307.574219 C 758.613281 308.050781 778.957031 308.210938 775.777344 317.429688 C 774.347656 321.878906 723.648438 345.398438 706.164062 349.53125 C 685.347656 354.617188 639.257812 356.84375 617.960938 355.890625 Z M 572.347656 315.996094 C 577.273438 348.261719 663.890625 301.058594 678.511719 291.839844 C 695.039062 281.191406 709.660156 268.476562 723.328125 254.492188 C 729.847656 247.816406 748.441406 230.8125 747.167969 221.910156 C 743.992188 200.773438 675.332031 229.699219 663.253906 235.421875 C 642.433594 245.273438 568.375 290.726562 572.347656 316.15625 Z M 87.929688 508.621094 C 80.300781 509.097656 30.394531 510.210938 34.210938 498.765625 C 35.164062 495.90625 75.214844 475.878906 80.617188 473.65625 C 92.695312 469.046875 117.332031 463.007812 129.886719 461.734375 C 138.152344 460.941406 204.105469 458.714844 207.761719 460.148438 C 210.621094 461.257812 210.621094 467.457031 207.761719 468.886719 C 168.1875 483.667969 130.839844 506.078125 87.769531 508.621094 Z M 164.214844 574.578125 C 182.175781 564.246094 218.886719 536.75 230.648438 520.539062 C 234.621094 515.136719 237.800781 510.210938 237.003906 503.058594 C 232.714844 465.550781 143.234375 518.949219 128.613281 529.28125 C 113.675781 539.929688 69.015625 579.34375 64.726562 595.714844 C 56.140625 627.816406 148.164062 583.953125 164.53125 574.734375 Z M 616.050781 425.183594 C 624.15625 429.15625 636.554688 432.175781 645.453125 433.921875 C 666.910156 438.375 693.132812 440.597656 715.066406 439.484375 C 749.078125 437.738281 856.195312 420.730469 761.15625 392.601562 C 719.355469 380.207031 672.949219 379.25 630.039062 386.246094 C 597.617188 393.871094 589.988281 412.625 616.050781 425.183594 Z M 448.699219 207.449219 C 446.472656 208.085938 441.070312 206.335938 440.433594 203.953125 C 439.164062 199.820312 446.632812 131.003906 449.96875 118.128906 C 452.355469 108.910156 460.460938 89.523438 465.070312 80.78125 C 466.976562 77.125 485.890625 47.40625 487.320312 45.816406 C 500.667969 31.195312 499.558594 60.28125 498.445312 80.78125 C 496.695312 111.136719 490.019531 130.367188 476.988281 157.066406 C 474.128906 162.949219 451.558594 206.652344 448.699219 207.605469 Z M 489.703125 234.941406 C 506.390625 269.113281 558.519531 192.984375 566.785156 179.316406 C 576.796875 162.628906 589.511719 134.816406 594.597656 116.0625 C 596.820312 107.800781 601.113281 91.269531 599.363281 83.484375 C 594.753906 62.980469 568.375 89.839844 559.949219 97.785156 C 546.917969 110.183594 529.4375 131.640625 519.898438 146.738281 C 509.09375 163.582031 480.804688 216.824219 489.703125 234.941406 Z M 417.867188 557.886719 C 468.246094 553.597656 519.421875 516.089844 539.925781 470.160156 C 567.898438 407.222656 550.730469 335.863281 498.285156 291.839844 C 433.761719 237.644531 336.496094 247.976562 284.046875 313.773438 C 201.5625 417.394531 286.75 569.171875 417.867188 558.207031 Z M 417.867188 557.886719 " fill-opacity="1" fill-rule="nonzero"/></svg>