<svg xmlns="http://www.w3.org/2000/svg" xmlns:xlink="http://www.w3.org/1999/xlink" width="1080" zoomAndPan="magnify" viewBox="0 0 810 809.999993" height="1080" preserveAspectRatio="xMidYMid meet" version="1.0"><defs><clipPath id="1fb6093b00"><path d="M 398 13 L 457 13 L 457 54 L 398 54 Z M 398 13 " clip-rule="nonzero"/></clipPath><clipPath id="50f42f59dd"><path d="M 436.554688 -161.035156 L 851.9375 290.449219 L 400.453125 705.835938 L -14.929688 254.351562 Z M 436.554688 -161.035156 " clip-rule="nonzero"/></clipPath><clipPath id="3799edcef7"><path d="M 436.554688 -161.035156 L 851.9375 290.449219 L 400.453125 705.835938 L -14.929688 254.351562 Z M 436.554688 -161.035156 " clip-rule="nonzero"/></clipPath><clipPath id="1518f690f6"><path d="M 357 200 L 455 200 L 455 680 L 357 680 Z M 357 200 " clip-rule="nonzero"/></clipPath><clipPath id="f6193a1b36"><path d="M 436.554688 -161.035156 L 851.9375 290.449219 L 400.453125 705.835938 L -14.929688 254.351562 Z M 436.554688 -161.035156 " clip-rule="nonzero"/></clipPath><clipPath id="f9267fe128"><path d="M 436.554688 -161.035156 L 851.9375 290.449219 L 400.453125 705.835938 L -14.929688 254.351562 Z M 436.554688 -161.035156 " clip-rule="nonzero"/></clipPath><clipPath id="1a8ea84513"><path d="M 88 62 L 757 62 L 757 206 L 88 206 Z M 88 62 " clip-rule="nonzero"/></clipPath><clipPath id="7ad11a4cf3"><path d="M 436.554688 -161.035156 L 851.9375 290.449219 L 400.453125 705.835938 L -14.929688 254.351562 Z M 436.554688 -161.035156 " clip-rule="nonzero"/></clipPath><clipPath id="d2a3d55173"><path d="M 436.554688 -161.035156 L 851.9375 290.449219 L 400.453125 705.835938 L -14.929688 254.351562 Z M 436.554688 -161.035156 " clip-rule="nonzero"/></clipPath><clipPath id="dae2115578"><path d="M 189 191 L 448 191 L 448 792 L 189 792 Z M 189 191 " clip-rule="nonzero"/></clipPath><clipPath id="3bc671569e"><path d="M 338.015625 175.257812 L 647.289062 363.867188 L 375.113281 810.171875 L 65.839844 621.5625 Z M 338.015625 175.257812 " clip-rule="nonzero"/></clipPath><clipPath id="1bac05e549"><path d="M 338.015625 175.257812 L 967.453125 559.113281 L 665.207031 1054.722656 L 35.769531 670.867188 Z M 338.015625 175.257812 " clip-rule="nonzero"/></clipPath></defs><g clip-path="url(#1fb6093b00)"><g clip-path="url(#50f42f59dd)"><g clip-path="url(#3799edcef7)"><path fill="#fbc74c" d="M 398.886719 51.523438 L 456.566406 53.925781 L 456.707031 41.910156 C 456.824219 34.738281 454.046875 28.160156 449.414062 23.125 C 444.4375 17.714844 437.40625 14.191406 429.34375 13.855469 C 413.761719 13.207031 400.722656 24.683594 399.652344 39.621094 Z M 398.886719 51.523438 " fill-opacity="1" fill-rule="nonzero"/></g></g></g><g clip-path="url(#1518f690f6)"><g clip-path="url(#f6193a1b36)"><g clip-path="url(#f9267fe128)"><path fill="#fbc74c" d="M 449.402344 635.167969 L 454.664062 202.957031 L 388.210938 200.1875 L 357.609375 631.257812 C 355.746094 656.566406 375.566406 678.296875 401.539062 679.378906 C 427.511719 680.460938 449.160156 660.371094 449.402344 635.167969 Z M 449.402344 635.167969 " fill-opacity="1" fill-rule="nonzero"/></g></g></g><g clip-path="url(#1a8ea84513)"><g clip-path="url(#7ad11a4cf3)"><g clip-path="url(#d2a3d55173)"><path fill="#fbc74c" d="M 518.523438 169.085938 L 518.945312 158.957031 C 591.359375 156.203125 665.023438 173.359375 739.644531 205.71875 C 753.136719 208.128906 761.75 191.613281 752.070312 181.910156 C 668.140625 97.800781 564.574219 93.082031 521.59375 95.289062 L 521.683594 93.144531 C 522.230469 79.988281 512.011719 68.882812 498.859375 68.332031 L 355.402344 62.359375 C 342.246094 61.8125 331.136719 72.03125 330.589844 85.1875 L 330.5 87.332031 C 287.855469 81.558594 184.253906 77.648438 93.625 154.488281 C 83.167969 163.351562 90.378906 180.53125 104.023438 179.25 C 181.078125 153.207031 255.914062 142.234375 327.847656 151 L 327.425781 161.125 C 326.878906 174.28125 337.097656 185.390625 350.253906 185.9375 L 493.710938 191.914062 C 506.867188 192.460938 517.972656 182.242188 518.523438 169.085938 Z M 518.523438 169.085938 " fill-opacity="1" fill-rule="nonzero"/></g></g></g><g clip-path="url(#dae2115578)"><g clip-path="url(#3bc671569e)"><g clip-path="url(#1bac05e549)"><path fill="#fbc74c" d="M 349.46875 191.980469 C 366.351562 192.730469 381.144531 207.519531 381.761719 224.433594 C 382.570312 233.460938 378.511719 241.878906 373.90625 249.324219 C 349.257812 289.515625 324.710938 329.765625 300.210938 370.007812 C 285.59375 393.75 280.996094 423.355469 288.046875 450.359375 C 296.800781 485.953125 306.167969 521.417969 314.644531 557.085938 C 316.019531 562.410156 317.144531 567.855469 319.746094 572.78125 C 323.382812 578.707031 332.976562 579.632812 337.441406 574.125 C 342.109375 569.621094 340.183594 562.941406 338.996094 557.46875 C 331 525.171875 322.648438 492.957031 314.851562 460.605469 C 310.609375 444.492188 316.28125 426.628906 328.660156 415.5625 C 344.566406 400.542969 371.164062 399.855469 388.042969 413.65625 C 399.390625 421.925781 403.769531 435.828125 406.960938 448.835938 C 418.519531 491.445312 430.417969 533.949219 442.140625 576.507812 C 452.890625 615.351562 447.746094 658.628906 426.871094 693.253906 C 406.96875 726.113281 386.867188 758.851562 366.882812 791.667969 C 307.863281 755.707031 248.863281 719.695312 189.855469 683.710938 C 198.425781 667.28125 211.882812 652.679688 217.230469 634.996094 C 210.652344 575.261719 202.941406 515.609375 196.039062 455.90625 C 193.535156 433.027344 198.835938 410.050781 207.652344 389.019531 L 321.703125 202 C 329.742188 196.175781 339.1875 190.972656 349.46875 191.980469 Z M 349.46875 191.980469 " fill-opacity="1" fill-rule="nonzero"/></g></g></g></svg>