<svg xmlns="http://www.w3.org/2000/svg" xmlns:xlink="http://www.w3.org/1999/xlink" width="1080" zoomAndPan="magnify" viewBox="0 0 810 809.999993" height="1080" preserveAspectRatio="xMidYMid meet" version="1.0"><defs><clipPath id="cbef57866a"><path d="M 151 32 L 572 32 L 572 378 L 151 378 Z M 151 32 " clip-rule="nonzero"/></clipPath><clipPath id="1ed784a326"><path d="M 108.777344 97.378906 L 550.589844 -29.800781 L 642.703125 290.207031 L 200.894531 417.382812 Z M 108.777344 97.378906 " clip-rule="nonzero"/></clipPath><clipPath id="50d3a956c2"><path d="M 108.777344 97.378906 L 550.589844 -29.800781 L 642.703125 290.207031 L 200.894531 417.382812 Z M 108.777344 97.378906 " clip-rule="nonzero"/></clipPath><clipPath id="12796b7c8b"><path d="M 10 389 L 455 389 L 455 783 L 10 783 Z M 10 389 " clip-rule="nonzero"/></clipPath><clipPath id="0267e9b73d"><path d="M 329.484375 233.890625 L 587.871094 555.4375 L 165.769531 894.628906 L -92.617188 573.082031 Z M 329.484375 233.890625 " clip-rule="nonzero"/></clipPath><clipPath id="790bb6dd7f"><path d="M 329.484375 233.890625 L 587.871094 555.4375 L 165.769531 894.628906 L -92.617188 573.082031 Z M 329.484375 233.890625 " clip-rule="nonzero"/></clipPath><clipPath id="95d53e1726"><path d="M 453 201 L 791 201 L 791 645 L 453 645 Z M 453 201 " clip-rule="nonzero"/></clipPath><clipPath id="bdb81cc2af"><path d="M 437.5625 626.949219 L 489.464844 170.136719 L 820.335938 207.730469 L 768.433594 664.542969 Z M 437.5625 626.949219 " clip-rule="nonzero"/></clipPath><clipPath id="ee07fc0c90"><path d="M 768.539062 664.554688 L 820.441406 207.742188 L 489.570312 170.148438 L 437.667969 626.960938 Z M 768.539062 664.554688 " clip-rule="nonzero"/></clipPath></defs><g clip-path="url(#cbef57866a)"><g clip-path="url(#1ed784a326)"><g clip-path="url(#50d3a956c2)"><path fill="#fbc74c" d="M 308.617188 339.722656 C 308.035156 336.175781 302.605469 331.320312 300.382812 328.960938 C 290.632812 318.625 278.714844 310.925781 265.394531 306.007812 C 234.40625 294.566406 203.828125 289.5625 176.992188 268.449219 C 164.105469 258.300781 151.027344 243.855469 151.398438 226.332031 C 152.417969 178.183594 216.667969 188.625 243.191406 204.738281 C 298.636719 238.410156 347.460938 310.625 340.054688 377.464844 Z M 414.105469 301.390625 C 409.769531 299.148438 410.691406 290.484375 410.863281 286.808594 C 411.476562 273.601562 414.78125 260.570312 418.835938 248.039062 C 421.597656 239.503906 424.582031 230.90625 428.445312 222.789062 C 445.722656 186.4375 488.222656 134.8125 533.203125 161.21875 C 539.847656 165.117188 545.882812 170.339844 550.671875 176.378906 C 571.953125 203.203125 554.664062 225.582031 530.535156 241.277344 C 486.222656 270.105469 430.585938 297.8125 408.121094 348.859375 Z M 336.742188 252.777344 C 331.824219 251.492188 327.839844 242.628906 325.789062 238.882812 C 318.542969 225.710938 313.472656 211.472656 309.324219 197.058594 C 297.390625 155.605469 292.851562 107.628906 314.703125 68.433594 C 328.238281 44.136719 354.660156 26.652344 383.148438 33.640625 C 418.152344 42.230469 427.890625 79.699219 420.296875 110.929688 C 413.925781 137.152344 399.007812 160.585938 386.625 184.238281 C 369.597656 216.742188 355.230469 251.523438 355.5 288.765625 Z M 439.09375 140.890625 C 436.171875 131.0625 447.3125 115.8125 451.9375 108.359375 C 468.210938 82.109375 492.496094 51.78125 523.355469 42.359375 C 537.195312 38.132812 561.285156 35.015625 569.453125 51.027344 C 578.800781 69.335938 550.203125 89.90625 538.40625 99.105469 C 506.417969 124.035156 470.472656 143.867188 441.640625 172.765625 C 431.8125 182.617188 419.601562 194.628906 413.332031 207.363281 Z M 439.09375 140.890625 " fill-opacity="1" fill-rule="evenodd"/></g></g></g><g clip-path="url(#12796b7c8b)"><g clip-path="url(#0267e9b73d)"><g clip-path="url(#790bb6dd7f)"><path fill="#fbc74c" d="M 454.449219 389.398438 L 376.804688 649.183594 C 347.25 748.0625 243.136719 804.242188 144.261719 774.691406 C 45.382812 745.136719 -10.800781 641.023438 18.753906 542.148438 C 41.554688 465.878906 109.144531 415.007812 184.054688 409.316406 Z M 454.449219 389.398438 " fill-opacity="1" fill-rule="nonzero"/></g></g></g><g clip-path="url(#95d53e1726)"><g clip-path="url(#bdb81cc2af)"><g clip-path="url(#ee07fc0c90)"><path fill="#fbc74c" d="M 496.328125 507.820312 C 499.917969 507.800781 505.613281 512.347656 508.304688 514.148438 C 520.121094 522.042969 529.695312 532.511719 536.761719 544.828125 C 553.199219 573.480469 563.222656 602.800781 588.503906 625.75 C 600.65625 636.769531 617.074219 647.265625 634.292969 643.984375 C 681.597656 634.96875 660.617188 573.347656 640.316406 549.875 C 597.886719 500.804688 518.554688 464.675781 453.878906 483.097656 Z M 516.574219 397.425781 C 519.507812 401.324219 527.894531 398.976562 531.492188 398.191406 C 544.414062 395.394531 556.710938 389.964844 568.394531 383.882812 C 576.351562 379.742188 584.332031 375.363281 591.695312 370.207031 C 624.664062 347.121094 668.5 296.625 634.976562 256.667969 C 630.027344 250.765625 623.875 245.679688 617.125 241.960938 C 587.132812 225.4375 567.941406 246.210938 556.480469 272.613281 C 535.425781 321.105469 517.359375 380.578125 470.761719 411.222656 Z M 577.378906 465.621094 C 579.464844 470.257812 588.867188 472.707031 592.902344 474.109375 C 607.097656 479.0625 621.980469 481.695312 636.886719 483.386719 C 679.742188 488.257812 727.804688 484.75 762.820312 456.683594 C 784.527344 439.292969 797.371094 410.332031 785.742188 383.402344 C 771.449219 350.316406 732.882812 346.949219 703.347656 359.628906 C 678.554688 370.277344 657.929688 388.882812 636.667969 405.027344 C 607.445312 427.230469 575.539062 447.183594 538.773438 453.113281 Z M 670.679688 346.082031 C 680.859375 347.328125 694.042969 333.804688 700.621094 328.003906 C 723.796875 307.589844 749.660156 278.597656 753.820312 246.597656 C 755.683594 232.253906 754.75 207.980469 737.605469 202.589844 C 717.992188 196.417969 702.46875 228.039062 695.359375 241.199219 C 676.097656 276.890625 662.523438 315.632812 638.824219 348.871094 C 630.746094 360.203125 620.933594 374.242188 609.417969 382.542969 Z M 670.679688 346.082031 " fill-opacity="1" fill-rule="evenodd"/></g></g></g></svg>