<svg xmlns="http://www.w3.org/2000/svg" xmlns:xlink="http://www.w3.org/1999/xlink" width="1080" zoomAndPan="magnify" viewBox="0 0 810 809.999993" height="1080" preserveAspectRatio="xMidYMid meet" version="1.0"><defs><clipPath id="0ca75336f2"><path d="M 130 303.105469 L 732 303.105469 L 732 809 L 130 809 Z M 130 303.105469 " clip-rule="nonzero"/></clipPath><clipPath id="b915bb97f1"><path d="M 554 303 L 632 303 L 632 376.5 L 554 376.5 Z M 554 303 " clip-rule="nonzero"/></clipPath></defs><g clip-path="url(#0ca75336f2)"><path fill="#fbc74c" d="M 695.878906 552.734375 L 628.65625 552.734375 C 628.65625 415.253906 517.210938 303.808594 379.730469 303.808594 C 243.949219 303.808594 133.558594 412.527344 130.859375 547.652344 C 128.0625 687.328125 259.109375 808.617188 398.804688 808.617188 L 416.375 808.617188 C 539.535156 808.617188 704.605469 712.210938 730.394531 594.742188 C 735.160156 573.089844 718.054688 552.734375 695.878906 552.734375 Z M 279.835938 558.859375 C 279.835938 577.242188 264.796875 592.28125 246.414062 592.28125 C 228.027344 592.28125 212.992188 577.238281 212.992188 558.859375 L 212.992188 504.792969 C 212.992188 486.40625 228.027344 471.371094 246.414062 471.371094 C 264.796875 471.371094 279.835938 486.40625 279.835938 504.792969 Z M 395.886719 558.859375 C 395.886719 577.242188 380.851562 592.28125 362.46875 592.28125 C 344.082031 592.28125 329.046875 577.238281 329.046875 558.859375 L 329.046875 504.792969 C 329.046875 486.40625 344.089844 471.371094 362.46875 471.371094 C 380.851562 471.371094 395.886719 486.40625 395.886719 504.792969 Z M 395.886719 558.859375 " fill-opacity="1" fill-rule="nonzero"/></g><path fill="#fbc74c" d="M 466.777344 371.105469 C 443.746094 365.84375 341.757812 345.445312 264.773438 370.449219 C 261.484375 371.765625 258.191406 369.132812 258.191406 366.5 C 256.21875 343.472656 245.691406 263.855469 206.210938 253.328125 C 206.210938 253.328125 170.023438 238.191406 157.519531 264.511719 C 154.230469 271.09375 153.574219 278.332031 154.886719 284.910156 C 156.203125 292.148438 158.835938 300.703125 166.074219 303.335938 L 141.070312 320.441406 C 141.070312 320.441406 140.414062 319.785156 138.4375 318.46875 C 81.851562 276.355469 90.40625 192.132812 155.546875 161.867188 C 188.445312 146.730469 235.164062 144.101562 296.355469 186.871094 C 296.355469 186.871094 290.433594 18.421875 405.582031 1.972656 C 417.425781 0 429.269531 0.65625 441.113281 3.289062 C 466.117188 8.554688 510.203125 24.34375 515.46875 64.484375 L 489.804688 64.484375 C 489.804688 64.484375 485.199219 50.664062 465.460938 48.035156 C 445.0625 45.402344 425.980469 56.585938 418.085938 74.351562 C 410.847656 90.144531 406.898438 114.492188 417.425781 150.679688 C 418.085938 152.652344 418.085938 153.96875 418.742188 155.945312 C 420.058594 161.867188 424.664062 178.972656 437.824219 204.636719 C 437.824219 204.636719 549.023438 120.414062 620.746094 197.398438 C 621.402344 198.054688 622.0625 198.714844 622.71875 199.371094 C 629.957031 205.953125 687.203125 265.171875 622.0625 321.757812 L 602.980469 304.648438 C 602.980469 304.648438 623.378906 273.722656 593.109375 265.171875 C 591.792969 265.171875 591.136719 264.511719 589.820312 263.855469 C 581.925781 260.566406 541.128906 248.722656 512.175781 298.726562 L 475.988281 366.5 C 472.699219 370.449219 470.066406 371.765625 466.777344 371.105469 " fill-opacity="1" fill-rule="nonzero"/><path fill="#fbc74c" d="M 134.492188 335.574219 C 134.492188 315.179688 152.257812 299.386719 173.3125 299.386719 C 194.367188 299.386719 212.132812 315.835938 212.132812 335.574219 C 212.132812 355.972656 194.367188 371.765625 173.3125 371.765625 C 152.257812 371.765625 134.492188 355.972656 134.492188 335.574219 " fill-opacity="1" fill-rule="nonzero"/><g clip-path="url(#b915bb97f1)"><path fill="#fbc74c" d="M 554.289062 340.179688 C 554.289062 319.785156 572.054688 303.992188 593.109375 303.992188 C 614.824219 303.992188 631.933594 320.441406 631.933594 340.179688 C 631.933594 359.921875 614.167969 376.371094 593.109375 376.371094 C 572.054688 376.371094 554.289062 360.578125 554.289062 340.179688 " fill-opacity="1" fill-rule="nonzero"/></g><path fill="#fbc74c" d="M 462.171875 96.726562 C 462.171875 76.328125 479.9375 60.535156 500.992188 60.535156 C 522.707031 60.535156 539.8125 76.984375 539.8125 96.726562 C 539.8125 117.121094 522.046875 132.914062 500.992188 132.914062 C 479.9375 133.570312 462.171875 117.121094 462.171875 96.726562 " fill-opacity="1" fill-rule="nonzero"/></svg>