<svg xmlns="http://www.w3.org/2000/svg" xmlns:xlink="http://www.w3.org/1999/xlink" width="1080" zoomAndPan="magnify" viewBox="0 0 810 809.999993" height="1080" preserveAspectRatio="xMidYMid meet" version="1.0"><defs><clipPath id="7bc65a5767"><path d="M 25 37.734375 L 785 37.734375 L 785 743.484375 L 25 743.484375 Z M 25 37.734375 " clip-rule="nonzero"/></clipPath><clipPath id="eb12bfd2bd"><path d="M 174 282.320312 L 636 282.320312 L 636 580.820312 L 174 580.820312 Z M 174 282.320312 " clip-rule="nonzero"/></clipPath></defs><g clip-path="url(#7bc65a5767)"><path fill="#fbc74c" d="M 773.707031 249.304688 C 763.820312 292.289062 735.804688 328.785156 697.953125 351.433594 C 661.785156 373.074219 606.726562 393.453125 546.691406 370.953125 C 605.125 390.382812 658.722656 369.984375 694.3125 348.53125 C 732.578125 325.464844 761.042969 288.519531 771.296875 245.175781 C 779.136719 212.042969 775.382812 181.546875 765.472656 154.496094 C 776.824219 182.585938 781.710938 214.523438 773.707031 249.304688 Z M 263.375 370.953125 C 203.339844 393.453125 148.28125 373.074219 112.113281 351.433594 C 74.269531 328.785156 46.25 292.289062 36.363281 249.304688 C 28.363281 214.523438 33.242188 182.585938 44.59375 154.496094 C 34.6875 181.546875 30.929688 212.042969 38.773438 245.175781 C 49.027344 288.519531 77.492188 325.464844 115.757812 348.53125 C 151.351562 369.984375 204.949219 390.382812 263.375 370.953125 Z M 664.015625 37.878906 C 758.859375 158.894531 713.726562 210.566406 684.292969 205.988281 C 654.855469 201.410156 688.21875 139.269531 688.21875 139.269531 L 626.074219 172.628906 C 585.519531 153.003906 618.878906 115.722656 618.878906 115.722656 L 556.082031 117.027344 L 631.960938 102.636719 L 524.6875 107.871094 L 518.796875 183.09375 L 548.234375 188.980469 C 572.433594 207.953125 549.539062 215.148438 549.539062 215.148438 L 550.40625 232.402344 C 525.582031 257.792969 465.347656 319.738281 405.035156 384.300781 C 344.71875 319.738281 284.484375 257.792969 259.664062 232.402344 L 260.527344 215.148438 C 260.527344 215.148438 237.632812 207.953125 261.832031 188.980469 L 291.269531 183.09375 L 285.382812 107.871094 L 178.105469 102.636719 L 253.984375 117.027344 L 191.191406 115.722656 C 191.191406 115.722656 224.546875 153.003906 183.996094 172.628906 L 121.851562 139.269531 C 121.851562 139.269531 155.210938 201.410156 125.777344 205.988281 C 96.34375 210.566406 51.207031 158.894531 146.054688 37.878906 C 146.054688 37.878906 0.0195312 127.601562 29.574219 256.089844 C 39.464844 299.074219 67.480469 335.570312 105.328125 358.214844 C 145.667969 382.351562 209.5 404.964844 277.53125 368.210938 C 277.53125 368.210938 231.746094 373.445312 217.351562 339.429688 C 202.964844 305.414062 202.964844 305.414062 202.964844 305.414062 C 202.964844 305.414062 161.441406 274.964844 210.84375 274.167969 C 273.066406 316.355469 329.394531 367.125 376.308594 415.257812 C 324.667969 471.328125 277.214844 525.285156 257.117188 554.882812 L 230.136719 567.152344 L 232.589844 579.414062 L 169.789062 663.796875 L 161.941406 671.648438 L 170.773438 743.273438 L 236.511719 734.441406 C 236.511719 734.441406 223.757812 686.363281 274.777344 615.714844 L 281.644531 624.546875 L 292.441406 584.320312 C 292.441406 584.320312 335.125 521.707031 405.035156 445.625 C 474.949219 521.707031 517.628906 584.320312 517.628906 584.320312 L 528.421875 624.546875 L 535.289062 615.714844 C 586.3125 686.363281 573.558594 734.441406 573.558594 734.441406 L 639.296875 743.273438 L 648.125 671.648438 L 640.277344 663.796875 L 577.484375 579.414062 L 579.9375 567.152344 L 552.953125 554.882812 C 532.855469 525.285156 485.402344 471.328125 433.761719 415.257812 C 480.671875 367.125 537.003906 316.355469 599.226562 274.167969 C 648.625 274.964844 607.105469 305.414062 607.105469 305.414062 C 607.105469 305.414062 607.105469 305.414062 592.714844 339.429688 C 578.324219 373.445312 532.535156 368.210938 532.535156 368.210938 C 600.570312 404.964844 664.402344 382.351562 704.742188 358.214844 C 742.585938 335.570312 770.601562 299.074219 780.492188 256.089844 C 810.050781 127.601562 664.015625 37.878906 664.015625 37.878906 " fill-opacity="1" fill-rule="nonzero"/></g><g clip-path="url(#eb12bfd2bd)"><path fill="#fbc74c" d="M 635.917969 431.742188 C 635.917969 514.261719 569.019531 581.160156 486.496094 581.160156 L 323.492188 581.160156 C 240.972656 581.160156 174.074219 514.261719 174.074219 431.742188 C 174.074219 349.21875 240.972656 282.320312 323.492188 282.320312 L 486.496094 282.320312 C 569.019531 282.320312 635.917969 349.21875 635.917969 431.742188 Z M 635.917969 431.742188 " fill-opacity="1" fill-rule="nonzero"/></g><path fill="#d8833d" d="M 350.660156 431.742188 C 350.660156 433.074219 350.640625 434.40625 350.59375 435.738281 C 350.550781 437.070312 350.488281 438.402344 350.398438 439.730469 C 350.3125 441.054688 350.203125 442.378906 350.074219 443.699219 C 349.941406 445.019531 349.789062 446.332031 349.617188 447.640625 C 349.441406 448.949219 349.25 450.25 349.03125 451.542969 C 348.816406 452.835938 348.578125 454.121094 348.320312 455.398438 C 348.0625 456.675781 347.785156 457.941406 347.484375 459.199219 C 347.183594 460.453125 346.863281 461.699219 346.523438 462.929688 C 346.183594 464.160156 345.824219 465.382812 345.445312 466.585938 C 345.0625 467.792969 344.664062 468.984375 344.246094 470.160156 C 343.824219 471.335938 343.386719 472.496094 342.929688 473.640625 C 342.472656 474.785156 341.996094 475.910156 341.503906 477.019531 C 341.011719 478.128906 340.496094 479.21875 339.96875 480.289062 C 339.4375 481.363281 338.890625 482.414062 338.328125 483.445312 C 337.761719 484.476562 337.183594 485.484375 336.585938 486.472656 C 335.988281 487.460938 335.375 488.425781 334.746094 489.371094 C 334.117188 490.3125 333.472656 491.234375 332.816406 492.128906 C 332.15625 493.023438 331.484375 493.894531 330.796875 494.742188 C 330.109375 495.589844 329.40625 496.410156 328.695312 497.203125 C 327.980469 497.996094 327.253906 498.765625 326.511719 499.507812 C 325.773438 500.246094 325.023438 500.960938 324.261719 501.648438 C 323.496094 502.332031 322.722656 502.988281 321.941406 503.617188 C 321.15625 504.246094 320.359375 504.847656 319.558594 505.417969 C 318.753906 505.988281 317.941406 506.527344 317.121094 507.039062 C 316.296875 507.546875 315.46875 508.027344 314.632812 508.476562 C 313.792969 508.925781 312.949219 509.34375 312.097656 509.734375 C 311.246094 510.121094 310.390625 510.476562 309.527344 510.800781 C 308.664062 511.125 307.796875 511.414062 306.925781 511.675781 C 306.054688 511.9375 305.179688 512.164062 304.300781 512.359375 C 303.417969 512.554688 302.535156 512.71875 301.652344 512.847656 C 300.765625 512.980469 299.878906 513.078125 298.992188 513.144531 C 298.105469 513.210938 297.214844 513.242188 296.328125 513.242188 C 295.4375 513.242188 294.546875 513.210938 293.660156 513.144531 C 292.773438 513.078125 291.886719 512.980469 291 512.847656 C 290.117188 512.71875 289.234375 512.554688 288.355469 512.359375 C 287.472656 512.164062 286.597656 511.9375 285.726562 511.675781 C 284.855469 511.414062 283.988281 511.125 283.125 510.800781 C 282.261719 510.476562 281.40625 510.121094 280.554688 509.734375 C 279.703125 509.34375 278.859375 508.925781 278.023438 508.476562 C 277.183594 508.027344 276.355469 507.546875 275.535156 507.039062 C 274.710938 506.527344 273.898438 505.988281 273.09375 505.417969 C 272.292969 504.847656 271.496094 504.246094 270.714844 503.617188 C 269.929688 502.988281 269.15625 502.332031 268.394531 501.648438 C 267.628906 500.960938 266.878906 500.246094 266.140625 499.507812 C 265.398438 498.765625 264.671875 497.996094 263.960938 497.203125 C 263.246094 496.410156 262.542969 495.589844 261.855469 494.742188 C 261.167969 493.894531 260.496094 493.023438 259.835938 492.128906 C 259.179688 491.234375 258.535156 490.3125 257.90625 489.371094 C 257.277344 488.425781 256.664062 487.460938 256.066406 486.472656 C 255.46875 485.484375 254.890625 484.476562 254.324219 483.445312 C 253.761719 482.414062 253.214844 481.363281 252.683594 480.289062 C 252.15625 479.21875 251.644531 478.128906 251.148438 477.019531 C 250.65625 475.910156 250.179688 474.785156 249.722656 473.640625 C 249.265625 472.496094 248.828125 471.335938 248.40625 470.160156 C 247.988281 468.984375 247.589844 467.792969 247.207031 466.585938 C 246.828125 465.382812 246.46875 464.160156 246.128906 462.929688 C 245.789062 461.699219 245.46875 460.453125 245.167969 459.199219 C 244.867188 457.941406 244.589844 456.675781 244.332031 455.398438 C 244.074219 454.121094 243.835938 452.835938 243.621094 451.542969 C 243.402344 450.25 243.210938 448.949219 243.035156 447.640625 C 242.863281 446.332031 242.710938 445.019531 242.578125 443.699219 C 242.449219 442.378906 242.339844 441.054688 242.253906 439.730469 C 242.167969 438.402344 242.101562 437.070312 242.058594 435.738281 C 242.011719 434.40625 241.992188 433.074219 241.992188 431.742188 C 241.992188 430.40625 242.011719 429.074219 242.058594 427.742188 C 242.101562 426.410156 242.167969 425.078125 242.253906 423.75 C 242.339844 422.425781 242.449219 421.101562 242.578125 419.78125 C 242.710938 418.460938 242.863281 417.148438 243.035156 415.839844 C 243.210938 414.53125 243.402344 413.230469 243.621094 411.9375 C 243.835938 410.644531 244.074219 409.359375 244.332031 408.082031 C 244.589844 406.804688 244.867188 405.539062 245.167969 404.28125 C 245.46875 403.027344 245.789062 401.78125 246.128906 400.550781 C 246.46875 399.320312 246.828125 398.097656 247.207031 396.894531 C 247.589844 395.6875 247.988281 394.496094 248.40625 393.320312 C 248.828125 392.144531 249.265625 390.984375 249.722656 389.839844 C 250.179688 388.695312 250.65625 387.570312 251.148438 386.460938 C 251.644531 385.351562 252.15625 384.261719 252.683594 383.191406 C 253.214844 382.117188 253.761719 381.066406 254.324219 380.035156 C 254.890625 379.003906 255.46875 377.996094 256.066406 377.007812 C 256.664062 376.019531 257.277344 375.054688 257.90625 374.109375 C 258.535156 373.167969 259.179688 372.246094 259.835938 371.351562 C 260.496094 370.457031 261.167969 369.585938 261.855469 368.738281 C 262.542969 367.890625 263.246094 367.070312 263.960938 366.277344 C 264.671875 365.484375 265.398438 364.714844 266.140625 363.972656 C 266.878906 363.234375 267.628906 362.519531 268.394531 361.832031 C 269.15625 361.148438 269.929688 360.492188 270.714844 359.863281 C 271.496094 359.234375 272.292969 358.632812 273.09375 358.0625 C 273.898438 357.492188 274.710938 356.953125 275.535156 356.441406 C 276.355469 355.933594 277.183594 355.453125 278.023438 355.003906 C 278.859375 354.554688 279.703125 354.136719 280.554688 353.746094 C 281.40625 353.359375 282.261719 353.003906 283.125 352.679688 C 283.988281 352.355469 284.855469 352.066406 285.726562 351.804688 C 286.597656 351.542969 287.472656 351.316406 288.355469 351.121094 C 289.234375 350.925781 290.117188 350.761719 291 350.632812 C 291.886719 350.5 292.773438 350.402344 293.660156 350.335938 C 294.546875 350.269531 295.4375 350.238281 296.328125 350.238281 C 297.214844 350.238281 298.105469 350.269531 298.992188 350.335938 C 299.878906 350.402344 300.765625 350.5 301.652344 350.632812 C 302.535156 350.761719 303.417969 350.925781 304.300781 351.121094 C 305.179688 351.316406 306.054688 351.542969 306.925781 351.804688 C 307.796875 352.066406 308.664062 352.355469 309.527344 352.679688 C 310.390625 353.003906 311.246094 353.359375 312.097656 353.746094 C 312.949219 354.136719 313.792969 354.554688 314.632812 355.003906 C 315.46875 355.453125 316.296875 355.933594 317.121094 356.441406 C 317.941406 356.953125 318.753906 357.492188 319.558594 358.0625 C 320.359375 358.632812 321.15625 359.234375 321.9375 359.863281 C 322.722656 360.492188 323.496094 361.148438 324.261719 361.832031 C 325.023438 362.519531 325.773438 363.234375 326.511719 363.972656 C 327.253906 364.714844 327.980469 365.484375 328.695312 366.277344 C 329.40625 367.070312 330.109375 367.890625 330.796875 368.738281 C 331.484375 369.585938 332.15625 370.457031 332.816406 371.351562 C 333.472656 372.246094 334.117188 373.167969 334.746094 374.109375 C 335.375 375.054688 335.988281 376.019531 336.585938 377.007812 C 337.183594 377.996094 337.761719 379.003906 338.328125 380.035156 C 338.890625 381.066406 339.4375 382.117188 339.96875 383.191406 C 340.496094 384.261719 341.011719 385.351562 341.503906 386.460938 C 341.996094 387.570312 342.472656 388.695312 342.929688 389.839844 C 343.386719 390.984375 343.824219 392.144531 344.246094 393.320312 C 344.664062 394.496094 345.0625 395.6875 345.445312 396.894531 C 345.824219 398.097656 346.183594 399.320312 346.523438 400.550781 C 346.863281 401.785156 347.183594 403.027344 347.484375 404.28125 C 347.785156 405.539062 348.0625 406.804688 348.320312 408.082031 C 348.578125 409.359375 348.816406 410.644531 349.03125 411.9375 C 349.25 413.230469 349.441406 414.53125 349.617188 415.839844 C 349.789062 417.148438 349.941406 418.460938 350.074219 419.78125 C 350.203125 421.101562 350.3125 422.425781 350.398438 423.75 C 350.488281 425.078125 350.550781 426.410156 350.59375 427.742188 C 350.640625 429.074219 350.660156 430.40625 350.660156 431.742188 Z M 350.660156 431.742188 " fill-opacity="1" fill-rule="nonzero"/><path fill="#d8833d" d="M 568 431.742188 C 568 433.074219 567.976562 434.40625 567.933594 435.738281 C 567.890625 437.070312 567.824219 438.402344 567.738281 439.730469 C 567.648438 441.054688 567.542969 442.378906 567.410156 443.699219 C 567.28125 445.019531 567.128906 446.332031 566.953125 447.640625 C 566.78125 448.949219 566.585938 450.25 566.371094 451.542969 C 566.15625 452.835938 565.917969 454.121094 565.660156 455.398438 C 565.402344 456.675781 565.121094 457.941406 564.824219 459.199219 C 564.523438 460.453125 564.203125 461.699219 563.863281 462.929688 C 563.523438 464.160156 563.164062 465.382812 562.78125 466.585938 C 562.402344 467.792969 562.003906 468.984375 561.582031 470.160156 C 561.164062 471.335938 560.726562 472.496094 560.269531 473.640625 C 559.8125 474.785156 559.335938 475.910156 558.84375 477.019531 C 558.347656 478.128906 557.835938 479.21875 557.304688 480.289062 C 556.777344 481.363281 556.230469 482.414062 555.664062 483.445312 C 555.101562 484.476562 554.519531 485.484375 553.921875 486.472656 C 553.328125 487.460938 552.714844 488.425781 552.085938 489.371094 C 551.457031 490.3125 550.8125 491.234375 550.152344 492.128906 C 549.496094 493.023438 548.820312 493.894531 548.132812 494.742188 C 547.445312 495.589844 546.746094 496.410156 546.03125 497.203125 C 545.316406 497.996094 544.589844 498.765625 543.851562 499.507812 C 543.113281 500.246094 542.359375 500.960938 541.597656 501.648438 C 540.835938 502.332031 540.0625 502.988281 539.277344 503.617188 C 538.492188 504.246094 537.699219 504.847656 536.894531 505.417969 C 536.089844 505.988281 535.277344 506.527344 534.457031 507.039062 C 533.636719 507.546875 532.804688 508.027344 531.96875 508.476562 C 531.132812 508.925781 530.289062 509.34375 529.4375 509.734375 C 528.585938 510.121094 527.730469 510.476562 526.867188 510.800781 C 526.003906 511.125 525.136719 511.414062 524.265625 511.675781 C 523.390625 511.9375 522.515625 512.164062 521.636719 512.359375 C 520.757812 512.554688 519.875 512.71875 518.988281 512.847656 C 518.105469 512.980469 517.21875 513.078125 516.332031 513.144531 C 515.441406 513.210938 514.554688 513.242188 513.664062 513.242188 C 512.773438 513.242188 511.886719 513.210938 511 513.144531 C 510.109375 513.078125 509.222656 512.980469 508.339844 512.847656 C 507.453125 512.71875 506.570312 512.554688 505.691406 512.359375 C 504.8125 512.164062 503.9375 511.9375 503.0625 511.675781 C 502.191406 511.414062 501.324219 511.125 500.460938 510.800781 C 499.597656 510.476562 498.742188 510.121094 497.890625 509.734375 C 497.039062 509.34375 496.195312 508.925781 495.359375 508.476562 C 494.523438 508.027344 493.691406 507.546875 492.871094 507.039062 C 492.050781 506.527344 491.238281 505.988281 490.433594 505.417969 C 489.628906 504.847656 488.835938 504.246094 488.050781 503.617188 C 487.265625 502.988281 486.492188 502.332031 485.730469 501.648438 C 484.96875 500.960938 484.21875 500.246094 483.476562 499.507812 C 482.738281 498.765625 482.011719 497.996094 481.296875 497.203125 C 480.582031 496.410156 479.882812 495.589844 479.195312 494.742188 C 478.507812 493.894531 477.835938 493.023438 477.175781 492.128906 C 476.515625 491.234375 475.871094 490.3125 475.242188 489.371094 C 474.617188 488.425781 474.003906 487.460938 473.40625 486.472656 C 472.808594 485.484375 472.226562 484.476562 471.664062 483.445312 C 471.097656 482.414062 470.550781 481.363281 470.023438 480.289062 C 469.492188 479.21875 468.980469 478.128906 468.488281 477.019531 C 467.992188 475.910156 467.515625 474.785156 467.058594 473.640625 C 466.601562 472.496094 466.164062 471.335938 465.746094 470.160156 C 465.328125 468.984375 464.925781 467.792969 464.546875 466.585938 C 464.167969 465.382812 463.804688 464.160156 463.464844 462.929688 C 463.125 461.699219 462.804688 460.453125 462.507812 459.199219 C 462.207031 457.941406 461.925781 456.675781 461.667969 455.398438 C 461.410156 454.121094 461.175781 452.835938 460.957031 451.542969 C 460.742188 450.25 460.546875 448.949219 460.375 447.640625 C 460.199219 446.332031 460.046875 445.019531 459.917969 443.699219 C 459.789062 442.378906 459.679688 441.054688 459.589844 439.730469 C 459.503906 438.402344 459.4375 437.070312 459.394531 435.738281 C 459.351562 434.40625 459.328125 433.074219 459.328125 431.742188 C 459.328125 430.40625 459.351562 429.074219 459.394531 427.742188 C 459.4375 426.410156 459.503906 425.078125 459.589844 423.75 C 459.679688 422.425781 459.789062 421.101562 459.917969 419.78125 C 460.046875 418.460938 460.199219 417.148438 460.375 415.839844 C 460.546875 414.53125 460.742188 413.230469 460.957031 411.9375 C 461.175781 410.644531 461.410156 409.359375 461.667969 408.082031 C 461.925781 406.804688 462.207031 405.539062 462.507812 404.28125 C 462.804688 403.027344 463.125 401.78125 463.464844 400.550781 C 463.804688 399.320312 464.167969 398.097656 464.546875 396.894531 C 464.925781 395.6875 465.328125 394.496094 465.746094 393.320312 C 466.164062 392.144531 466.601562 390.984375 467.058594 389.839844 C 467.515625 388.695312 467.992188 387.570312 468.488281 386.460938 C 468.980469 385.351562 469.492188 384.261719 470.023438 383.191406 C 470.550781 382.117188 471.097656 381.066406 471.664062 380.035156 C 472.226562 379.003906 472.808594 377.996094 473.40625 377.007812 C 474.003906 376.019531 474.617188 375.054688 475.242188 374.109375 C 475.871094 373.167969 476.515625 372.246094 477.175781 371.351562 C 477.835938 370.457031 478.507812 369.585938 479.195312 368.738281 C 479.882812 367.890625 480.582031 367.070312 481.296875 366.277344 C 482.011719 365.484375 482.738281 364.714844 483.476562 363.972656 C 484.21875 363.234375 484.96875 362.519531 485.730469 361.832031 C 486.492188 361.148438 487.265625 360.492188 488.050781 359.863281 C 488.835938 359.234375 489.628906 358.632812 490.433594 358.0625 C 491.238281 357.492188 492.050781 356.953125 492.871094 356.441406 C 493.691406 355.933594 494.523438 355.453125 495.359375 355.003906 C 496.195312 354.554688 497.039062 354.136719 497.890625 353.746094 C 498.742188 353.359375 499.597656 353.003906 500.460938 352.679688 C 501.324219 352.355469 502.191406 352.066406 503.0625 351.804688 C 503.9375 351.542969 504.8125 351.316406 505.691406 351.121094 C 506.570312 350.925781 507.453125 350.761719 508.339844 350.632812 C 509.222656 350.5 510.109375 350.402344 511 350.335938 C 511.886719 350.269531 512.773438 350.238281 513.664062 350.238281 C 514.554688 350.238281 515.441406 350.269531 516.332031 350.335938 C 517.21875 350.402344 518.105469 350.5 518.988281 350.632812 C 519.875 350.761719 520.757812 350.925781 521.636719 351.121094 C 522.515625 351.316406 523.390625 351.542969 524.265625 351.804688 C 525.136719 352.066406 526.003906 352.355469 526.867188 352.679688 C 527.730469 353.003906 528.585938 353.359375 529.4375 353.746094 C 530.289062 354.136719 531.132812 354.554688 531.96875 355.003906 C 532.804688 355.453125 533.636719 355.933594 534.457031 356.441406 C 535.277344 356.953125 536.089844 357.492188 536.894531 358.0625 C 537.699219 358.632812 538.492188 359.234375 539.277344 359.863281 C 540.0625 360.492188 540.835938 361.148438 541.597656 361.832031 C 542.359375 362.519531 543.113281 363.234375 543.851562 363.972656 C 544.589844 364.714844 545.316406 365.484375 546.03125 366.277344 C 546.746094 367.070312 547.445312 367.890625 548.132812 368.738281 C 548.820312 369.585938 549.496094 370.457031 550.152344 371.351562 C 550.8125 372.246094 551.457031 373.167969 552.085938 374.109375 C 552.714844 375.054688 553.328125 376.019531 553.921875 377.007812 C 554.519531 377.996094 555.101562 379.003906 555.664062 380.035156 C 556.230469 381.066406 556.777344 382.117188 557.304688 383.191406 C 557.835938 384.261719 558.347656 385.351562 558.84375 386.460938 C 559.335938 387.570312 559.8125 388.695312 560.269531 389.839844 C 560.726562 390.984375 561.164062 392.144531 561.582031 393.320312 C 562.003906 394.496094 562.402344 395.6875 562.78125 396.894531 C 563.164062 398.097656 563.523438 399.320312 563.863281 400.550781 C 564.203125 401.785156 564.523438 403.027344 564.824219 404.28125 C 565.121094 405.539062 565.402344 406.804688 565.660156 408.082031 C 565.917969 409.359375 566.15625 410.644531 566.371094 411.9375 C 566.585938 413.230469 566.78125 414.53125 566.953125 415.839844 C 567.128906 417.148438 567.28125 418.460938 567.410156 419.78125 C 567.542969 421.101562 567.648438 422.425781 567.738281 423.75 C 567.824219 425.078125 567.890625 426.410156 567.933594 427.742188 C 567.976562 429.074219 568 430.40625 568 431.742188 Z M 568 431.742188 " fill-opacity="1" fill-rule="nonzero"/></svg>