<svg xmlns="http://www.w3.org/2000/svg" xmlns:xlink="http://www.w3.org/1999/xlink" width="1080" zoomAndPan="magnify" viewBox="0 0 810 809.999993" height="1080" preserveAspectRatio="xMidYMid meet" version="1.0"><defs><clipPath id="545a9338a7"><path d="M 408 603 L 693.75 603 L 693.75 788 L 408 788 Z M 408 603 " clip-rule="nonzero"/></clipPath><clipPath id="2601503847"><path d="M 318 433.46875 L 457 433.46875 L 457 773 L 318 773 Z M 318 433.46875 " clip-rule="nonzero"/></clipPath><clipPath id="7c920c6e15"><path d="M 405 66 L 621 66 L 621 584.3125 L 405 584.3125 Z M 405 66 " clip-rule="nonzero"/></clipPath><clipPath id="d65ea8d309"><path d="M 152 66 L 367.863281 66 L 367.863281 584.3125 L 152 584.3125 Z M 152 66 " clip-rule="nonzero"/></clipPath></defs><g clip-path="url(#545a9338a7)"><path fill="#fbc74c" d="M 693.816406 610.535156 C 676.578125 671.832031 636.988281 722.804688 581.492188 754.839844 C 528.28125 785.542969 467.304688 794.90625 408.027344 781.761719 C 408.242188 781.496094 408.507812 781.285156 408.71875 781.019531 L 410.050781 779.527344 C 411.007812 778.410156 412.019531 777.292969 412.976562 776.175781 C 417.234375 771.28125 421.382812 766.121094 425.375 760.746094 C 427.980469 757.234375 430.535156 753.667969 432.984375 750.050781 C 435.429688 746.378906 437.824219 742.652344 440.058594 738.875 C 441.816406 735.949219 443.519531 732.96875 445.113281 729.988281 C 447.082031 726.476562 448.894531 722.914062 450.648438 719.292969 C 451.925781 716.792969 453.097656 714.347656 454.214844 711.792969 C 455.597656 708.707031 456.925781 705.621094 458.203125 702.480469 C 459.375 699.554688 460.546875 696.628906 461.609375 693.699219 C 462.675781 690.722656 463.738281 687.742188 464.695312 684.707031 C 465.386719 682.6875 465.972656 680.664062 466.558594 678.589844 C 466.878906 677.683594 467.144531 676.832031 467.355469 675.929688 C 468.207031 673.003906 469.007812 670.074219 469.699219 667.148438 C 470.65625 666.246094 471.667969 665.339844 472.675781 664.433594 C 474.433594 662.839844 476.191406 661.347656 478 659.859375 C 479.753906 658.371094 481.457031 656.933594 483.265625 655.550781 C 486.617188 652.941406 490.078125 650.335938 493.589844 647.832031 C 495.929688 646.238281 498.273438 644.589844 500.667969 643.046875 C 504.605469 640.4375 508.59375 637.988281 512.691406 635.59375 C 533.230469 623.730469 555.207031 615.003906 578.085938 609.574219 C 616.078125 600.53125 655.878906 600.902344 693.816406 610.535156 Z M 693.816406 610.535156 " fill-opacity="1" fill-rule="nonzero"/></g><path fill="#fbc74c" d="M 566.699219 590.472656 C 563.878906 591.21875 561.058594 592.015625 558.292969 592.867188 C 556.75 593.292969 555.257812 593.773438 553.769531 594.304688 C 551.960938 594.890625 550.097656 595.476562 548.289062 596.113281 C 548.234375 596.113281 548.183594 596.113281 548.128906 596.167969 C 547.171875 596.488281 546.160156 596.804688 545.203125 597.179688 C 544.777344 597.285156 544.40625 597.445312 543.980469 597.65625 C 541.851562 598.402344 539.722656 599.199219 537.648438 600.050781 C 531.261719 602.5 524.929688 605.320312 518.757812 608.351562 L 514.925781 610.269531 C 514.554688 610.425781 514.179688 610.585938 513.863281 610.800781 C 512.480469 611.492188 511.09375 612.183594 509.765625 612.929688 C 507.15625 614.3125 504.601562 615.695312 502.050781 617.183594 C 499.761719 618.515625 497.527344 619.84375 495.292969 621.230469 C 490.820312 623.941406 486.40625 626.871094 482.097656 629.902344 C 479.96875 631.390625 477.839844 632.933594 475.710938 634.476562 C 475.765625 634.105469 475.816406 633.734375 475.816406 633.359375 C 476.082031 631.285156 476.296875 629.15625 476.507812 627.027344 C 476.613281 625.75 476.722656 624.421875 476.828125 623.089844 C 476.882812 622.292969 476.933594 621.496094 476.988281 620.695312 C 477.039062 620.113281 477.09375 619.472656 477.09375 618.835938 C 477.253906 616.757812 477.359375 614.683594 477.414062 612.609375 C 477.519531 609.417969 477.574219 606.277344 477.574219 603.085938 C 477.574219 600.15625 477.519531 597.179688 477.414062 594.25 C 477.359375 592.230469 477.253906 590.207031 477.148438 588.238281 C 477.039062 586.21875 476.933594 584.195312 476.722656 582.226562 C 476.5625 579.886719 476.402344 577.542969 476.136719 575.203125 C 476.136719 575.042969 476.082031 574.882812 476.082031 574.722656 C 476.03125 574.085938 475.921875 573.445312 475.871094 572.808594 C 475.816406 572.277344 475.765625 571.742188 475.65625 571.160156 L 475.65625 571 C 475.605469 570.625 475.550781 570.308594 475.496094 569.933594 C 475.390625 568.871094 475.230469 567.753906 475.070312 566.6875 C 474.804688 564.453125 474.433594 562.167969 474.0625 559.929688 C 474.007812 559.558594 473.953125 559.1875 473.847656 558.8125 C 473.582031 557.003906 473.261719 555.140625 472.890625 553.332031 C 472.890625 553.226562 472.835938 553.066406 472.785156 552.960938 C 472.570312 551.628906 472.25 550.195312 471.984375 548.863281 C 471.984375 548.652344 471.933594 548.492188 471.878906 548.277344 C 471.824219 548.066406 471.773438 547.800781 471.71875 547.585938 C 471.347656 545.777344 470.921875 543.96875 470.496094 542.210938 C 470.441406 542 470.390625 541.734375 470.335938 541.519531 C 469.75 539.019531 469.113281 536.570312 468.472656 534.125 C 468.472656 534.019531 468.421875 533.859375 468.367188 533.753906 C 469.324219 532.847656 470.335938 531.996094 471.507812 530.933594 C 474.21875 528.644531 476.933594 526.410156 479.648438 524.226562 C 485.289062 519.757812 491.035156 515.660156 496.675781 511.9375 C 500.082031 509.703125 503.539062 507.519531 507.050781 505.496094 C 510.5625 503.421875 514.074219 501.453125 517.691406 499.589844 C 521.3125 497.675781 524.929688 495.921875 528.546875 494.269531 C 530.410156 493.417969 532.273438 492.566406 534.136719 491.769531 C 537.804688 490.171875 541.585938 488.683594 545.308594 487.246094 C 551.695312 484.90625 558.078125 482.832031 564.359375 481.019531 C 573.402344 516.9375 574.253906 554.449219 566.699219 590.472656 Z M 566.699219 590.472656 " fill-opacity="1" fill-rule="nonzero"/><g clip-path="url(#2601503847)"><path fill="#fbc74c" d="M 456.289062 603.085938 C 456.289062 621.972656 454.105469 640.757812 449.796875 658.953125 L 449.796875 659.167969 C 449.746094 659.222656 449.746094 659.273438 449.746094 659.328125 C 449.691406 659.433594 449.691406 659.59375 449.636719 659.699219 C 449.320312 661.082031 449 662.519531 448.625 663.957031 C 448.253906 665.339844 447.882812 666.722656 447.507812 668.160156 C 441.710938 689.070312 433.035156 709.132812 421.808594 727.914062 C 419.734375 731.375 417.550781 734.832031 415.316406 738.183594 C 413.03125 741.535156 410.6875 744.835938 408.292969 748.082031 C 404.621094 752.976562 400.792969 757.765625 396.90625 762.234375 C 396.054688 763.246094 395.152344 764.257812 394.246094 765.269531 L 392.917969 766.757812 C 391.160156 768.671875 389.402344 770.535156 387.542969 772.398438 C 387.167969 772.078125 386.851562 771.8125 386.585938 771.492188 C 386.265625 771.175781 386 770.855469 385.679688 770.535156 C 383.710938 768.460938 381.742188 766.386719 379.828125 764.203125 C 378.761719 763.035156 377.699219 761.808594 376.742188 760.585938 C 374.398438 757.925781 372.164062 755.160156 369.984375 752.339844 C 368.707031 750.6875 367.429688 749.039062 366.203125 747.335938 C 364.875 745.582031 363.597656 743.769531 362.375 742.015625 C 361.042969 740.207031 359.820312 738.398438 358.648438 736.535156 C 357.53125 734.832031 356.414062 733.128906 355.351562 731.425781 C 353.808594 728.925781 352.316406 726.425781 350.828125 723.871094 C 350.027344 722.488281 349.230469 721.050781 348.433594 719.667969 C 347.367188 717.699219 346.359375 715.78125 345.347656 713.8125 C 342.367188 707.960938 339.601562 702 337.046875 695.9375 C 335.394531 691.890625 333.800781 687.792969 332.363281 683.699219 C 330.234375 677.683594 328.425781 671.726562 326.882812 665.925781 C 326.5625 664.753906 326.246094 663.585938 325.976562 662.414062 L 325.765625 661.5625 C 325.605469 661.03125 325.5 660.496094 325.285156 659.699219 C 325.285156 659.539062 325.234375 659.328125 325.179688 659.113281 C 325.179688 659.0625 325.179688 659.007812 325.125 658.953125 C 325.125 658.902344 325.125 658.796875 325.074219 658.742188 C 325.074219 658.582031 325.019531 658.476562 324.96875 658.316406 C 323.957031 653.953125 323.050781 649.589844 322.308594 645.226562 C 320.976562 637.617188 319.964844 629.957031 319.378906 622.292969 C 319.0625 618.300781 318.847656 614.363281 318.742188 610.425781 C 318.6875 607.980469 318.636719 605.53125 318.636719 603.085938 C 318.636719 579.246094 322.039062 555.835938 328.796875 533.433594 C 328.851562 533.273438 328.90625 533.113281 328.90625 533.007812 C 334.652344 513.851562 342.847656 495.441406 353.167969 478.199219 C 355.242188 474.742188 357.371094 471.335938 359.660156 467.929688 C 360.832031 466.175781 362.054688 464.472656 363.332031 462.664062 L 366.523438 458.300781 C 366.523438 458.246094 366.578125 458.195312 366.578125 458.140625 C 366.628906 458.085938 366.628906 458.085938 366.683594 458.035156 C 367.855469 456.4375 369.078125 454.84375 370.355469 453.246094 L 374.132812 448.5625 C 378.390625 443.402344 382.859375 438.453125 387.488281 433.71875 C 392.066406 438.398438 396.535156 443.402344 400.738281 448.457031 C 402.066406 450.054688 403.34375 451.648438 404.621094 453.246094 C 406.21875 455.320312 407.816406 457.394531 409.25 459.363281 L 410.316406 460.800781 C 412.019531 463.195312 413.667969 465.589844 415.265625 467.878906 C 417.5 471.285156 419.734375 474.742188 421.808594 478.199219 C 432.132812 495.441406 440.273438 513.851562 446.019531 532.953125 C 446.019531 533.113281 446.074219 533.273438 446.125 533.433594 C 452.882812 555.835938 456.289062 579.300781 456.289062 603.085938 Z M 456.289062 603.085938 " fill-opacity="1" fill-rule="nonzero"/></g><path fill="#fbc74c" d="M 306.554688 533.753906 C 306.398438 534.496094 306.183594 535.296875 305.972656 536.039062 C 305.707031 536.996094 305.4375 538.007812 305.226562 538.964844 C 304.746094 540.722656 304.320312 542.476562 303.949219 544.234375 C 303.738281 545.246094 303.46875 546.257812 303.3125 547.265625 C 302.671875 549.980469 302.140625 552.695312 301.660156 555.460938 C 301.074219 558.496094 300.597656 561.582031 300.171875 564.613281 C 300.117188 564.71875 300.117188 564.828125 300.117188 564.933594 C 299.691406 567.804688 299.320312 570.625 299 573.445312 C 298.949219 573.871094 298.894531 574.296875 298.839844 574.722656 C 298.574219 577.222656 298.363281 579.726562 298.203125 582.226562 C 297.988281 584.195312 297.882812 586.21875 297.777344 588.238281 C 297.671875 590.261719 297.5625 592.230469 297.511719 594.25 C 297.40625 597.179688 297.351562 600.15625 297.351562 603.085938 C 297.351562 606.117188 297.40625 609.097656 297.511719 612.128906 C 297.5625 614.363281 297.671875 616.601562 297.832031 618.835938 C 298.097656 623.835938 298.574219 628.785156 299.160156 633.734375 C 299.160156 634 299.160156 634.265625 299.214844 634.53125 C 297.136719 632.988281 295.011719 631.445312 292.828125 629.902344 C 291.550781 628.996094 290.273438 628.09375 288.945312 627.242188 C 283.730469 623.675781 278.410156 620.324219 272.929688 617.183594 C 270.375 615.695312 267.820312 614.3125 265.210938 612.929688 C 263.722656 612.078125 262.179688 611.277344 260.636719 610.585938 C 256.859375 608.566406 253.027344 606.757812 249.144531 605.054688 C 247.386719 604.203125 245.632812 603.457031 243.875 602.710938 C 242.546875 602.125 241.160156 601.542969 239.832031 601.0625 C 238.714844 600.582031 237.597656 600.105469 236.425781 599.730469 C 234.671875 598.988281 232.859375 598.296875 231.105469 597.710938 C 230.09375 597.285156 229.03125 596.914062 227.964844 596.59375 C 226.050781 595.902344 224.132812 595.210938 222.21875 594.625 C 221.261719 594.304688 220.304688 593.984375 219.34375 593.71875 C 217.109375 592.972656 214.824219 592.335938 212.535156 591.699219 C 212.109375 591.539062 211.628906 591.378906 211.152344 591.324219 C 210.195312 591.007812 209.183594 590.738281 208.226562 590.472656 C 202.371094 562.539062 201.519531 534.019531 205.722656 505.496094 C 205.9375 504.113281 206.097656 502.785156 206.414062 501.242188 C 207.480469 494.535156 208.917969 487.777344 210.617188 481.074219 C 217.058594 482.882812 223.441406 484.957031 229.5625 487.246094 C 233.339844 488.683594 237.117188 490.171875 240.789062 491.769531 L 246.324219 494.21875 C 250.046875 495.917969 253.664062 497.730469 257.230469 499.589844 C 260.847656 501.453125 264.414062 503.421875 267.871094 505.445312 C 271.386719 507.574219 274.898438 509.753906 278.25 511.9375 C 283.941406 515.660156 289.636719 519.757812 295.277344 524.226562 C 298.042969 526.410156 300.808594 528.695312 303.683594 531.144531 C 304.640625 532.050781 305.597656 532.902344 306.554688 533.753906 Z M 306.554688 533.753906 " fill-opacity="1" fill-rule="nonzero"/><path fill="#fbc74c" d="M 367.003906 781.761719 C 307.675781 794.90625 246.640625 785.542969 193.433594 754.839844 C 137.933594 722.808594 98.398438 671.832031 81.160156 610.535156 C 118.886719 600.957031 158.421875 600.53125 196.144531 609.363281 C 196.414062 609.417969 196.730469 609.523438 196.996094 609.574219 C 219.824219 615.003906 241.800781 623.78125 262.285156 635.59375 C 266.382812 637.988281 270.375 640.4375 274.3125 643.046875 C 276.28125 644.320312 278.25 645.652344 280.164062 646.984375 C 282.078125 648.367188 283.996094 649.75 285.910156 651.132812 C 287.667969 652.410156 289.371094 653.742188 291.074219 655.070312 C 295.914062 658.902344 300.648438 662.890625 305.171875 667.042969 L 305.171875 667.097656 L 305.332031 667.574219 C 305.652344 668.90625 305.972656 670.183594 306.289062 671.460938 C 307.941406 677.738281 309.960938 684.230469 312.25 690.773438 C 313.738281 695.085938 315.390625 699.339844 317.144531 703.542969 C 317.945312 705.511719 318.792969 707.429688 319.644531 709.34375 C 320.285156 710.886719 320.976562 712.378906 321.722656 713.867188 C 322.945312 716.632812 324.277344 719.347656 325.660156 722.0625 C 326.511719 723.765625 327.363281 725.414062 328.265625 727.117188 C 329.011719 728.554688 329.808594 729.988281 330.605469 731.375 C 331.511719 733.023438 332.417969 734.621094 333.425781 736.269531 C 337.578125 743.398438 342.046875 750.316406 346.890625 757.019531 C 348.21875 758.882812 349.601562 760.691406 350.988281 762.554688 C 352.476562 764.523438 354.019531 766.546875 355.617188 768.460938 C 357.105469 770.375 358.703125 772.292969 360.296875 774.152344 C 361.894531 776.015625 363.542969 777.933594 365.195312 779.742188 C 365.777344 780.433594 366.363281 781.070312 367.003906 781.761719 Z M 367.003906 781.761719 " fill-opacity="1" fill-rule="nonzero"/><g clip-path="url(#7c920c6e15)"><path fill="#fbc74c" d="M 551.148438 66.683594 L 549.335938 66.632812 C 541.117188 66.449219 533.359375 69.09375 526.0625 74.566406 C 522.414062 77.304688 518.882812 80.746094 515.464844 84.898438 C 513.613281 86.089844 508.742188 93.90625 500.863281 108.351562 C 494.355469 121.976562 482.429688 152.394531 465.085938 199.613281 C 458.660156 212.945312 445.375 237.835938 425.230469 274.289062 L 417.730469 290.632812 C 409.984375 307.167969 405.941406 324.097656 405.597656 341.425781 C 405.328125 370.515625 414.664062 404.515625 433.605469 443.429688 C 435.808594 447.023438 437.570312 448.363281 438.882812 447.453125 C 437.128906 430.714844 436.625 417.960938 437.378906 409.191406 C 471.304688 506.554688 510.203125 564.933594 554.066406 584.320312 C 536.8125 562.902344 521.769531 537.53125 508.933594 508.210938 C 498.789062 483.070312 492.582031 462.347656 490.3125 446.042969 C 524.660156 485.863281 544.140625 505.96875 548.75 506.371094 L 531.878906 469.609375 L 525.25 452.917969 C 521.230469 442.164062 518.019531 432.160156 515.605469 422.90625 C 513.195312 413.652344 511.585938 405.148438 510.78125 397.394531 L 510.171875 386.328125 C 510.398438 378.425781 510.96875 373.070312 511.890625 370.257812 C 513.390625 359.851562 518.585938 346.945312 527.472656 331.539062 L 584.398438 260.140625 C 593.808594 247.703125 599.320312 239.5 600.933594 235.527344 C 614.625 205.519531 620.984375 179.039062 620.019531 156.085938 C 619.351562 136.378906 612.859375 117.777344 600.535156 100.277344 C 593.238281 90.671875 585.933594 83.125 578.621094 77.632812 C 565.8125 69.4375 556.65625 65.789062 551.148438 66.683594 " fill-opacity="1" fill-rule="nonzero"/></g><path fill="#fbc74c" d="M 546.96875 199.566406 L 546.449219 199.578125 C 545.40625 199.511719 543.617188 200.371094 541.078125 202.15625 C 538.175781 205.125 535.195312 208.992188 532.136719 213.757812 C 529.925781 217.097656 526.269531 223.8125 521.160156 233.90625 C 517.457031 238.941406 511.332031 249.09375 502.78125 264.359375 C 498.007812 273.445312 494.851562 280.679688 493.316406 286.058594 C 492.542969 288.9375 492.214844 291.1875 492.328125 292.816406 C 492.21875 293.417969 492.554688 294.289062 493.339844 295.421875 C 493.730469 295.765625 494.234375 295.953125 494.847656 295.984375 C 497.824219 295.511719 500.515625 294.304688 502.914062 292.367188 C 508.109375 287.503906 511.5 284.128906 513.082031 282.234375 C 522.820312 270.921875 531.628906 258.359375 539.507812 244.554688 C 545.332031 233.054688 548.929688 222.597656 550.304688 213.179688 C 550.941406 209.128906 550.929688 205.75 550.273438 203.054688 C 549.574219 200.5625 548.472656 199.398438 546.96875 199.566406 " fill-opacity="1" fill-rule="nonzero"/><path fill="#fbc74c" d="M 585.609375 136.601562 L 584.539062 136.640625 C 582.128906 136.894531 579.789062 138.761719 577.519531 142.234375 C 576.160156 144.558594 575.390625 145.992188 575.214844 146.535156 C 574.757812 147.542969 574.34375 148.582031 573.96875 149.652344 C 573.21875 151.796875 572.625 154.078125 572.1875 156.488281 C 571.984375 157.535156 571.789062 158.933594 571.597656 160.6875 L 571.523438 160.6875 C 571.28125 161.96875 571.109375 162.976562 571.011719 163.707031 L 570.585938 167.449219 C 570.5 169.695312 570.597656 171.921875 570.871094 174.128906 C 571.210938 176.613281 571.820312 178.5 572.707031 179.789062 C 573.464844 180.917969 574.460938 181.578125 575.703125 181.777344 C 576.757812 181.867188 577.949219 181.359375 579.277344 180.246094 C 580.480469 179.28125 581.925781 177.414062 583.613281 174.644531 C 584.328125 173.445312 585.058594 172.09375 585.804688 170.589844 L 586.777344 168.113281 C 587.792969 165.546875 588.773438 162.203125 589.714844 158.085938 C 592.4375 144.734375 591.070312 137.574219 585.609375 136.601562 " fill-opacity="1" fill-rule="nonzero"/><path fill="#fbc74c" d="M 539.847656 131.117188 L 539.726562 131.109375 C 538.363281 131.03125 537.097656 131.316406 535.929688 131.96875 C 535.609375 132.019531 534.789062 132.714844 533.46875 134.058594 C 532.960938 134.660156 532.476562 135.355469 532.015625 136.140625 C 531.414062 137.246094 530.953125 138.242188 530.636719 139.132812 L 529.65625 142.703125 C 528.792969 146.179688 528.222656 149.214844 527.945312 151.808594 C 527.6875 154.078125 527.585938 156.222656 527.644531 158.238281 L 527.820312 160.882812 L 528.1875 163.371094 L 528.75 165.703125 C 528.957031 166.203125 529.242188 166.734375 529.609375 167.296875 C 530.054688 167.917969 530.453125 168.335938 530.800781 168.554688 L 530.730469 168.554688 L 531.277344 169.390625 C 531.570312 169.785156 531.878906 170.125 532.203125 170.40625 C 532.984375 171.089844 533.90625 171.457031 534.96875 171.511719 C 536.242188 171.421875 537.640625 170.609375 539.167969 169.066406 C 540.277344 167.945312 541.457031 166.273438 542.699219 164.042969 C 545.855469 158.023438 547.683594 152.5625 548.183594 147.664062 C 548.453125 145.226562 548.484375 142.996094 548.277344 140.972656 C 548.167969 139.769531 547.984375 138.585938 547.726562 137.417969 L 547.183594 136.152344 C 546.492188 134.738281 545.625 133.617188 544.582031 132.796875 C 543.203125 131.902344 542.320312 131.453125 541.9375 131.453125 C 541.285156 131.265625 540.585938 131.152344 539.847656 131.117188 " fill-opacity="1" fill-rule="nonzero"/><g clip-path="url(#d65ea8d309)"><path fill="#fbc74c" d="M 221.714844 66.683594 L 223.527344 66.632812 C 231.746094 66.449219 239.5 69.09375 246.796875 74.566406 C 250.445312 77.304688 253.980469 80.746094 257.398438 84.898438 C 259.25 86.089844 264.117188 93.90625 272 108.351562 C 278.507812 121.976562 290.433594 152.394531 307.777344 199.613281 C 314.203125 212.945312 327.484375 237.835938 347.628906 274.289062 L 355.132812 290.632812 C 362.878906 307.167969 366.921875 324.097656 367.261719 341.425781 C 367.53125 370.515625 358.199219 404.515625 339.257812 443.429688 C 337.050781 447.023438 335.292969 448.363281 333.980469 447.453125 C 335.734375 430.714844 336.238281 417.960938 335.484375 409.191406 C 301.554688 506.554688 262.660156 564.933594 218.792969 584.320312 C 236.050781 562.902344 251.09375 537.53125 263.925781 508.210938 C 274.074219 483.070312 280.28125 462.347656 282.546875 446.042969 C 248.199219 485.863281 228.722656 505.96875 224.113281 506.371094 L 240.984375 469.609375 L 247.613281 452.917969 C 251.628906 442.164062 254.84375 432.160156 257.253906 422.90625 C 259.667969 413.652344 261.277344 405.148438 262.082031 397.394531 L 262.691406 386.328125 C 262.464844 378.425781 261.890625 373.070312 260.96875 370.257812 C 259.46875 359.851562 254.277344 346.945312 245.386719 331.539062 L 188.464844 260.140625 C 179.050781 247.703125 173.539062 239.5 171.929688 235.527344 C 158.238281 205.519531 151.875 179.039062 152.84375 156.085938 C 153.507812 136.378906 160.003906 117.777344 172.328125 100.277344 C 179.625 90.671875 186.929688 83.125 194.242188 77.632812 C 207.046875 69.4375 216.203125 65.789062 221.714844 66.683594 " fill-opacity="1" fill-rule="nonzero"/></g><path fill="#fbc74c" d="M 225.890625 199.566406 L 226.414062 199.578125 C 227.453125 199.511719 229.246094 200.371094 231.785156 202.15625 C 234.6875 205.125 237.664062 208.992188 240.722656 213.757812 C 242.933594 217.097656 246.59375 223.8125 251.703125 233.90625 C 255.40625 238.941406 261.53125 249.09375 270.078125 264.359375 C 274.855469 273.445312 278.011719 280.679688 279.542969 286.058594 C 280.316406 288.9375 280.648438 291.1875 280.53125 292.816406 C 280.644531 293.417969 280.304688 294.289062 279.523438 295.421875 C 279.128906 295.765625 278.628906 295.953125 278.015625 295.984375 C 275.039062 295.511719 272.347656 294.304688 269.945312 292.367188 C 264.75 287.503906 261.363281 284.128906 259.78125 282.234375 C 250.042969 270.921875 241.234375 258.359375 233.355469 244.554688 C 227.53125 233.054688 223.929688 222.597656 222.554688 213.179688 C 221.921875 209.128906 221.933594 205.75 222.585938 203.054688 C 223.289062 200.5625 224.390625 199.398438 225.890625 199.566406 " fill-opacity="1" fill-rule="nonzero"/><path fill="#fbc74c" d="M 187.253906 136.601562 L 188.324219 136.640625 C 190.734375 136.894531 193.074219 138.761719 195.34375 142.234375 C 196.703125 144.558594 197.46875 145.992188 197.648438 146.535156 C 198.101562 147.542969 198.515625 148.582031 198.890625 149.652344 C 199.640625 151.796875 200.238281 154.078125 200.675781 156.488281 C 200.875 157.535156 201.074219 158.933594 201.265625 160.6875 L 201.335938 160.6875 C 201.582031 161.96875 201.75 162.976562 201.847656 163.707031 L 202.277344 167.449219 C 202.363281 169.695312 202.265625 171.921875 201.992188 174.128906 C 201.652344 176.613281 201.039062 178.5 200.15625 179.789062 C 199.398438 180.917969 198.398438 181.578125 197.15625 181.777344 C 196.105469 181.867188 194.914062 181.359375 193.582031 180.246094 C 192.378906 179.28125 190.933594 177.414062 189.25 174.644531 C 188.535156 173.445312 187.804688 172.09375 187.058594 170.589844 L 186.082031 168.113281 C 185.066406 165.546875 184.089844 162.203125 183.148438 158.085938 C 180.421875 144.734375 181.792969 137.574219 187.253906 136.601562 " fill-opacity="1" fill-rule="nonzero"/><path fill="#fbc74c" d="M 233.015625 131.117188 L 233.132812 131.109375 C 234.5 131.03125 235.765625 131.316406 236.933594 131.96875 C 237.253906 132.019531 238.074219 132.714844 239.390625 134.058594 C 239.902344 134.660156 240.386719 135.355469 240.847656 136.140625 C 241.449219 137.246094 241.90625 138.242188 242.226562 139.132812 L 243.203125 142.703125 C 244.066406 146.179688 244.640625 149.214844 244.917969 151.808594 C 245.175781 154.078125 245.277344 156.222656 245.21875 158.238281 L 245.042969 160.882812 L 244.675781 163.371094 L 244.113281 165.703125 C 243.90625 166.203125 243.621094 166.734375 243.253906 167.296875 C 242.808594 167.917969 242.410156 168.335938 242.058594 168.554688 L 242.132812 168.554688 L 241.585938 169.390625 C 241.292969 169.785156 240.984375 170.125 240.660156 170.40625 C 239.878906 171.089844 238.957031 171.457031 237.890625 171.511719 C 236.621094 171.421875 235.222656 170.609375 233.695312 169.066406 C 232.582031 167.945312 231.40625 166.273438 230.160156 164.042969 C 227.003906 158.023438 225.179688 152.5625 224.679688 147.664062 C 224.410156 145.226562 224.375 142.996094 224.582031 140.972656 C 224.695312 139.769531 224.878906 138.585938 225.132812 137.417969 L 225.675781 136.152344 C 226.367188 134.738281 227.238281 133.617188 228.28125 132.796875 C 229.660156 131.902344 230.542969 131.453125 230.921875 131.453125 C 231.578125 131.265625 232.273438 131.152344 233.015625 131.117188 " fill-opacity="1" fill-rule="nonzero"/></svg>