<svg xmlns="http://www.w3.org/2000/svg" xmlns:xlink="http://www.w3.org/1999/xlink" width="1080" zoomAndPan="magnify" viewBox="0 0 810 809.999993" height="1080" preserveAspectRatio="xMidYMid meet" version="1.0"><defs><clipPath id="4440bf670d"><path d="M 63.058594 0 L 747 0 L 747 810 L 63.058594 810 Z M 63.058594 0 " clip-rule="nonzero"/></clipPath></defs><g clip-path="url(#4440bf670d)"><path fill="#fbc74c" d="M 739.484375 117.917969 C 729.363281 106.4375 712.582031 109.449219 699.078125 106.382812 C 601.296875 90.285156 509.429688 50.324219 421.671875 5.558594 C 417.496094 3.570312 413.136719 1.863281 408.769531 0.339844 L 402.441406 0.339844 C 387.199219 4.894531 373.699219 13.59375 359.351562 20.222656 C 282.386719 58.03125 201.671875 90.601562 116.816406 105.492188 C 104.609375 107.960938 91.898438 107.765625 79.953125 111.339844 C 70.472656 115.515625 63.515625 125.441406 64.050781 135.960938 C 63.070312 194.480469 65.191406 253.027344 69.765625 311.359375 C 76.375 385.585938 87.0625 460.234375 112.03125 530.761719 C 124.140625 563.484375 139.535156 595.636719 162.742188 622.03125 C 226.066406 696.984375 304.726562 758.414062 390.808594 805.167969 C 394.472656 807.007812 398.300781 808.484375 402.222656 809.660156 L 407.722656 809.660156 C 423.085938 805.332031 435.769531 795.113281 449.804688 787.90625 C 516.507812 748.425781 577.523438 699.289062 630.0625 642.292969 C 645.933594 624.335938 662.25 606.34375 673.597656 585.105469 C 700.023438 538.152344 713.972656 485.453125 724.398438 432.980469 C 742.355469 337.320312 746.996094 239.65625 746.464844 142.519531 C 746.757812 133.84375 746.09375 124.332031 739.484375 117.917969 Z M 702.371094 411.480469 C 691.621094 470.410156 677.652344 530.414062 645.976562 582.007812 C 617.84375 622.726562 581.578125 657.058594 544.464844 689.460938 C 501.65625 726.007812 454.585938 757.304688 405.203125 784.277344 C 318.550781 737.238281 239.195312 675.394531 176.570312 598.953125 C 144.296875 557.667969 129.023438 506.292969 116.945312 456.09375 C 93.617188 350.789062 88.085938 242.355469 89.59375 134.765625 C 201.378906 122.15625 305.835938 76.152344 405.222656 25.765625 C 504.582031 76.21875 609.167969 122.09375 720.984375 134.710938 C 722.386719 227.234375 717.960938 320.144531 702.371094 411.480469 Z M 702.371094 411.480469 " fill-opacity="1" fill-rule="nonzero"/></g><path fill="#fbc74c" d="M 139.808594 178.707031 C 141.675781 278.257812 147.394531 378.890625 173.703125 475.367188 C 184.007812 510.933594 197.257812 547.066406 222.640625 574.851562 C 273.699219 635.902344 337.023438 685.691406 405.246094 726.25 C 477.828125 683.09375 544.855469 629.261719 597.578125 562.960938 C 622.550781 528.695312 634.378906 487.085938 644.148438 446.375 C 663.816406 358.648438 669.121094 268.390625 670.578125 178.726562 C 577.699219 160.800781 489.527344 124.636719 405.214844 82.523438 C 320.855469 124.613281 232.71875 160.847656 139.808594 178.707031 Z M 139.808594 178.707031 " fill-opacity="1" fill-rule="nonzero"/></svg>