<svg xmlns="http://www.w3.org/2000/svg" xmlns:xlink="http://www.w3.org/1999/xlink" width="1080" zoomAndPan="magnify" viewBox="0 0 810 809.999993" height="1080" preserveAspectRatio="xMidYMid meet" version="1.0"><defs><clipPath id="b0a3b5e4fe"><path d="M 72.191406 214.417969 L 698 214.417969 L 698 809.960938 L 72.191406 809.960938 Z M 72.191406 214.417969 " clip-rule="nonzero"/></clipPath><clipPath id="fa13fd94ef"><path d="M 37.289062 0 L 163.300781 0 L 163.300781 199.496094 L 37.289062 199.496094 Z M 37.289062 0 " clip-rule="nonzero"/></clipPath><clipPath id="37a786ffc4"><path d="M 46.398438 363.816406 L 340.398438 363.816406 L 340.398438 810 L 46.398438 810 Z M 46.398438 363.816406 " clip-rule="nonzero"/></clipPath></defs><path fill="#fbc74c" d="M 702.332031 799.214844 C 702.332031 799.214844 702.835938 798.863281 703.746094 798.085938 C 704.65625 797.300781 705.996094 796.097656 707.480469 794.242188 C 708.96875 792.398438 710.578125 789.886719 711.941406 786.640625 C 712.613281 785.011719 713.277344 783.289062 713.671875 781.113281 C 714.042969 778.984375 713.925781 776.546875 713.183594 774.164062 C 711.691406 769.347656 708.054688 765.132812 703.78125 761.484375 C 699.46875 757.808594 694.367188 754.550781 688.90625 751.304688 C 686.214844 749.710938 683.429688 748.066406 680.554688 746.367188 C 679.167969 745.519531 677.785156 744.648438 676.511719 743.753906 C 675.863281 743.296875 675.300781 742.867188 674.722656 742.382812 C 674.074219 741.820312 673.421875 741.25 672.765625 740.675781 C 670.148438 738.386719 667.460938 736.035156 664.699219 733.625 C 662.082031 731.054688 659.394531 728.417969 656.648438 725.71875 C 645.902344 714.675781 635.234375 701.5625 625.050781 686.5625 C 614.847656 671.570312 605.121094 654.722656 595.746094 636.453125 C 586.386719 618.164062 577.398438 598.445312 568.207031 577.792969 C 565.90625 572.617188 563.589844 567.394531 561.257812 562.132812 C 558.734375 556.777344 556.171875 551.199219 553.398438 545.789062 C 551.949219 543.109375 550.492188 540.421875 549.03125 537.726562 C 548.292969 536.382812 547.578125 535.015625 546.8125 533.683594 L 544.429688 529.734375 C 542.835938 527.101562 541.234375 524.460938 539.625 521.8125 C 537.964844 519.203125 536.222656 516.648438 534.507812 514.054688 C 520.714844 493.359375 505.332031 474.894531 490.234375 457.6875 C 475.113281 440.472656 460.214844 424.476562 446.53125 408.976562 C 443.144531 405.085938 439.804688 401.238281 436.507812 397.441406 C 433.304688 393.59375 430.070312 389.835938 426.988281 386.070312 C 423.949219 382.269531 420.953125 378.523438 418 374.835938 C 415.09375 371.0625 412.234375 367.351562 409.417969 363.695312 C 398.222656 349.039062 388.105469 335.105469 378.960938 322.292969 C 360.714844 296.636719 346.484375 275.382812 336.605469 260.71875 C 326.777344 246.039062 321.308594 237.882812 321.308594 237.882812 C 321.308594 237.882812 325.445312 246.757812 333.355469 262.609375 C 341.300781 278.4375 352.96875 301.28125 368.839844 328.792969 C 376.789062 342.535156 385.757812 357.46875 395.964844 373.164062 C 398.507812 377.097656 401.136719 381.066406 403.828125 385.089844 C 406.554688 389.105469 409.433594 393.167969 412.304688 397.300781 C 415.234375 401.394531 418.296875 405.449219 421.367188 409.613281 C 424.519531 413.6875 427.714844 417.816406 430.949219 421.996094 C 444.039062 438.546875 458.328125 455.273438 472.703125 472.628906 C 487.078125 489.988281 501.566406 508.007812 514.507812 527.445312 C 516.117188 529.878906 517.769531 532.277344 519.332031 534.714844 C 520.84375 537.179688 522.351562 539.632812 523.851562 542.078125 L 526.109375 545.738281 L 528.199219 549.460938 C 529.585938 551.9375 530.964844 554.410156 532.34375 556.871094 C 533.746094 559.324219 534.882812 561.882812 536.164062 564.363281 C 537.414062 566.878906 538.664062 569.382812 539.902344 571.875 C 542.386719 577.113281 544.855469 582.308594 547.300781 587.460938 C 557.1875 608.054688 567.246094 627.84375 577.933594 646.199219 C 588.632812 664.546875 599.941406 681.449219 611.8125 696.332031 C 623.667969 711.226562 636.097656 724.050781 648.460938 734.539062 C 651.613281 737.082031 654.691406 739.566406 657.695312 741.984375 C 660.835938 744.210938 663.898438 746.382812 666.875 748.492188 C 667.617188 749.015625 668.359375 749.535156 669.089844 750.050781 C 669.925781 750.605469 670.808594 751.140625 671.632812 751.59375 C 673.292969 752.515625 674.894531 753.292969 676.457031 754.03125 C 679.527344 755.414062 682.507812 756.757812 685.386719 758.050781 C 691.035156 760.605469 696.144531 763.101562 700.402344 765.929688 C 704.640625 768.734375 708.046875 771.925781 709.65625 775.472656 C 710.46875 777.234375 710.808594 779.058594 710.738281 780.8125 C 710.664062 782.53125 710.261719 784.335938 709.84375 785.917969 C 708.980469 789.105469 707.804688 791.691406 706.628906 793.648438 C 705.464844 795.625 704.332031 796.992188 703.558594 797.886719 C 702.773438 798.792969 702.332031 799.214844 702.332031 799.214844 " fill-opacity="1" fill-rule="nonzero"/><g clip-path="url(#b0a3b5e4fe)"><path fill="#fbc74c" d="M 72.78125 214.757812 C 72.78125 214.757812 74.71875 217.453125 78.398438 222.585938 C 82.140625 227.679688 87.75 235.144531 95.304688 244.496094 C 102.832031 253.867188 112.324219 265.113281 123.460938 277.996094 C 134.566406 290.902344 147.355469 305.425781 160.78125 321.824219 C 167.476562 330.035156 174.386719 338.683594 181.148438 347.933594 C 182.914062 350.234375 184.460938 352.546875 186.070312 354.875 C 186.859375 356.042969 187.703125 357.183594 188.460938 358.390625 C 189.21875 359.605469 189.976562 360.820312 190.738281 362.046875 C 191.496094 363.265625 192.257812 364.496094 193.023438 365.730469 C 193.738281 367 194.453125 368.269531 195.171875 369.550781 C 195.890625 370.828125 196.609375 372.113281 197.339844 373.402344 C 198.007812 374.71875 198.683594 376.046875 199.355469 377.378906 C 210.179688 398.671875 218.074219 423.289062 222.605469 449.910156 C 224.902344 463.230469 226.222656 477.019531 226.851562 491.226562 C 227.472656 505.539062 227.351562 520.8125 228.789062 537.113281 C 229.523438 545.261719 230.625 553.664062 232.628906 562.214844 L 233.394531 565.421875 L 234.363281 568.75 C 235.019531 570.964844 235.644531 573.191406 236.53125 575.363281 C 238.09375 579.761719 240.078125 584.058594 242.289062 588.257812 C 246.765625 596.640625 252.59375 604.46875 259.492188 611.246094 C 266.375 618.035156 274.300781 623.769531 282.796875 628.289062 C 291.296875 632.808594 300.242188 636.117188 309.285156 638.28125 C 311.550781 638.796875 313.820312 639.242188 316.082031 639.710938 C 318.261719 640.125 320.199219 640.40625 322.265625 640.753906 C 326.351562 641.453125 330.363281 642.042969 334.355469 642.621094 C 350.324219 644.945312 365.671875 646.746094 380.070312 649.441406 C 394.476562 652.113281 407.96875 655.65625 420.03125 660.945312 C 432.101562 666.203125 442.695312 673.25 451.539062 682.054688 C 453.664062 684.359375 455.773438 686.648438 457.871094 688.921875 C 459.914062 691.285156 461.859375 693.785156 463.761719 696.363281 C 467.5625 701.523438 471.15625 706.992188 474.75 712.566406 C 478.351562 718.136719 481.9375 723.808594 485.765625 729.398438 C 486.738281 730.800781 487.710938 732.1875 488.675781 733.574219 C 489.671875 734.964844 490.789062 736.40625 491.839844 737.804688 C 492.871094 739.230469 494.039062 740.550781 495.15625 741.898438 C 496.261719 743.253906 497.410156 744.5625 498.613281 745.8125 C 507.984375 756.078125 518.863281 763.988281 529.6875 770.125 C 540.574219 776.230469 551.457031 780.652344 561.835938 784.265625 C 582.28125 791.164062 600.765625 797.171875 617.472656 801.53125 C 634.144531 805.917969 648.800781 808.53125 660.949219 809.648438 C 673.234375 810.660156 682.820312 809.023438 688.851562 806.882812 C 691.890625 805.847656 694.035156 804.667969 695.460938 803.90625 C 696.839844 803.042969 697.542969 802.601562 697.542969 802.601562 C 697.542969 802.601562 696.785156 802.933594 695.304688 803.574219 C 693.785156 804.117188 691.542969 804.949219 688.484375 805.53125 C 682.402344 806.765625 673.113281 807.039062 661.683594 804.613281 C 650.191406 802.042969 636.300781 797.785156 620.628906 791.714844 C 604.964844 785.683594 587.292969 777.816406 567.902344 769.132812 C 558.4375 764.800781 548.875 759.8125 539.859375 753.675781 C 530.890625 747.5 522.453125 740.183594 515.492188 731.265625 C 514.589844 730.179688 513.742188 729.042969 512.929688 727.871094 C 512.105469 726.710938 511.234375 725.582031 510.484375 724.347656 C 509.707031 723.125 508.925781 721.96875 508.136719 720.679688 C 507.351562 719.359375 506.558594 718.035156 505.769531 716.703125 C 502.617188 711.328125 499.519531 705.609375 496.226562 699.6875 C 492.933594 693.769531 489.441406 687.632812 485.429688 681.433594 C 483.421875 678.34375 481.28125 675.222656 478.933594 672.160156 C 476.460938 669.15625 473.972656 666.132812 471.46875 663.09375 C 460.886719 651.296875 447.378906 641.324219 432.585938 634.148438 C 417.789062 626.898438 401.953125 622.253906 386.210938 618.851562 C 370.4375 615.433594 354.683594 613.257812 339.230469 610.757812 C 335.367188 610.140625 331.5 609.515625 327.703125 608.824219 C 325.824219 608.484375 323.800781 608.164062 322.035156 607.808594 L 317.03125 606.710938 C 310.410156 605.078125 304.035156 602.660156 298.125 599.515625 C 286.269531 593.234375 276.75 584.007812 270.582031 572.816406 C 269.0625 570.007812 267.648438 567.128906 266.523438 564.109375 C 265.859375 562.648438 265.417969 561.082031 264.925781 559.539062 L 264.179688 557.230469 L 263.53125 554.742188 C 261.808594 548.078125 260.675781 541.082031 259.820312 533.921875 C 258.113281 519.597656 257.664062 504.589844 256.382812 489.355469 C 255.058594 474.015625 252.878906 458.964844 249.582031 444.554688 C 243.0625 415.707031 232.570312 389.125 218.8125 366.507812 C 217.949219 365.097656 217.09375 363.695312 216.242188 362.292969 C 215.328125 360.929688 214.421875 359.570312 213.519531 358.21875 C 212.609375 356.871094 211.707031 355.527344 210.808594 354.191406 C 209.878906 352.875 208.898438 351.601562 207.953125 350.3125 C 207.003906 349.035156 206.054688 347.761719 205.109375 346.492188 C 204.160156 345.230469 203.121094 344.035156 202.140625 342.820312 C 200.152344 340.394531 198.191406 337.96875 196.207031 335.796875 C 188.371094 326.8125 180.488281 318.605469 172.890625 310.910156 C 157.648438 295.546875 143.351562 282.402344 130.878906 270.832031 C 118.382812 259.289062 107.667969 249.34375 99.058594 241.050781 C 90.421875 232.785156 83.882812 226.1875 79.46875 221.679688 C 75.085938 217.144531 72.78125 214.757812 72.78125 214.757812 " fill-opacity="1" fill-rule="nonzero"/></g><path fill="#fbc74c" d="M 72.78125 214.757812 C 72.78125 214.757812 70.277344 220.910156 65.917969 232.195312 C 65.371094 233.609375 64.800781 235.101562 64.199219 236.667969 C 63.671875 238.261719 63.117188 239.933594 62.542969 241.679688 C 61.398438 245.191406 60.164062 249 58.839844 253.089844 C 57.421875 257.171875 56.316406 261.648438 55.082031 266.390625 C 54.46875 268.769531 53.835938 271.210938 53.191406 273.722656 C 52.867188 274.980469 52.542969 276.25 52.214844 277.539062 C 51.957031 278.851562 51.699219 280.171875 51.4375 281.511719 C 46.871094 302.816406 43.566406 329.238281 47.460938 358.996094 C 49.691406 373.785156 53.941406 389.375 61.667969 404.292969 C 65.402344 411.800781 70.292969 418.917969 75.710938 425.746094 C 77.050781 427.46875 78.613281 429.015625 80.070312 430.660156 L 82.304688 433.09375 L 83.429688 434.308594 L 84.644531 435.4375 C 87.890625 438.4375 91.105469 441.53125 94.710938 444.175781 C 98.160156 447.035156 101.902344 449.410156 105.5625 451.839844 C 107.402344 453.042969 109.34375 454.046875 111.226562 455.144531 L 114.058594 456.746094 C 115.015625 457.253906 115.996094 457.703125 116.957031 458.183594 C 124.640625 462.105469 132.589844 465.027344 140.484375 467.410156 C 148.394531 469.769531 156.304688 471.457031 164.144531 472.507812 L 167.085938 472.871094 L 169.109375 473.113281 L 171.691406 473.332031 C 173.398438 473.476562 175.105469 473.621094 176.800781 473.765625 C 178.441406 473.804688 180.078125 473.84375 181.710938 473.886719 C 183.34375 473.9375 184.902344 473.90625 186.488281 473.921875 L 190.625 473.921875 C 190.699219 473.894531 190.882812 473.984375 190.863281 473.859375 L 190.867188 473.5625 C 190.921875 470.398438 190.96875 467.253906 191.019531 464.128906 C 190.957031 460.90625 190.742188 457.558594 190.613281 454.367188 L 190.5 451.960938 L 190.414062 450.589844 L 190.242188 447.933594 C 190.101562 446.164062 190.0625 444.417969 189.835938 442.675781 C 189.621094 440.933594 189.40625 439.207031 189.199219 437.492188 C 188.765625 434.070312 188.335938 430.699219 187.917969 427.378906 C 187.738281 425.71875 187.457031 424.078125 187.121094 422.453125 C 186.8125 420.832031 186.503906 419.222656 186.203125 417.625 C 185.578125 414.449219 184.96875 411.320312 184.363281 408.246094 C 183.566406 405.214844 182.785156 402.234375 182.011719 399.3125 C 180.632812 393.453125 178.527344 387.988281 176.777344 382.769531 C 175.964844 380.136719 174.722656 377.6875 173.738281 375.253906 C 172.664062 372.847656 171.785156 370.453125 170.617188 368.238281 C 168.285156 363.808594 166.261719 359.59375 163.792969 355.925781 C 159.265625 348.402344 154.320312 342.601562 150.0625 338.203125 C 148.964844 337.132812 147.925781 336.128906 146.953125 335.175781 C 145.910156 334.304688 144.9375 333.484375 144.035156 332.726562 C 143.152344 331.953125 142.265625 331.320312 141.449219 330.753906 C 140.636719 330.1875 139.933594 329.636719 139.242188 329.222656 C 136.539062 327.492188 134.984375 326.871094 134.984375 326.871094 C 134.984375 326.871094 136.378906 327.800781 138.664062 329.960938 C 139.25 330.480469 139.835938 331.152344 140.515625 331.835938 C 141.191406 332.523438 141.921875 333.28125 142.640625 334.179688 C 143.371094 335.054688 144.15625 335.996094 144.996094 337 C 145.769531 338.066406 146.585938 339.195312 147.453125 340.390625 C 150.773438 345.265625 154.511719 351.4375 157.691406 359.144531 C 159.476562 362.882812 160.800781 367.167969 162.398438 371.574219 C 163.195312 373.773438 163.71875 376.171875 164.421875 378.546875 C 164.753906 379.738281 165.09375 380.949219 165.4375 382.171875 C 165.808594 383.382812 166.097656 384.640625 166.34375 385.929688 C 167.359375 391.074219 168.703125 396.335938 169.367188 402.035156 C 169.78125 404.851562 170.207031 407.722656 170.640625 410.648438 C 170.902344 413.609375 171.164062 416.621094 171.433594 419.683594 C 171.574219 421.210938 171.714844 422.753906 171.851562 424.304688 C 172.019531 425.851562 172.136719 427.421875 172.15625 429.019531 C 172.265625 432.203125 172.378906 435.433594 172.492188 438.707031 C 172.554688 440.34375 172.621094 441.988281 172.679688 443.648438 C 172.761719 445.304688 172.65625 446.992188 172.65625 448.679688 L 172.621094 451.226562 L 172.601562 452.46875 L 172.554688 452.683594 L 172.382812 453.445312 L 172.210938 454.082031 C 171.957031 454.066406 171.632812 453.945312 171.390625 453.878906 C 171.132812 453.800781 170.910156 453.714844 170.714844 453.636719 L 170.570312 453.578125 C 170.5625 453.570312 170.5 453.554688 170.417969 453.53125 L 169.855469 453.425781 L 167.300781 452.96875 C 160.472656 451.660156 153.585938 449.839844 146.78125 447.515625 C 139.992188 445.167969 133.199219 442.453125 126.746094 438.96875 C 125.933594 438.546875 125.101562 438.152344 124.296875 437.707031 L 121.925781 436.304688 C 120.355469 435.347656 118.710938 434.492188 117.179688 433.460938 C 114.140625 431.375 110.992188 429.386719 108.140625 427 C 105.121094 424.804688 102.476562 422.238281 99.746094 419.792969 L 98.722656 418.871094 L 97.785156 417.875 L 95.917969 415.882812 C 94.699219 414.539062 93.359375 413.300781 92.230469 411.894531 C 87.65625 406.3125 83.386719 400.5625 80.019531 394.351562 C 73.039062 382.074219 68.53125 368.828125 65.574219 355.753906 C 60.148438 329.394531 60.414062 304.117188 62.226562 283.09375 C 62.308594 281.773438 62.394531 280.46875 62.476562 279.179688 C 62.628906 277.894531 62.785156 276.628906 62.933594 275.378906 C 63.226562 272.871094 63.515625 270.429688 63.796875 268.050781 C 64.347656 263.292969 64.789062 258.78125 65.566406 254.613281 C 66.238281 250.425781 66.863281 246.523438 67.441406 242.925781 C 67.726562 241.125 68 239.398438 68.261719 237.753906 C 68.589844 236.125 68.90625 234.574219 69.203125 233.105469 C 71.566406 221.347656 72.78125 214.757812 72.78125 214.757812 " fill-opacity="1" fill-rule="nonzero"/><path fill="#fbc74c" d="M 213.949219 301.710938 C 213.949219 301.710938 213.335938 299.519531 212.167969 295.359375 C 211.597656 293.28125 210.824219 290.734375 210.023438 287.703125 C 209.304688 284.644531 208.476562 281.121094 207.546875 277.160156 C 204.066406 261.320312 200.429688 238.015625 201.519531 209.574219 C 202.054688 195.375 203.832031 179.933594 207.230469 163.722656 C 208.074219 159.671875 209.085938 155.582031 210.105469 151.4375 C 211.242188 147.316406 212.308594 143.117188 213.660156 138.925781 C 214.886719 134.703125 216.394531 130.5 217.828125 126.222656 C 219.40625 121.988281 220.957031 117.6875 222.742188 113.414062 C 226.230469 104.835938 230.179688 96.214844 234.621094 87.644531 C 236.808594 83.339844 239.199219 79.101562 241.636719 74.855469 L 243.507812 71.714844 C 243.601562 71.597656 243.636719 71.59375 243.703125 71.542969 C 243.816406 71.464844 243.914062 71.40625 243.996094 71.371094 C 244.082031 71.335938 244.152344 71.320312 244.210938 71.324219 C 244.273438 71.382812 244.324219 71.5625 244.363281 71.640625 C 244.398438 71.742188 244.421875 71.824219 244.433594 71.890625 L 244.445312 71.976562 L 244.609375 72.195312 L 245.175781 72.914062 L 246.382812 74.441406 C 252.960938 82.53125 259.28125 90.941406 265.109375 99.703125 C 267.929688 104.125 270.929688 108.4375 273.332031 112.949219 C 274.609375 115.175781 275.878906 117.394531 277.144531 119.605469 C 278.25 121.867188 279.355469 124.125 280.453125 126.371094 L 282.117188 129.722656 C 282.644531 130.847656 283.058594 131.996094 283.539062 133.125 C 284.472656 135.390625 285.40625 137.648438 286.332031 139.898438 C 287.085938 142.179688 287.832031 144.449219 288.578125 146.710938 C 288.929688 147.84375 289.382812 148.964844 289.660156 150.101562 L 290.484375 153.503906 L 291.320312 156.890625 L 291.734375 158.578125 L 291.996094 160.269531 C 292.363281 162.523438 292.71875 164.765625 293.082031 167 C 293.25 169.234375 293.414062 171.453125 293.578125 173.664062 C 293.71875 174.773438 293.644531 175.863281 293.640625 176.957031 L 293.605469 180.234375 C 293.335938 188.929688 291.753906 197.328125 288.957031 205.207031 C 283.386719 221 273.046875 234.542969 261.320312 245.117188 C 260.574219 245.769531 259.832031 246.417969 259.089844 247.0625 C 258.769531 247.347656 258.691406 247.449219 258.5625 247.570312 L 258.171875 247.957031 C 257.648438 248.484375 257.070312 249 256.457031 249.546875 C 255.839844 250.078125 255.179688 250.621094 254.472656 251.160156 C 254.117188 251.429688 253.753906 251.703125 253.371094 251.960938 C 253.257812 252.089844 253.238281 251.9375 253.1875 251.882812 L 253.042969 251.671875 L 252.753906 251.230469 C 251.976562 250.042969 251.136719 248.726562 250.238281 247.273438 C 250 246.886719 249.800781 246.597656 249.558594 246.097656 L 249.367188 245.710938 L 249.089844 245.097656 L 248.527344 243.855469 C 247.773438 242.203125 247.03125 240.566406 246.292969 238.949219 C 240.578125 225.972656 236.214844 213.808594 233.804688 202.800781 C 231.324219 191.8125 230.4375 182.0625 230.664062 174.085938 C 230.867188 166.101562 232.160156 159.921875 233.429688 155.855469 C 234.699219 151.777344 235.898438 149.8125 235.898438 149.8125 C 235.898438 149.8125 234.324219 151.492188 232.257812 155.359375 C 230.195312 159.210938 227.695312 165.28125 226.054688 173.546875 C 224.394531 181.789062 223.644531 192.1875 224.515625 204.175781 C 225.3125 216.1875 228.082031 229.628906 232.367188 244.082031 C 232.925781 245.882812 233.492188 247.703125 234.066406 249.542969 C 234.386719 250.550781 234.707031 251.558594 235.03125 252.578125 C 235.4375 253.875 236.070312 255.226562 236.625 256.511719 C 239 261.894531 241.421875 267.390625 243.894531 273 L 244.863281 275.164062 L 245.351562 276.257812 C 245.535156 276.554688 245.59375 277.234375 246.015625 276.847656 C 247.359375 276.226562 248.710938 275.605469 250.070312 274.976562 C 252.769531 273.730469 255.527344 272.386719 258.363281 270.949219 C 261.191406 269.351562 264.109375 267.753906 266.992188 265.769531 L 269.183594 264.328125 C 269.921875 263.859375 270.691406 263.316406 271.203125 262.941406 C 272.144531 262.273438 273.089844 261.605469 274.035156 260.9375 C 281.539062 255.460938 288.777344 248.929688 295.359375 241.238281 C 301.925781 233.542969 307.789062 224.613281 312.195312 214.5625 C 321.132812 194.519531 323.414062 169.988281 318.195312 147.226562 L 317.300781 142.914062 C 316.996094 141.476562 316.523438 140.105469 316.140625 138.695312 C 315.320312 135.894531 314.515625 133.0625 313.636719 130.257812 C 312.605469 127.53125 311.566406 124.796875 310.527344 122.050781 C 309.992188 120.6875 309.503906 119.285156 308.914062 117.949219 L 307.066406 113.972656 C 305.820312 111.324219 304.570312 108.664062 303.3125 105.992188 C 301.902344 103.4375 300.484375 100.875 299.0625 98.304688 C 296.3125 93.070312 293.019531 88.242188 289.835938 83.273438 C 283.316406 73.46875 276.277344 64.324219 268.984375 55.710938 L 265.800781 51.867188 C 264.007812 49.921875 262.238281 48.140625 260.464844 46.277344 C 256.933594 42.613281 253.414062 38.960938 249.910156 35.324219 C 248.167969 33.519531 246.425781 31.714844 244.695312 29.917969 L 242.097656 27.230469 L 240.804688 25.894531 L 240.648438 25.730469 C 240.589844 25.679688 240.535156 25.570312 240.492188 25.6875 L 240.214844 26.070312 L 239.667969 26.832031 C 236.808594 30.820312 233.964844 34.792969 231.128906 38.746094 C 228.332031 42.761719 225.589844 46.976562 223.039062 51.351562 C 221.753906 53.503906 220.417969 55.683594 219.269531 57.851562 L 217.332031 61.476562 C 214.855469 66.300781 212.476562 71.101562 210.339844 75.945312 C 206.003906 85.597656 202.316406 95.265625 199.199219 104.847656 C 197.601562 109.625 196.269531 114.417969 194.933594 119.132812 C 193.742188 123.894531 192.507812 128.566406 191.578125 133.242188 C 190.519531 137.882812 189.773438 142.527344 188.976562 147.070312 C 188.296875 151.636719 187.644531 156.128906 187.179688 160.566406 C 185.300781 178.320312 185.335938 194.96875 186.679688 209.96875 C 189.371094 240.050781 196.910156 263.253906 203.117188 278.527344 C 204.742188 282.320312 206.1875 285.691406 207.4375 288.617188 C 208.785156 291.492188 210.027344 293.878906 210.980469 295.824219 C 212.925781 299.679688 213.949219 301.710938 213.949219 301.710938 " fill-opacity="1" fill-rule="nonzero"/><g clip-path="url(#fa13fd94ef)"><path fill="#fbc74c" d="M 162.851562 199.445312 C 162.851562 199.445312 162.925781 198.042969 163.070312 195.371094 C 163.152344 194.027344 163.207031 192.367188 163.226562 190.394531 C 163.277344 188.425781 163.292969 186.148438 163.222656 183.574219 C 163.140625 178.417969 162.804688 172.082031 161.851562 164.710938 C 160.910156 157.339844 159.363281 148.925781 156.671875 139.75 C 154.015625 130.570312 150.070312 120.664062 144.382812 110.574219 C 142.957031 108.082031 141.359375 105.507812 139.765625 103.0625 C 138.15625 100.648438 136.53125 98.160156 134.792969 95.71875 C 131.382812 90.769531 127.683594 85.835938 123.847656 80.792969 C 116.128906 70.765625 107.667969 60.566406 98.988281 50.0625 C 94.664062 44.800781 90.253906 39.464844 85.921875 33.992188 L 84.730469 32.515625 L 83.121094 30.460938 L 79.882812 26.328125 L 76.609375 22.15625 L 73.324219 17.78125 C 68.914062 11.898438 64.46875 5.976562 59.992188 0 C 57.625 6.785156 55.238281 13.644531 52.832031 20.554688 C 51.621094 24.054688 50.40625 27.566406 49.1875 31.089844 C 48.578125 32.835938 47.96875 34.589844 47.453125 36.46875 C 46.9375 38.226562 46.421875 39.984375 45.90625 41.746094 C 45.335938 43.683594 44.761719 45.628906 44.1875 47.578125 C 43.675781 49.558594 43.222656 51.566406 42.738281 53.570312 C 42.265625 55.582031 41.792969 57.59375 41.316406 59.613281 C 40.8125 61.628906 40.546875 63.730469 40.15625 65.792969 C 36.949219 83.9375 35.910156 102.660156 39.804688 120.707031 C 41.730469 129.671875 44.640625 138.457031 49.09375 146.367188 C 53.46875 154.292969 59.066406 161.351562 65.40625 167.148438 C 71.738281 172.964844 78.75 177.53125 85.871094 181.003906 C 93.003906 184.476562 100.234375 186.921875 107.351562 188.5 C 108.292969 188.707031 109.234375 188.914062 110.167969 189.121094 C 111.527344 189.367188 112.882812 189.617188 114.230469 189.863281 C 115.574219 190.136719 116.886719 190.308594 118.1875 190.449219 C 119.480469 190.59375 120.785156 190.804688 122.007812 190.839844 C 124.5 191.011719 126.867188 191.109375 129.214844 191.183594 L 130.96875 191.238281 L 131.851562 191.265625 L 132.070312 191.265625 L 132.171875 191.261719 L 132.175781 191.144531 L 132.1875 190.671875 C 132.207031 189.421875 132.230469 188.171875 132.253906 186.933594 C 132.316406 182.132812 132.378906 177.425781 132.441406 172.816406 C 132.476562 171.707031 132.421875 170.527344 132.320312 169.546875 C 132.246094 168.785156 132.171875 168.027344 132.097656 167.273438 C 131.945312 165.765625 131.796875 164.277344 131.648438 162.808594 C 130.285156 151.0625 128.109375 140.523438 125.015625 131.605469 C 121.945312 122.691406 118.195312 115.421875 114.457031 109.984375 C 110.730469 104.53125 107.066406 100.917969 104.390625 98.773438 C 101.714844 96.617188 100.0625 95.886719 100.0625 95.886719 C 100.0625 95.886719 101.53125 96.9375 103.699219 99.492188 C 105.863281 102.035156 108.695312 106.09375 111.300781 111.796875 C 113.921875 117.480469 116.285156 124.785156 117.886719 133.476562 C 119.511719 142.167969 120.144531 152.277344 120.019531 163.398438 C 119.984375 164.792969 119.945312 166.203125 119.914062 167.628906 C 119.894531 168.335938 119.875 169.050781 119.859375 169.773438 C 119.832031 170.277344 119.808594 170.59375 119.75 170.921875 C 119.550781 172.113281 119.351562 173.332031 119.144531 174.578125 L 119 175.382812 C 119.042969 175.585938 118.765625 175.441406 118.617188 175.425781 L 118.097656 175.308594 C 117.417969 175.140625 116.769531 174.953125 116.15625 174.761719 C 115.542969 174.5625 114.957031 174.367188 114.414062 174.152344 L 113.617188 173.835938 C 113.472656 173.769531 113.042969 173.632812 112.683594 173.515625 L 111.578125 173.152344 C 99.816406 169.230469 88.144531 162.671875 79.140625 153.097656 C 74.636719 148.316406 70.828125 142.792969 67.863281 136.648438 C 64.84375 130.527344 62.941406 123.652344 61.683594 116.476562 C 59.117188 102.074219 60.203125 86.097656 63.078125 69.902344 C 63.429688 68.054688 63.644531 66.207031 64.097656 64.375 C 64.515625 62.542969 64.9375 60.714844 65.355469 58.886719 C 65.769531 57.066406 66.1875 55.246094 66.601562 53.433594 C 67.101562 51.628906 67.601562 49.832031 68.101562 48.039062 L 68.179688 47.761719 L 68.171875 47.75 L 68.15625 47.738281 L 68.136719 47.691406 L 68.113281 47.523438 C 68.105469 47.402344 68.101562 47.164062 68.128906 46.953125 C 68.1875 46.925781 68.273438 46.933594 68.417969 46.980469 C 68.488281 47.007812 68.570312 47.046875 68.664062 47.09375 L 68.820312 47.179688 L 68.902344 47.230469 L 68.917969 47.234375 C 68.917969 47.234375 68.863281 47.164062 68.976562 47.292969 L 69.429688 47.804688 C 74.226562 53.265625 79.042969 58.445312 83.769531 63.480469 C 93.238281 73.519531 102.347656 82.867188 110.707031 91.878906 C 114.855469 96.394531 118.886719 100.792969 122.625 105.160156 C 124.535156 107.320312 126.320312 109.5 128.109375 111.632812 C 129.871094 113.777344 131.460938 115.792969 133.019531 117.902344 C 139.148438 126.304688 143.953125 134.890625 147.601562 143.09375 C 151.289062 151.28125 153.957031 159.023438 155.972656 165.925781 C 157.992188 172.828125 159.359375 178.898438 160.316406 183.878906 C 160.824219 186.371094 161.210938 188.59375 161.515625 190.523438 C 161.851562 192.449219 162.105469 194.082031 162.277344 195.410156 C 162.652344 198.054688 162.851562 199.445312 162.851562 199.445312 " fill-opacity="1" fill-rule="nonzero"/></g><g clip-path="url(#37a786ffc4)"><path fill="#fbc74c" d="M 271.824219 667.410156 C 272.433594 672.742188 272.34375 677.839844 271.925781 682.714844 C 271.28125 687.652344 270.167969 692.324219 268.757812 696.675781 C 267.058594 700.964844 265.230469 705.007812 262.875 708.761719 C 261.503906 710.519531 260.523438 712.5 258.964844 714.09375 C 257.714844 715.90625 256.058594 717.378906 254.632812 719.050781 C 252.941406 720.453125 251.496094 722.140625 249.660156 723.359375 C 248.816406 724.066406 248.007812 724.835938 247.046875 725.371094 L 244.316406 727.246094 C 240.574219 729.597656 236.527344 731.414062 232.246094 733.09375 C 227.902344 734.519531 223.238281 735.582031 218.3125 736.25 C 213.449219 736.644531 208.355469 736.75 203.039062 736.140625 C 181.949219 733.519531 157.082031 719.878906 140.738281 687.5625 C 136.691406 695.660156 134.449219 704.917969 134.1875 714.546875 C 134.015625 724.140625 135.660156 734.101562 139.15625 743.707031 C 142.789062 753.207031 148.15625 762.324219 155.042969 770.53125 C 162.046875 778.59375 170.570312 785.625 180.1875 791.246094 C 189.859375 796.789062 200.632812 800.589844 211.824219 802.878906 C 217.4375 803.675781 223.125 804.660156 228.878906 804.574219 L 233.199219 804.648438 C 234.640625 804.695312 236.085938 804.636719 237.527344 804.488281 C 240.410156 804.246094 243.308594 803.96875 246.203125 803.65625 C 257.730469 801.921875 269.089844 798.449219 279.664062 793.226562 C 282.285156 791.898438 284.796875 790.355469 287.347656 788.878906 C 289.933594 787.449219 292.316406 785.734375 294.710938 784.007812 C 299.554688 780.640625 303.871094 776.617188 308.203125 772.617188 C 312.175781 768.265625 316.238281 763.980469 319.570312 759.105469 C 321.292969 756.71875 323.007812 754.332031 324.441406 751.746094 C 325.914062 749.195312 327.460938 746.6875 328.765625 744.054688 C 333.984375 733.484375 337.445312 722.121094 339.164062 710.601562 C 339.476562 707.710938 339.761719 704.816406 339.996094 701.933594 C 340.300781 699.046875 340.082031 696.15625 340.074219 693.289062 C 340.164062 687.542969 339.152344 681.855469 338.367188 676.25 C 336.058594 665.066406 332.273438 654.300781 326.726562 644.640625 C 321.101562 635.042969 314.09375 626.523438 306.027344 619.523438 C 297.832031 612.644531 288.726562 607.285156 279.238281 603.644531 C 269.648438 600.152344 259.699219 598.5 250.113281 598.65625 C 240.492188 598.910156 231.242188 601.128906 223.148438 605.152344 C 255.464844 621.394531 269.195312 646.28125 271.824219 667.410156 Z M 199.546875 363.800781 C 205.085938 373.414062 209.292969 383.644531 212.570312 394.285156 C 215.863281 404.929688 217.984375 416.007812 219.132812 427.328125 C 221.410156 449.945312 219.230469 473.574219 213.132812 495.964844 C 207.160156 518.429688 197.527344 539.554688 186.601562 558.660156 C 175.6875 577.820312 163.523438 595.125 152.277344 611.160156 C 141.074219 627.1875 130.734375 641.964844 123.578125 655.890625 C 122.632812 657.640625 121.816406 659.371094 121.011719 661.105469 C 120.125 662.835938 119.480469 664.527344 118.667969 666.253906 C 117.34375 669.683594 115.925781 673.089844 114.945312 676.550781 C 112.78125 683.453125 111.382812 690.574219 110.859375 698.304688 C 110.335938 706.011719 110.644531 714.304688 111.757812 723.054688 C 112.875 731.800781 114.792969 740.949219 117.199219 750.367188 C 119.550781 759.804688 122.640625 769.402344 125.742188 779.335938 C 128.863281 789.273438 132.5 799.238281 135.589844 809.96875 C 125.796875 804.765625 116.597656 798.734375 108.042969 791.820312 C 99.40625 784.964844 91.210938 777.40625 83.757812 768.847656 C 76.289062 760.3125 69.433594 750.878906 63.613281 740.332031 C 57.789062 729.8125 53.042969 718.113281 50.09375 705.464844 C 49.265625 702.332031 48.773438 699.078125 48.203125 695.84375 C 47.710938 692.59375 47.382812 689.289062 47.050781 685.976562 C 46.65625 679.351562 46.511719 672.601562 47.109375 665.949219 C 48.101562 652.585938 51.152344 639.585938 55.417969 627.671875 C 57.460938 621.632812 59.976562 616.003906 62.488281 610.433594 C 65.074219 604.984375 67.859375 599.683594 70.691406 594.644531 C 73.558594 589.5625 76.550781 584.785156 79.53125 580.0625 C 82.582031 575.402344 85.628906 570.890625 88.695312 566.496094 C 101.039062 549.015625 113.480469 533.503906 125.003906 518.351562 C 136.558594 503.210938 147.195312 488.476562 156.683594 472.949219 C 166.148438 457.425781 174.433594 441.023438 181.367188 422.921875 C 184.859375 413.882812 188.039062 404.449219 191.03125 394.601562 C 193.921875 384.746094 196.523438 374.527344 199.546875 363.800781 " fill-opacity="1" fill-rule="nonzero"/></g></svg>