<svg xmlns="http://www.w3.org/2000/svg" xmlns:xlink="http://www.w3.org/1999/xlink" width="1080" zoomAndPan="magnify" viewBox="0 0 810 809.999993" height="1080" preserveAspectRatio="xMidYMid meet" version="1.0"><defs><clipPath id="3348717e81"><path d="M 57.644531 3.75 L 704 3.75 L 704 327 L 57.644531 327 Z M 57.644531 3.75 " clip-rule="nonzero"/></clipPath><clipPath id="0204e60e69"><path d="M 285 194 L 627 194 L 627 803 L 285 803 Z M 285 194 " clip-rule="nonzero"/></clipPath><clipPath id="02696974a5"><path d="M 385.597656 879.53125 L 159.988281 264.078125 L 428.28125 165.730469 L 653.890625 781.179688 Z M 385.597656 879.53125 " clip-rule="nonzero"/></clipPath><clipPath id="0a7314b6f0"><path d="M 385.597656 879.53125 L 159.988281 264.078125 L 428.28125 165.730469 L 653.890625 781.179688 Z M 385.597656 879.53125 " clip-rule="nonzero"/></clipPath></defs><g clip-path="url(#3348717e81)"><path fill="#fbc74c" d="M 703.792969 326.824219 L 569.582031 326.824219 C 569.582031 222.679688 484.863281 137.960938 380.71875 137.960938 C 276.578125 137.960938 191.863281 222.679688 191.863281 326.824219 L 57.652344 326.824219 C 57.652344 148.675781 202.578125 3.75 380.71875 3.75 C 558.859375 3.75 703.792969 148.675781 703.792969 326.824219 Z M 703.792969 326.824219 " fill-opacity="1" fill-rule="nonzero"/></g><g clip-path="url(#0204e60e69)"><g clip-path="url(#02696974a5)"><g clip-path="url(#0a7314b6f0)"><path fill="#fbc74c" d="M 448.847656 238.664062 C 450.375 242.800781 451.480469 247.042969 452.167969 251.398438 C 452.851562 255.753906 453.105469 260.132812 452.929688 264.539062 C 452.75 268.945312 452.140625 273.289062 451.105469 277.574219 C 450.070312 281.859375 448.621094 286 446.769531 290 C 444.792969 294.292969 442.921875 298.628906 441.15625 303.015625 C 439.394531 307.398438 437.738281 311.824219 436.191406 316.289062 C 434.644531 320.753906 433.207031 325.253906 431.878906 329.789062 C 430.554688 334.324219 429.335938 338.886719 428.234375 343.484375 C 427.128906 348.078125 426.140625 352.695312 425.261719 357.339844 C 424.382812 361.984375 423.621094 366.644531 422.972656 371.324219 C 422.320312 376.007812 421.785156 380.699219 421.367188 385.40625 C 420.945312 390.113281 420.640625 394.828125 420.453125 399.550781 C 420.265625 404.269531 420.191406 408.996094 420.234375 413.71875 C 420.273438 418.445312 420.433594 423.167969 420.707031 427.882812 C 420.976562 432.601562 421.367188 437.308594 421.871094 442.007812 C 422.375 446.707031 422.992188 451.390625 423.722656 456.058594 C 424.457031 460.726562 425.304688 465.375 426.261719 470 C 427.222656 474.628906 428.296875 479.230469 429.480469 483.804688 C 430.664062 488.378906 431.960938 492.921875 433.371094 497.433594 C 434.777344 501.941406 436.292969 506.417969 437.921875 510.851562 C 439.546875 515.289062 441.28125 519.683594 443.121094 524.035156 C 444.964844 528.386719 446.910156 532.691406 448.960938 536.949219 C 451.015625 541.207031 453.167969 545.410156 455.425781 549.5625 C 457.683594 553.710938 460.042969 557.804688 462.5 561.839844 C 464.960938 565.878906 467.515625 569.851562 470.167969 573.761719 C 472.820312 577.671875 475.566406 581.515625 478.40625 585.292969 C 481.246094 589.066406 484.179688 592.773438 487.199219 596.40625 C 490.222656 600.039062 493.332031 603.59375 496.527344 607.078125 C 499.722656 610.558594 503.003906 613.957031 506.367188 617.277344 C 509.726562 620.597656 513.167969 623.835938 516.691406 626.984375 C 520.210938 630.136719 523.808594 633.203125 527.476562 636.179688 C 531.148438 639.152344 534.890625 642.039062 538.699219 644.832031 C 542.511719 647.625 546.390625 650.320312 550.335938 652.925781 C 554.277344 655.527344 558.285156 658.03125 562.351562 660.441406 C 566.417969 662.847656 570.539062 665.152344 574.71875 667.359375 C 578.898438 669.5625 583.128906 671.667969 587.410156 673.664062 C 588.410156 674.128906 589.398438 674.621094 590.375 675.136719 C 591.351562 675.652344 592.3125 676.191406 593.261719 676.75 C 594.210938 677.3125 595.148438 677.898438 596.066406 678.507812 C 596.988281 679.113281 597.894531 679.746094 598.78125 680.398438 C 599.671875 681.050781 600.546875 681.722656 601.402344 682.417969 C 602.257812 683.113281 603.097656 683.832031 603.921875 684.566406 C 604.742188 685.304688 605.542969 686.058594 606.328125 686.835938 C 607.113281 687.613281 607.878906 688.40625 608.625 689.21875 C 609.367188 690.035156 610.09375 690.863281 610.796875 691.714844 C 611.503906 692.5625 612.1875 693.429688 612.847656 694.3125 C 613.511719 695.195312 614.148438 696.09375 614.769531 697.007812 C 615.386719 697.921875 615.980469 698.847656 616.554688 699.792969 C 617.125 700.734375 617.675781 701.691406 618.199219 702.664062 C 618.726562 703.632812 619.226562 704.617188 619.703125 705.609375 C 620.179688 706.605469 620.632812 707.609375 621.0625 708.628906 C 621.488281 709.644531 621.890625 710.671875 622.269531 711.710938 C 622.644531 712.746094 622.996094 713.792969 623.324219 714.84375 C 623.648438 715.898438 623.949219 716.960938 624.222656 718.03125 C 624.496094 719.097656 624.746094 720.171875 624.964844 721.253906 C 625.1875 722.335938 625.382812 723.421875 625.550781 724.511719 C 625.714844 725.601562 625.859375 726.695312 625.972656 727.792969 C 626.085938 728.890625 626.171875 729.992188 626.234375 731.09375 C 626.292969 732.195312 626.324219 733.296875 626.332031 734.398438 C 626.339844 735.503906 626.316406 736.605469 626.269531 737.707031 C 626.21875 738.808594 626.144531 739.910156 626.042969 741.007812 C 625.941406 742.109375 625.8125 743.203125 625.65625 744.296875 C 625.5 745.386719 625.316406 746.476562 625.109375 747.558594 C 624.898438 748.640625 624.664062 749.71875 624.398438 750.792969 C 624.136719 751.863281 623.847656 752.929688 623.535156 753.984375 C 623.21875 755.042969 622.878906 756.09375 622.515625 757.132812 C 622.148438 758.171875 621.757812 759.203125 621.339844 760.226562 C 620.921875 761.25 620.480469 762.257812 620.015625 763.257812 C 619.546875 764.257812 619.058594 765.246094 618.542969 766.222656 C 618.027344 767.199219 617.488281 768.160156 616.925781 769.109375 C 616.367188 770.058594 615.78125 770.996094 615.171875 771.914062 C 614.5625 772.835938 613.933594 773.742188 613.28125 774.632812 C 612.628906 775.519531 611.957031 776.394531 611.261719 777.25 C 610.566406 778.109375 609.847656 778.945312 609.113281 779.769531 C 608.375 780.589844 607.621094 781.390625 606.84375 782.175781 C 606.066406 782.960938 605.273438 783.726562 604.460938 784.472656 C 603.644531 785.21875 602.816406 785.941406 601.964844 786.644531 C 601.117188 787.351562 600.25 788.035156 599.367188 788.695312 C 598.484375 789.359375 597.585938 790 596.671875 790.617188 C 595.757812 791.234375 594.828125 791.828125 593.886719 792.402344 C 592.945312 792.972656 591.988281 793.523438 591.015625 794.046875 C 590.046875 794.574219 589.0625 795.074219 588.070312 795.550781 C 587.074219 796.027344 586.066406 796.480469 585.050781 796.910156 C 584.035156 797.335938 583.007812 797.738281 581.96875 798.117188 C 580.933594 798.492188 579.886719 798.84375 578.832031 799.171875 C 577.78125 799.496094 576.71875 799.796875 575.648438 800.070312 C 574.582031 800.34375 573.503906 800.59375 572.425781 800.8125 C 571.34375 801.035156 570.257812 801.230469 569.167969 801.398438 C 568.078125 801.566406 566.984375 801.707031 565.886719 801.820312 C 564.789062 801.933594 563.6875 802.019531 562.585938 802.082031 C 561.484375 802.140625 560.382812 802.175781 559.28125 802.179688 C 558.175781 802.1875 557.074219 802.164062 555.972656 802.117188 C 554.867188 802.070312 553.769531 801.992188 552.667969 801.890625 C 551.570312 801.789062 550.476562 801.660156 549.382812 801.503906 C 548.292969 801.347656 547.203125 801.164062 546.121094 800.957031 C 545.035156 800.746094 543.960938 800.511719 542.886719 800.246094 C 541.816406 799.984375 540.75 799.695312 539.695312 799.382812 C 538.636719 799.066406 537.585938 798.726562 536.546875 798.363281 C 535.503906 797.996094 534.472656 797.605469 533.453125 797.1875 C 532.429688 796.769531 531.421875 796.328125 530.421875 795.863281 C 524.144531 792.9375 517.945312 789.855469 511.820312 786.625 C 505.695312 783.394531 499.652344 780.015625 493.691406 776.488281 C 487.734375 772.964844 481.863281 769.292969 476.082031 765.480469 C 470.304688 761.664062 464.621094 757.710938 459.03125 753.621094 C 453.445312 749.527344 447.964844 745.300781 442.582031 740.941406 C 437.203125 736.582031 431.933594 732.09375 426.773438 727.472656 C 421.613281 722.855469 416.570312 718.113281 411.644531 713.25 C 406.714844 708.382812 401.910156 703.402344 397.226562 698.300781 C 392.542969 693.199219 387.984375 687.988281 383.554688 682.664062 C 379.128906 677.339844 374.832031 671.914062 370.667969 666.378906 C 366.503906 660.84375 362.480469 655.214844 358.59375 649.484375 C 354.703125 643.753906 350.960938 637.929688 347.355469 632.015625 C 343.753906 626.101562 340.300781 620.101562 336.992188 614.019531 C 333.679688 607.9375 330.523438 601.777344 327.515625 595.539062 C 324.507812 589.300781 321.65625 582.992188 318.957031 576.617188 C 316.257812 570.238281 313.71875 563.796875 311.335938 557.296875 C 308.949219 550.796875 306.726562 544.238281 304.664062 537.628906 C 302.601562 531.019531 300.703125 524.359375 298.964844 517.65625 C 297.230469 510.953125 295.660156 504.210938 294.25 497.429688 C 292.84375 490.652344 291.605469 483.839844 290.53125 477 C 289.457031 470.15625 288.554688 463.292969 287.816406 456.410156 C 287.078125 449.523438 286.511719 442.625 286.109375 435.710938 C 285.710938 428.796875 285.480469 421.878906 285.417969 414.953125 C 285.359375 408.03125 285.464844 401.109375 285.746094 394.1875 C 286.023438 387.269531 286.46875 380.359375 287.085938 373.464844 C 287.699219 366.566406 288.484375 359.6875 289.4375 352.828125 C 290.390625 345.96875 291.511719 339.136719 292.796875 332.332031 C 294.085938 325.53125 295.535156 318.761719 297.15625 312.027344 C 298.773438 305.292969 300.554688 298.605469 302.5 291.960938 C 304.445312 285.3125 306.554688 278.71875 308.824219 272.175781 C 311.089844 265.632812 313.519531 259.148438 316.105469 252.726562 C 318.691406 246.300781 321.429688 239.945312 324.328125 233.65625 C 325.019531 232.152344 325.769531 230.671875 326.570312 229.222656 C 327.371094 227.773438 328.226562 226.355469 329.132812 224.96875 C 330.039062 223.582031 330.996094 222.230469 332.003906 220.914062 C 333.007812 219.59375 334.0625 218.316406 335.164062 217.078125 C 336.265625 215.839844 337.410156 214.644531 338.597656 213.488281 C 339.785156 212.335938 341.015625 211.226562 342.285156 210.164062 C 343.558594 209.097656 344.867188 208.082031 346.210938 207.117188 C 347.558594 206.148438 348.9375 205.230469 350.347656 204.367188 C 351.761719 203.5 353.207031 202.6875 354.679688 201.929688 C 356.152344 201.171875 357.648438 200.46875 359.175781 199.820312 C 360.699219 199.171875 362.246094 198.578125 363.816406 198.042969 C 365.382812 197.507812 366.96875 197.035156 368.574219 196.617188 C 370.175781 196.199219 371.792969 195.839844 373.425781 195.542969 C 375.054688 195.246094 376.691406 195.007812 378.339844 194.828125 C 379.988281 194.652344 381.640625 194.535156 383.296875 194.480469 C 384.953125 194.425781 386.609375 194.429688 388.265625 194.496094 C 389.917969 194.5625 391.570312 194.691406 393.21875 194.878906 C 394.863281 195.066406 396.5 195.316406 398.128906 195.625 C 399.757812 195.933594 401.371094 196.300781 402.972656 196.730469 C 404.574219 197.160156 406.15625 197.644531 407.71875 198.191406 C 409.285156 198.734375 410.828125 199.335938 412.347656 199.996094 C 413.867188 200.65625 415.363281 201.367188 416.832031 202.136719 C 418.300781 202.90625 419.738281 203.726562 421.144531 204.601562 C 422.550781 205.476562 423.925781 206.402344 425.261719 207.378906 C 426.601562 208.355469 427.902344 209.378906 429.167969 210.453125 C 430.429688 211.523438 431.652344 212.640625 432.835938 213.804688 C 434.015625 214.964844 435.152344 216.167969 436.246094 217.414062 C 437.335938 218.660156 438.382812 219.945312 439.378906 221.269531 C 440.375 222.59375 441.324219 223.949219 442.222656 225.34375 C 443.117188 226.738281 443.964844 228.160156 444.757812 229.617188 C 445.546875 231.070312 446.285156 232.554688 446.96875 234.0625 C 447.652344 235.574219 448.277344 237.105469 448.847656 238.664062 Z M 448.847656 238.664062 " fill-opacity="1" fill-rule="nonzero"/></g></g></g></svg>