<svg xmlns="http://www.w3.org/2000/svg" xmlns:xlink="http://www.w3.org/1999/xlink" width="1080" zoomAndPan="magnify" viewBox="0 0 810 809.999993" height="1080" preserveAspectRatio="xMidYMid meet" version="1.0"><path stroke-linecap="butt" transform="matrix(0.638169, -0.638169, 0.638169, 0.638169, -36.272141, 722.429984)" fill="none" stroke-linejoin="miter" d="M 30.041231 29.789804 L 164.012212 29.789804 L 164.009151 164.259649 L 30.03817 164.259649 Z M 30.041231 29.789804 " stroke="#e6ae63" stroke-width="3" stroke-opacity="1" stroke-miterlimit="10"/><path fill="#fbc74c" d="M 47.832031 722.269531 L 87.410156 682.691406 L 127.308594 722.589844 L 87.730469 762.167969 Z M 47.832031 722.269531 " fill-opacity="1" fill-rule="nonzero"/><path stroke-linecap="butt" transform="matrix(0, -0.902507, 0.902507, 0, 0.0000035, 809.999979)" fill="none" stroke-linejoin="miter" d="M 879.568172 96.718434 L 96.718415 96.718434 L 96.718415 879.568191 " stroke="#e6ae63" stroke-width="3" stroke-opacity="1" stroke-miterlimit="10"/><path stroke-linecap="butt" transform="matrix(0, -0.902507, 0.902507, 0, 0.0000035, 809.999979)" fill="none" stroke-linejoin="miter" d="M 55.210771 259.321061 L 55.210771 663.568296 " stroke="#e6ae63" stroke-width="3" stroke-opacity="1" stroke-miterlimit="10"/><path stroke-linecap="butt" transform="matrix(0, -0.902507, 0.902507, 0, 0.0000035, 809.999979)" fill="none" stroke-linejoin="miter" d="M 259.321042 55.21079 L 663.568277 55.21079 " stroke="#e6ae63" stroke-width="3" stroke-opacity="1" stroke-miterlimit="10"/><path stroke-linecap="butt" transform="matrix(-0.638169, 0.638169, -0.638169, -0.638169, 1298.996434, 1172.807769)" fill="none" stroke-linejoin="miter" d="M 77.260552 783.081336 L 116.930947 783.081336 L 116.930947 822.751731 L 77.260552 822.751731 Z M 77.260552 783.081336 " stroke="#e6ae63" stroke-width="3" stroke-opacity="1" stroke-miterlimit="10"/><path stroke-linecap="butt" transform="matrix(-0.638169, 0.638169, -0.638169, -0.638169, 661.980138, -365.07336)" fill="none" stroke-linejoin="miter" d="M 783.080784 77.260053 L 822.751179 77.260053 L 822.751179 116.930448 L 783.080784 116.930448 Z M 783.080784 77.260053 " stroke="#e6ae63" stroke-width="3" stroke-opacity="1" stroke-miterlimit="10"/><path stroke-linecap="butt" transform="matrix(-0.638169, 0.638169, -0.638169, -0.638169, 1336.376528, 1188.29468)" fill="none" stroke-linejoin="miter" d="M 77.259496 807.348017 L 116.92989 807.348017 L 116.92989 847.018411 L 77.259496 847.018411 Z M 77.259496 807.348017 " stroke="#e6ae63" stroke-width="3" stroke-opacity="1" stroke-miterlimit="10"/><path stroke-linecap="butt" transform="matrix(-0.638169, 0.638169, -0.638169, -0.638169, 677.467697, -402.455115)" fill="none" stroke-linejoin="miter" d="M 807.349273 77.260316 L 847.019668 77.260316 L 847.019668 116.930711 L 807.349273 116.930711 Z M 807.349273 77.260316 " stroke="#e6ae63" stroke-width="3" stroke-opacity="1" stroke-miterlimit="10"/><path stroke-linecap="butt" transform="matrix(-0.638169, 0.638169, -0.638169, -0.638169, 1373.760414, 1203.781375)" fill="none" stroke-linejoin="miter" d="M 77.261579 831.611378 L 116.928914 831.608317 L 116.928914 871.278712 L 77.258519 871.278712 Z M 77.261579 831.611378 " stroke="#e6ae63" stroke-width="3" stroke-opacity="1" stroke-miterlimit="10"/><path stroke-linecap="butt" transform="matrix(-0.638169, 0.638169, -0.638169, -0.638169, 692.953793, -439.83735)" fill="none" stroke-linejoin="miter" d="M 831.61087 77.259056 L 871.281265 77.259056 L 871.281265 116.92945 L 831.61087 116.92945 Z M 831.61087 77.259056 " stroke="#e6ae63" stroke-width="3" stroke-opacity="1" stroke-miterlimit="10"/><path fill="#fbc74c" d="M 802.402344 714.75 C 802.902344 714.75 803.398438 714.796875 803.886719 714.894531 C 804.378906 714.992188 804.855469 715.136719 805.320312 715.328125 C 805.78125 715.523438 806.222656 715.757812 806.636719 716.035156 C 807.054688 716.3125 807.4375 716.628906 807.792969 716.984375 C 808.148438 717.335938 808.464844 717.722656 808.742188 718.140625 C 809.019531 718.554688 809.253906 718.996094 809.445312 719.457031 C 809.636719 719.917969 809.78125 720.398438 809.878906 720.886719 C 809.976562 721.378906 810.027344 721.875 810.027344 722.375 C 810.027344 722.875 809.976562 723.371094 809.878906 723.863281 C 809.78125 724.355469 809.636719 724.832031 809.445312 725.292969 C 809.253906 725.757812 809.019531 726.195312 808.742188 726.613281 C 808.464844 727.027344 808.148438 727.414062 807.792969 727.769531 C 807.4375 728.121094 807.054688 728.4375 806.636719 728.714844 C 806.222656 728.996094 805.78125 729.230469 805.320312 729.421875 C 804.855469 729.613281 804.378906 729.757812 803.886719 729.855469 C 803.398438 729.953125 802.902344 730 802.402344 730 C 801.898438 730 801.402344 729.953125 800.914062 729.855469 C 800.421875 729.757812 799.945312 729.613281 799.484375 729.421875 C 799.019531 729.230469 798.582031 728.996094 798.164062 728.714844 C 797.746094 728.4375 797.363281 728.121094 797.007812 727.769531 C 796.652344 727.414062 796.339844 727.027344 796.058594 726.613281 C 795.78125 726.195312 795.546875 725.757812 795.355469 725.292969 C 795.164062 724.832031 795.019531 724.355469 794.921875 723.863281 C 794.824219 723.371094 794.773438 722.875 794.773438 722.375 C 794.773438 721.875 794.824219 721.378906 794.921875 720.886719 C 795.019531 720.398438 795.164062 719.917969 795.355469 719.457031 C 795.546875 718.996094 795.78125 718.554688 796.058594 718.140625 C 796.339844 717.722656 796.652344 717.335938 797.007812 716.984375 C 797.363281 716.628906 797.746094 716.3125 798.164062 716.035156 C 798.582031 715.757812 799.019531 715.523438 799.484375 715.328125 C 799.945312 715.136719 800.421875 714.992188 800.914062 714.894531 C 801.402344 714.796875 801.898438 714.75 802.402344 714.75 Z M 802.402344 714.75 " fill-opacity="1" fill-rule="nonzero"/><path fill="#fbc74c" d="M 87.625 -0.0273438 C 88.125 -0.0273438 88.621094 0.0234375 89.113281 0.121094 C 89.601562 0.21875 90.082031 0.363281 90.542969 0.554688 C 91.003906 0.746094 91.445312 0.980469 91.859375 1.257812 C 92.277344 1.535156 92.664062 1.851562 93.015625 2.207031 C 93.371094 2.5625 93.6875 2.945312 93.964844 3.363281 C 94.242188 3.777344 94.476562 4.21875 94.671875 4.679688 C 94.863281 5.144531 95.007812 5.621094 95.105469 6.113281 C 95.203125 6.601562 95.25 7.097656 95.25 7.597656 C 95.25 8.101562 95.203125 8.597656 95.105469 9.085938 C 95.007812 9.578125 94.863281 10.054688 94.671875 10.515625 C 94.476562 10.980469 94.242188 11.417969 93.964844 11.835938 C 93.6875 12.253906 93.371094 12.636719 93.015625 12.992188 C 92.664062 13.347656 92.277344 13.660156 91.859375 13.941406 C 91.445312 14.21875 91.003906 14.453125 90.542969 14.644531 C 90.082031 14.835938 89.601562 14.980469 89.113281 15.078125 C 88.621094 15.175781 88.125 15.226562 87.625 15.226562 C 87.125 15.226562 86.628906 15.175781 86.136719 15.078125 C 85.644531 14.980469 85.167969 14.835938 84.707031 14.644531 C 84.242188 14.453125 83.804688 14.21875 83.386719 13.941406 C 82.972656 13.660156 82.585938 13.347656 82.230469 12.992188 C 81.878906 12.636719 81.5625 12.253906 81.285156 11.835938 C 81.003906 11.417969 80.769531 10.980469 80.578125 10.515625 C 80.386719 10.054688 80.242188 9.578125 80.144531 9.085938 C 80.046875 8.597656 80 8.101562 80 7.597656 C 80 7.097656 80.046875 6.601562 80.144531 6.113281 C 80.242188 5.621094 80.386719 5.144531 80.578125 4.679688 C 80.769531 4.21875 81.003906 3.777344 81.285156 3.363281 C 81.5625 2.945312 81.878906 2.5625 82.230469 2.207031 C 82.585938 1.851562 82.972656 1.535156 83.386719 1.257812 C 83.804688 0.980469 84.242188 0.746094 84.707031 0.554688 C 85.167969 0.363281 85.644531 0.21875 86.136719 0.121094 C 86.628906 0.0234375 87.125 -0.0273438 87.625 -0.0273438 Z M 87.625 -0.0273438 " fill-opacity="1" fill-rule="nonzero"/><path fill="#fbc74c" d="M 690.859375 714.75 C 691.359375 714.75 691.855469 714.796875 692.347656 714.894531 C 692.839844 714.992188 693.316406 715.136719 693.777344 715.328125 C 694.242188 715.523438 694.679688 715.757812 695.097656 716.035156 C 695.511719 716.3125 695.898438 716.628906 696.253906 716.984375 C 696.605469 717.335938 696.921875 717.722656 697.199219 718.140625 C 697.480469 718.554688 697.714844 718.996094 697.90625 719.457031 C 698.097656 719.917969 698.242188 720.398438 698.339844 720.886719 C 698.4375 721.378906 698.484375 721.875 698.484375 722.375 C 698.484375 722.875 698.4375 723.371094 698.339844 723.863281 C 698.242188 724.355469 698.097656 724.832031 697.90625 725.292969 C 697.714844 725.757812 697.480469 726.195312 697.199219 726.613281 C 696.921875 727.027344 696.605469 727.414062 696.253906 727.769531 C 695.898438 728.121094 695.511719 728.4375 695.097656 728.714844 C 694.679688 728.996094 694.242188 729.230469 693.777344 729.421875 C 693.316406 729.613281 692.839844 729.757812 692.347656 729.855469 C 691.855469 729.953125 691.359375 730 690.859375 730 C 690.359375 730 689.863281 729.953125 689.371094 729.855469 C 688.882812 729.757812 688.402344 729.613281 687.941406 729.421875 C 687.480469 729.230469 687.039062 728.996094 686.621094 728.714844 C 686.207031 728.4375 685.820312 728.121094 685.46875 727.769531 C 685.113281 727.414062 684.796875 727.027344 684.519531 726.613281 C 684.242188 726.195312 684.007812 725.757812 683.8125 725.292969 C 683.621094 724.832031 683.476562 724.355469 683.378906 723.863281 C 683.28125 723.371094 683.234375 722.875 683.234375 722.375 C 683.234375 721.875 683.28125 721.378906 683.378906 720.886719 C 683.476562 720.398438 683.621094 719.917969 683.8125 719.457031 C 684.007812 718.996094 684.242188 718.554688 684.519531 718.140625 C 684.796875 717.722656 685.113281 717.335938 685.46875 716.984375 C 685.820312 716.628906 686.207031 716.3125 686.621094 716.035156 C 687.039062 715.757812 687.480469 715.523438 687.941406 715.328125 C 688.402344 715.136719 688.882812 714.992188 689.371094 714.894531 C 689.863281 714.796875 690.359375 714.75 690.859375 714.75 Z M 690.859375 714.75 " fill-opacity="1" fill-rule="nonzero"/><path fill="#fbc74c" d="M 87.625 111.515625 C 88.125 111.515625 88.621094 111.5625 89.113281 111.660156 C 89.601562 111.757812 90.082031 111.902344 90.542969 112.09375 C 91.003906 112.285156 91.445312 112.519531 91.859375 112.800781 C 92.277344 113.078125 92.664062 113.394531 93.015625 113.746094 C 93.371094 114.101562 93.6875 114.488281 93.964844 114.902344 C 94.242188 115.320312 94.476562 115.757812 94.671875 116.222656 C 94.863281 116.683594 95.007812 117.160156 95.105469 117.652344 C 95.203125 118.144531 95.25 118.640625 95.25 119.140625 C 95.25 119.640625 95.203125 120.136719 95.105469 120.628906 C 95.007812 121.117188 94.863281 121.597656 94.671875 122.058594 C 94.476562 122.519531 94.242188 122.960938 93.964844 123.375 C 93.6875 123.792969 93.371094 124.179688 93.015625 124.53125 C 92.664062 124.886719 92.277344 125.203125 91.859375 125.480469 C 91.445312 125.757812 91.003906 125.992188 90.542969 126.1875 C 90.082031 126.378906 89.601562 126.523438 89.113281 126.621094 C 88.621094 126.71875 88.125 126.765625 87.625 126.765625 C 87.125 126.765625 86.628906 126.71875 86.136719 126.621094 C 85.644531 126.523438 85.167969 126.378906 84.707031 126.1875 C 84.242188 125.992188 83.804688 125.757812 83.386719 125.480469 C 82.972656 125.203125 82.585938 124.886719 82.230469 124.53125 C 81.878906 124.179688 81.5625 123.792969 81.285156 123.375 C 81.003906 122.960938 80.769531 122.519531 80.578125 122.058594 C 80.386719 121.597656 80.242188 121.117188 80.144531 120.628906 C 80.046875 120.136719 80 119.640625 80 119.140625 C 80 118.640625 80.046875 118.144531 80.144531 117.652344 C 80.242188 117.160156 80.386719 116.683594 80.578125 116.222656 C 80.769531 115.757812 81.003906 115.320312 81.285156 114.902344 C 81.5625 114.488281 81.878906 114.101562 82.230469 113.746094 C 82.585938 113.394531 82.972656 113.078125 83.386719 112.800781 C 83.804688 112.519531 84.242188 112.285156 84.707031 112.09375 C 85.167969 111.902344 85.644531 111.757812 86.136719 111.660156 C 86.628906 111.5625 87.125 111.515625 87.625 111.515625 Z M 87.625 111.515625 " fill-opacity="1" fill-rule="nonzero"/><path fill="#fbc74c" d="M 606.925781 748.097656 C 607.71875 748.097656 608.503906 748.175781 609.28125 748.328125 C 610.058594 748.484375 610.816406 748.710938 611.546875 749.015625 C 612.28125 749.320312 612.976562 749.691406 613.636719 750.132812 C 614.296875 750.574219 614.90625 751.074219 615.464844 751.632812 C 616.027344 752.195312 616.527344 752.804688 616.96875 753.464844 C 617.40625 754.121094 617.78125 754.820312 618.082031 755.550781 C 618.386719 756.285156 618.617188 757.039062 618.769531 757.816406 C 618.925781 758.59375 619.003906 759.378906 619.003906 760.171875 C 619.003906 760.964844 618.925781 761.75 618.769531 762.527344 C 618.617188 763.304688 618.386719 764.0625 618.082031 764.792969 C 617.78125 765.527344 617.40625 766.222656 616.96875 766.882812 C 616.527344 767.539062 616.027344 768.152344 615.464844 768.710938 C 614.90625 769.273438 614.292969 769.773438 613.636719 770.214844 C 612.976562 770.652344 612.28125 771.027344 611.546875 771.328125 C 610.816406 771.632812 610.058594 771.863281 609.28125 772.015625 C 608.503906 772.171875 607.71875 772.25 606.925781 772.25 C 606.132812 772.25 605.347656 772.171875 604.570312 772.015625 C 603.792969 771.863281 603.039062 771.632812 602.304688 771.328125 C 601.574219 771.027344 600.878906 770.652344 600.21875 770.214844 C 599.558594 769.773438 598.949219 769.273438 598.386719 768.710938 C 597.828125 768.152344 597.328125 767.539062 596.886719 766.882812 C 596.445312 766.222656 596.074219 765.527344 595.769531 764.792969 C 595.46875 764.0625 595.238281 763.304688 595.082031 762.527344 C 594.929688 761.75 594.851562 760.964844 594.851562 760.171875 C 594.851562 759.378906 594.929688 758.59375 595.082031 757.816406 C 595.238281 757.039062 595.46875 756.285156 595.769531 755.550781 C 596.074219 754.820312 596.445312 754.121094 596.886719 753.464844 C 597.328125 752.804688 597.828125 752.195312 598.386719 751.632812 C 598.949219 751.074219 599.558594 750.574219 600.21875 750.132812 C 600.878906 749.691406 601.574219 749.320312 602.304688 749.015625 C 603.039062 748.710938 603.792969 748.484375 604.570312 748.328125 C 605.347656 748.175781 606.132812 748.097656 606.925781 748.097656 Z M 606.925781 748.097656 " fill-opacity="1" fill-rule="nonzero"/><path fill="#fbc74c" d="M 49.828125 190.996094 C 50.621094 190.996094 51.40625 191.074219 52.183594 191.230469 C 52.960938 191.382812 53.714844 191.613281 54.449219 191.917969 C 55.179688 192.21875 55.875 192.59375 56.535156 193.03125 C 57.195312 193.472656 57.804688 193.972656 58.367188 194.535156 C 58.925781 195.09375 59.425781 195.707031 59.867188 196.363281 C 60.308594 197.023438 60.679688 197.71875 60.984375 198.453125 C 61.289062 199.183594 61.515625 199.941406 61.671875 200.71875 C 61.824219 201.496094 61.902344 202.28125 61.902344 203.074219 C 61.902344 203.867188 61.824219 204.652344 61.671875 205.429688 C 61.515625 206.207031 61.289062 206.960938 60.984375 207.695312 C 60.679688 208.425781 60.308594 209.121094 59.867188 209.78125 C 59.425781 210.441406 58.925781 211.050781 58.367188 211.613281 C 57.804688 212.171875 57.195312 212.671875 56.535156 213.113281 C 55.875 213.554688 55.179688 213.925781 54.449219 214.230469 C 53.714844 214.53125 52.960938 214.761719 52.183594 214.917969 C 51.40625 215.070312 50.621094 215.148438 49.828125 215.148438 C 49.035156 215.148438 48.25 215.070312 47.472656 214.917969 C 46.695312 214.761719 45.9375 214.53125 45.207031 214.230469 C 44.472656 213.925781 43.777344 213.554688 43.117188 213.113281 C 42.460938 212.671875 41.847656 212.171875 41.289062 211.613281 C 40.726562 211.050781 40.226562 210.441406 39.785156 209.78125 C 39.347656 209.121094 38.972656 208.425781 38.671875 207.695312 C 38.367188 206.960938 38.136719 206.207031 37.984375 205.429688 C 37.828125 204.652344 37.75 203.867188 37.75 203.074219 C 37.75 202.28125 37.828125 201.496094 37.984375 200.71875 C 38.136719 199.941406 38.367188 199.183594 38.671875 198.453125 C 38.972656 197.71875 39.347656 197.023438 39.785156 196.363281 C 40.226562 195.703125 40.726562 195.09375 41.289062 194.535156 C 41.847656 193.972656 42.460938 193.472656 43.117188 193.03125 C 43.777344 192.59375 44.472656 192.21875 45.207031 191.917969 C 45.9375 191.613281 46.695312 191.382812 47.472656 191.230469 C 48.25 191.074219 49.035156 190.996094 49.828125 190.996094 Z M 49.828125 190.996094 " fill-opacity="1" fill-rule="nonzero"/></svg>