<svg xmlns="http://www.w3.org/2000/svg" xmlns:xlink="http://www.w3.org/1999/xlink" width="1080" zoomAndPan="magnify" viewBox="0 0 810 809.999993" height="1080" preserveAspectRatio="xMidYMid meet" version="1.0"><path stroke-linecap="butt" transform="matrix(-0.638169, 0.638169, -0.638169, -0.638169, 846.272121, 87.570001)" fill="none" stroke-linejoin="miter" d="M 30.041227 29.789777 L 164.012208 29.789777 L 164.009148 164.259622 L 30.038167 164.259622 Z M 30.041227 29.789777 " stroke="#e6ae63" stroke-width="3" stroke-opacity="1" stroke-miterlimit="10"/><path fill="#fbc74c" d="M 762.167969 87.730469 L 722.589844 127.308594 L 682.691406 87.410156 L 722.269531 47.832031 Z M 762.167969 87.730469 " fill-opacity="1" fill-rule="nonzero"/><path stroke-linecap="butt" transform="matrix(0, 0.902507, -0.902507, 0, 809.999963, 0.00002)" fill="none" stroke-linejoin="miter" d="M 879.568173 96.718397 L 96.718416 96.718397 L 96.718416 879.568154 " stroke="#e6ae63" stroke-width="3" stroke-opacity="1" stroke-miterlimit="10"/><path stroke-linecap="butt" transform="matrix(0, 0.902507, -0.902507, 0, 809.999963, 0.00002)" fill="none" stroke-linejoin="miter" d="M 55.210772 259.321024 L 55.210772 663.568258 " stroke="#e6ae63" stroke-width="3" stroke-opacity="1" stroke-miterlimit="10"/><path stroke-linecap="butt" transform="matrix(0, 0.902507, -0.902507, 0, 809.999963, 0.00002)" fill="none" stroke-linejoin="miter" d="M 259.321043 55.210753 L 663.568278 55.210753 " stroke="#e6ae63" stroke-width="3" stroke-opacity="1" stroke-miterlimit="10"/><path stroke-linecap="butt" transform="matrix(0.638169, -0.638169, 0.638169, 0.638169, -488.996468, -362.807715)" fill="none" stroke-linejoin="miter" d="M 77.260621 783.08132 L 116.931016 783.08132 L 116.931016 822.751715 L 77.260621 822.751715 Z M 77.260621 783.08132 " stroke="#e6ae63" stroke-width="3" stroke-opacity="1" stroke-miterlimit="10"/><path stroke-linecap="butt" transform="matrix(0.638169, -0.638169, 0.638169, 0.638169, 148.019821, 1175.073369)" fill="none" stroke-linejoin="miter" d="M 783.080823 77.260078 L 822.751218 77.260078 L 822.751218 116.930473 L 783.080823 116.930473 Z M 783.080823 77.260078 " stroke="#e6ae63" stroke-width="3" stroke-opacity="1" stroke-miterlimit="10"/><path stroke-linecap="butt" transform="matrix(0.638169, -0.638169, 0.638169, 0.638169, -526.376562, -378.294659)" fill="none" stroke-linejoin="miter" d="M 77.259538 807.348027 L 116.929933 807.348027 L 116.929933 847.018421 L 77.259538 847.018421 Z M 77.259538 807.348027 " stroke="#e6ae63" stroke-width="3" stroke-opacity="1" stroke-miterlimit="10"/><path stroke-linecap="butt" transform="matrix(0.638169, -0.638169, 0.638169, 0.638169, 132.532262, 1212.455119)" fill="none" stroke-linejoin="miter" d="M 807.349309 77.260345 L 847.019703 77.260345 L 847.019703 116.930739 L 807.349309 116.930739 Z M 807.349309 77.260345 " stroke="#e6ae63" stroke-width="3" stroke-opacity="1" stroke-miterlimit="10"/><path stroke-linecap="butt" transform="matrix(0.638169, -0.638169, 0.638169, 0.638169, -563.760448, -393.781395)" fill="none" stroke-linejoin="miter" d="M 77.26159 831.61142 L 116.928924 831.608359 L 116.928924 871.278754 L 77.25853 871.278754 Z M 77.26159 831.61142 " stroke="#e6ae63" stroke-width="3" stroke-opacity="1" stroke-miterlimit="10"/><path stroke-linecap="butt" transform="matrix(0.638169, -0.638169, 0.638169, 0.638169, 117.046169, 1249.837349)" fill="none" stroke-linejoin="miter" d="M 831.6109 77.259086 L 871.281295 77.259086 L 871.281295 116.929481 L 831.6109 116.929481 Z M 831.6109 77.259086 " stroke="#e6ae63" stroke-width="3" stroke-opacity="1" stroke-miterlimit="10"/><path fill="#fbc74c" d="M 7.597656 95.25 C 7.097656 95.25 6.601562 95.203125 6.113281 95.105469 C 5.621094 95.007812 5.144531 94.863281 4.679688 94.671875 C 4.21875 94.476562 3.777344 94.242188 3.363281 93.964844 C 2.945312 93.6875 2.5625 93.371094 2.207031 93.015625 C 1.851562 92.664062 1.535156 92.277344 1.257812 91.859375 C 0.980469 91.445312 0.746094 91.003906 0.554688 90.542969 C 0.363281 90.082031 0.21875 89.601562 0.121094 89.113281 C 0.0234375 88.621094 -0.0273438 88.125 -0.0273438 87.625 C -0.0273438 87.125 0.0234375 86.628906 0.121094 86.136719 C 0.21875 85.644531 0.363281 85.167969 0.554688 84.707031 C 0.746094 84.242188 0.980469 83.804688 1.257812 83.386719 C 1.535156 82.972656 1.851562 82.585938 2.207031 82.230469 C 2.5625 81.878906 2.945312 81.5625 3.363281 81.285156 C 3.777344 81.003906 4.21875 80.769531 4.679688 80.578125 C 5.144531 80.386719 5.621094 80.242188 6.113281 80.144531 C 6.601562 80.046875 7.097656 80 7.597656 80 C 8.101562 80 8.597656 80.046875 9.085938 80.144531 C 9.578125 80.242188 10.054688 80.386719 10.515625 80.578125 C 10.980469 80.769531 11.417969 81.003906 11.835938 81.285156 C 12.253906 81.5625 12.636719 81.878906 12.992188 82.230469 C 13.347656 82.585938 13.660156 82.972656 13.941406 83.386719 C 14.21875 83.804688 14.453125 84.242188 14.644531 84.707031 C 14.835938 85.167969 14.980469 85.644531 15.078125 86.136719 C 15.175781 86.628906 15.226562 87.125 15.226562 87.625 C 15.226562 88.125 15.175781 88.621094 15.078125 89.113281 C 14.980469 89.601562 14.835938 90.082031 14.644531 90.542969 C 14.453125 91.003906 14.21875 91.445312 13.941406 91.859375 C 13.660156 92.277344 13.347656 92.664062 12.992188 93.015625 C 12.636719 93.371094 12.253906 93.6875 11.835938 93.964844 C 11.417969 94.242188 10.980469 94.476562 10.515625 94.671875 C 10.054688 94.863281 9.578125 95.007812 9.085938 95.105469 C 8.597656 95.203125 8.101562 95.25 7.597656 95.25 Z M 7.597656 95.25 " fill-opacity="1" fill-rule="nonzero"/><path fill="#fbc74c" d="M 722.375 810.027344 C 721.875 810.027344 721.378906 809.976562 720.886719 809.878906 C 720.398438 809.78125 719.917969 809.636719 719.457031 809.445312 C 718.996094 809.253906 718.554688 809.019531 718.140625 808.742188 C 717.722656 808.464844 717.335938 808.148438 716.984375 807.792969 C 716.628906 807.4375 716.3125 807.054688 716.035156 806.636719 C 715.757812 806.222656 715.523438 805.78125 715.328125 805.320312 C 715.136719 804.855469 714.992188 804.378906 714.894531 803.886719 C 714.796875 803.398438 714.75 802.902344 714.75 802.402344 C 714.75 801.898438 714.796875 801.402344 714.894531 800.914062 C 714.992188 800.421875 715.136719 799.945312 715.328125 799.484375 C 715.523438 799.019531 715.757812 798.582031 716.035156 798.164062 C 716.3125 797.746094 716.628906 797.363281 716.984375 797.007812 C 717.335938 796.652344 717.722656 796.339844 718.140625 796.058594 C 718.554688 795.78125 718.996094 795.546875 719.457031 795.355469 C 719.917969 795.164062 720.398438 795.019531 720.886719 794.921875 C 721.378906 794.824219 721.875 794.773438 722.375 794.773438 C 722.875 794.773438 723.371094 794.824219 723.863281 794.921875 C 724.355469 795.019531 724.832031 795.164062 725.292969 795.355469 C 725.757812 795.546875 726.195312 795.78125 726.613281 796.058594 C 727.027344 796.339844 727.414062 796.652344 727.769531 797.007812 C 728.121094 797.363281 728.4375 797.746094 728.714844 798.164062 C 728.996094 798.582031 729.230469 799.019531 729.421875 799.484375 C 729.613281 799.945312 729.757812 800.421875 729.855469 800.914062 C 729.953125 801.402344 730 801.898438 730 802.402344 C 730 802.902344 729.953125 803.398438 729.855469 803.886719 C 729.757812 804.378906 729.613281 804.855469 729.421875 805.320312 C 729.230469 805.78125 728.996094 806.222656 728.714844 806.636719 C 728.4375 807.054688 728.121094 807.4375 727.769531 807.792969 C 727.414062 808.148438 727.027344 808.464844 726.613281 808.742188 C 726.195312 809.019531 725.757812 809.253906 725.292969 809.445312 C 724.832031 809.636719 724.355469 809.78125 723.863281 809.878906 C 723.371094 809.976562 722.875 810.027344 722.375 810.027344 Z M 722.375 810.027344 " fill-opacity="1" fill-rule="nonzero"/><path fill="#fbc74c" d="M 119.140625 95.25 C 118.640625 95.25 118.144531 95.203125 117.652344 95.105469 C 117.160156 95.007812 116.683594 94.863281 116.222656 94.671875 C 115.757812 94.476562 115.320312 94.242188 114.902344 93.964844 C 114.488281 93.6875 114.101562 93.371094 113.746094 93.015625 C 113.394531 92.664062 113.078125 92.277344 112.800781 91.859375 C 112.519531 91.445312 112.285156 91.003906 112.09375 90.542969 C 111.902344 90.082031 111.757812 89.601562 111.660156 89.113281 C 111.5625 88.621094 111.515625 88.125 111.515625 87.625 C 111.515625 87.125 111.5625 86.628906 111.660156 86.136719 C 111.757812 85.644531 111.902344 85.167969 112.09375 84.707031 C 112.285156 84.242188 112.519531 83.804688 112.800781 83.386719 C 113.078125 82.972656 113.394531 82.585938 113.746094 82.230469 C 114.101562 81.878906 114.488281 81.5625 114.902344 81.285156 C 115.320312 81.003906 115.757812 80.769531 116.222656 80.578125 C 116.683594 80.386719 117.160156 80.242188 117.652344 80.144531 C 118.144531 80.046875 118.640625 80 119.140625 80 C 119.640625 80 120.136719 80.046875 120.628906 80.144531 C 121.117188 80.242188 121.597656 80.386719 122.058594 80.578125 C 122.519531 80.769531 122.960938 81.003906 123.375 81.285156 C 123.792969 81.5625 124.179688 81.878906 124.53125 82.230469 C 124.886719 82.585938 125.203125 82.972656 125.480469 83.386719 C 125.757812 83.804688 125.992188 84.242188 126.1875 84.707031 C 126.378906 85.167969 126.523438 85.644531 126.621094 86.136719 C 126.71875 86.628906 126.765625 87.125 126.765625 87.625 C 126.765625 88.125 126.71875 88.621094 126.621094 89.113281 C 126.523438 89.601562 126.378906 90.082031 126.1875 90.542969 C 125.992188 91.003906 125.757812 91.445312 125.480469 91.859375 C 125.203125 92.277344 124.886719 92.664062 124.53125 93.015625 C 124.179688 93.371094 123.792969 93.6875 123.375 93.964844 C 122.960938 94.242188 122.519531 94.476562 122.058594 94.671875 C 121.597656 94.863281 121.117188 95.007812 120.628906 95.105469 C 120.136719 95.203125 119.640625 95.25 119.140625 95.25 Z M 119.140625 95.25 " fill-opacity="1" fill-rule="nonzero"/><path fill="#fbc74c" d="M 722.375 698.484375 C 721.875 698.484375 721.378906 698.4375 720.886719 698.339844 C 720.398438 698.242188 719.917969 698.097656 719.457031 697.90625 C 718.996094 697.714844 718.554688 697.480469 718.140625 697.199219 C 717.722656 696.921875 717.335938 696.605469 716.984375 696.253906 C 716.628906 695.898438 716.3125 695.511719 716.035156 695.097656 C 715.757812 694.679688 715.523438 694.242188 715.328125 693.777344 C 715.136719 693.316406 714.992188 692.839844 714.894531 692.347656 C 714.796875 691.855469 714.75 691.359375 714.75 690.859375 C 714.75 690.359375 714.796875 689.863281 714.894531 689.371094 C 714.992188 688.882812 715.136719 688.402344 715.328125 687.941406 C 715.523438 687.480469 715.757812 687.039062 716.035156 686.625 C 716.3125 686.207031 716.628906 685.820312 716.984375 685.46875 C 717.335938 685.113281 717.722656 684.796875 718.140625 684.519531 C 718.554688 684.242188 718.996094 684.007812 719.457031 683.8125 C 719.917969 683.621094 720.398438 683.476562 720.886719 683.378906 C 721.378906 683.28125 721.875 683.234375 722.375 683.234375 C 722.875 683.234375 723.371094 683.28125 723.863281 683.378906 C 724.355469 683.476562 724.832031 683.621094 725.292969 683.8125 C 725.757812 684.007812 726.195312 684.242188 726.613281 684.519531 C 727.027344 684.796875 727.414062 685.113281 727.769531 685.46875 C 728.121094 685.820312 728.4375 686.207031 728.714844 686.625 C 728.996094 687.039062 729.230469 687.480469 729.421875 687.941406 C 729.613281 688.402344 729.757812 688.882812 729.855469 689.371094 C 729.953125 689.863281 730 690.359375 730 690.859375 C 730 691.359375 729.953125 691.855469 729.855469 692.347656 C 729.757812 692.839844 729.613281 693.316406 729.421875 693.777344 C 729.230469 694.242188 728.996094 694.679688 728.714844 695.097656 C 728.4375 695.511719 728.121094 695.898438 727.769531 696.253906 C 727.414062 696.605469 727.027344 696.921875 726.613281 697.199219 C 726.195312 697.480469 725.757812 697.714844 725.292969 697.90625 C 724.832031 698.097656 724.355469 698.242188 723.863281 698.339844 C 723.371094 698.4375 722.875 698.484375 722.375 698.484375 Z M 722.375 698.484375 " fill-opacity="1" fill-rule="nonzero"/><path fill="#fbc74c" d="M 203.074219 61.902344 C 202.28125 61.902344 201.496094 61.824219 200.71875 61.671875 C 199.941406 61.515625 199.183594 61.289062 198.453125 60.984375 C 197.71875 60.679688 197.023438 60.308594 196.363281 59.867188 C 195.703125 59.425781 195.09375 58.925781 194.535156 58.367188 C 193.972656 57.804688 193.472656 57.195312 193.03125 56.535156 C 192.59375 55.878906 192.21875 55.179688 191.917969 54.449219 C 191.613281 53.714844 191.382812 52.960938 191.230469 52.183594 C 191.074219 51.40625 190.996094 50.621094 190.996094 49.828125 C 190.996094 49.035156 191.074219 48.25 191.230469 47.472656 C 191.382812 46.695312 191.613281 45.9375 191.917969 45.207031 C 192.21875 44.472656 192.59375 43.777344 193.03125 43.117188 C 193.472656 42.460938 193.972656 41.847656 194.535156 41.289062 C 195.09375 40.726562 195.703125 40.226562 196.363281 39.785156 C 197.023438 39.347656 197.71875 38.972656 198.453125 38.671875 C 199.183594 38.367188 199.941406 38.136719 200.71875 37.984375 C 201.496094 37.828125 202.28125 37.75 203.074219 37.75 C 203.867188 37.75 204.652344 37.828125 205.429688 37.984375 C 206.207031 38.136719 206.960938 38.367188 207.695312 38.671875 C 208.425781 38.972656 209.121094 39.347656 209.78125 39.785156 C 210.441406 40.226562 211.050781 40.726562 211.613281 41.289062 C 212.171875 41.847656 212.671875 42.460938 213.113281 43.117188 C 213.554688 43.777344 213.925781 44.472656 214.230469 45.207031 C 214.53125 45.9375 214.761719 46.695312 214.917969 47.472656 C 215.070312 48.25 215.148438 49.035156 215.148438 49.828125 C 215.148438 50.621094 215.070312 51.40625 214.917969 52.183594 C 214.761719 52.960938 214.53125 53.714844 214.230469 54.449219 C 213.925781 55.179688 213.554688 55.878906 213.113281 56.535156 C 212.671875 57.195312 212.171875 57.804688 211.613281 58.367188 C 211.050781 58.925781 210.441406 59.425781 209.78125 59.867188 C 209.121094 60.308594 208.425781 60.679688 207.695312 60.984375 C 206.960938 61.289062 206.207031 61.515625 205.429688 61.671875 C 204.652344 61.824219 203.867188 61.902344 203.074219 61.902344 Z M 203.074219 61.902344 " fill-opacity="1" fill-rule="nonzero"/><path fill="#fbc74c" d="M 760.171875 619.003906 C 759.378906 619.003906 758.59375 618.925781 757.816406 618.769531 C 757.039062 618.617188 756.285156 618.386719 755.550781 618.082031 C 754.820312 617.78125 754.121094 617.40625 753.464844 616.96875 C 752.804688 616.527344 752.195312 616.027344 751.632812 615.464844 C 751.074219 614.90625 750.574219 614.292969 750.132812 613.636719 C 749.691406 612.976562 749.320312 612.28125 749.015625 611.546875 C 748.710938 610.816406 748.484375 610.058594 748.328125 609.28125 C 748.175781 608.503906 748.097656 607.71875 748.097656 606.925781 C 748.097656 606.132812 748.175781 605.347656 748.328125 604.570312 C 748.484375 603.792969 748.710938 603.039062 749.015625 602.304688 C 749.320312 601.574219 749.691406 600.878906 750.132812 600.21875 C 750.574219 599.558594 751.074219 598.949219 751.632812 598.386719 C 752.195312 597.828125 752.804688 597.328125 753.464844 596.886719 C 754.121094 596.445312 754.820312 596.074219 755.550781 595.769531 C 756.285156 595.46875 757.039062 595.238281 757.816406 595.082031 C 758.59375 594.929688 759.378906 594.851562 760.171875 594.851562 C 760.964844 594.851562 761.75 594.929688 762.527344 595.082031 C 763.304688 595.238281 764.0625 595.46875 764.792969 595.769531 C 765.527344 596.074219 766.222656 596.445312 766.882812 596.886719 C 767.539062 597.328125 768.152344 597.828125 768.710938 598.386719 C 769.273438 598.949219 769.773438 599.558594 770.214844 600.21875 C 770.652344 600.878906 771.027344 601.574219 771.328125 602.304688 C 771.632812 603.039062 771.863281 603.792969 772.015625 604.570312 C 772.171875 605.347656 772.25 606.132812 772.25 606.925781 C 772.25 607.71875 772.171875 608.503906 772.015625 609.28125 C 771.863281 610.058594 771.632812 610.816406 771.328125 611.546875 C 771.027344 612.28125 770.652344 612.976562 770.214844 613.636719 C 769.773438 614.296875 769.273438 614.90625 768.710938 615.464844 C 768.152344 616.027344 767.539062 616.527344 766.882812 616.96875 C 766.222656 617.40625 765.527344 617.78125 764.792969 618.082031 C 764.0625 618.386719 763.304688 618.617188 762.527344 618.769531 C 761.75 618.925781 760.964844 619.003906 760.171875 619.003906 Z M 760.171875 619.003906 " fill-opacity="1" fill-rule="nonzero"/></svg>